G04 EAGLE Gerber RS-274X export*
G75*
%MOMM*%
%FSLAX34Y34*%
%LPD*%
%AMOC8*
5,1,8,0,0,1.08239X$1,22.5*%
G01*
%ADD10R,0.800000X0.800000*%
%ADD11R,0.800000X0.800000*%
%ADD12C,0.200000*%
%ADD13R,0.200000X0.200000*%
%ADD14C,2.000000*%
%ADD15C,0.609600*%
%ADD16C,0.304800*%
%ADD17C,0.406400*%


D10*
X38450Y54250D03*
X38450Y39250D03*
X93900Y81750D03*
X93900Y66750D03*
X150600Y80500D03*
X150600Y65500D03*
D11*
G36*
X210818Y33374D02*
X205162Y39030D01*
X210818Y44686D01*
X216474Y39030D01*
X210818Y33374D01*
G37*
G36*
X200212Y22768D02*
X194556Y28424D01*
X200212Y34080D01*
X205868Y28424D01*
X200212Y22768D01*
G37*
D10*
X242100Y-25100D03*
X227100Y-25100D03*
X242100Y-83050D03*
X227100Y-83050D03*
X228350Y-139750D03*
X213350Y-139750D03*
X195850Y-193950D03*
X180850Y-193950D03*
D11*
G36*
X152073Y-240846D02*
X157729Y-235190D01*
X163385Y-240846D01*
X157729Y-246502D01*
X152073Y-240846D01*
G37*
G36*
X141467Y-230240D02*
X147123Y-224584D01*
X152779Y-230240D01*
X147123Y-235896D01*
X141467Y-230240D01*
G37*
D10*
X105150Y-280850D03*
X105150Y-265850D03*
X59700Y-300850D03*
X59700Y-285850D03*
X13000Y-317100D03*
X13000Y-302100D03*
X-37450Y-310850D03*
X-37450Y-295850D03*
X-82900Y-292100D03*
X-82900Y-277100D03*
X-129600Y-264600D03*
X-129600Y-249600D03*
D11*
G36*
X-175208Y-216910D02*
X-169552Y-222566D01*
X-175208Y-228222D01*
X-180864Y-222566D01*
X-175208Y-216910D01*
G37*
G36*
X-164602Y-206304D02*
X-158946Y-211960D01*
X-164602Y-217616D01*
X-170258Y-211960D01*
X-164602Y-206304D01*
G37*
D10*
X-213300Y-168200D03*
X-198300Y-168200D03*
X-235800Y-109000D03*
X-220800Y-109000D03*
X-248300Y-52300D03*
X-233300Y-52300D03*
D11*
G36*
X-221370Y13676D02*
X-227026Y8020D01*
X-232682Y13676D01*
X-227026Y19332D01*
X-221370Y13676D01*
G37*
G36*
X-210764Y3070D02*
X-216420Y-2586D01*
X-222076Y3070D01*
X-216420Y8726D01*
X-210764Y3070D01*
G37*
G36*
X-175685Y60610D02*
X-181341Y54954D01*
X-186997Y60610D01*
X-181341Y66266D01*
X-175685Y60610D01*
G37*
G36*
X-165079Y50004D02*
X-170735Y44348D01*
X-176391Y50004D01*
X-170735Y55660D01*
X-165079Y50004D01*
G37*
D10*
X-122200Y82050D03*
X-122200Y67050D03*
X-68000Y73300D03*
X-68000Y58300D03*
X-13800Y33300D03*
X-13800Y18300D03*
X13850Y33250D03*
X13850Y18250D03*
X66800Y73250D03*
X66800Y58250D03*
X119750Y82000D03*
X119750Y67000D03*
D11*
G36*
X181858Y54669D02*
X176202Y60325D01*
X181858Y65981D01*
X187514Y60325D01*
X181858Y54669D01*
G37*
G36*
X171252Y44063D02*
X165596Y49719D01*
X171252Y55375D01*
X176908Y49719D01*
X171252Y44063D01*
G37*
G36*
X227025Y8467D02*
X221369Y14123D01*
X227025Y19779D01*
X232681Y14123D01*
X227025Y8467D01*
G37*
G36*
X216419Y-2139D02*
X210763Y3517D01*
X216419Y9173D01*
X222075Y3517D01*
X216419Y-2139D01*
G37*
D10*
X248250Y-52350D03*
X233250Y-52350D03*
X235750Y-109050D03*
X220750Y-109050D03*
X213250Y-168250D03*
X198250Y-168250D03*
D11*
G36*
X170730Y-222048D02*
X176386Y-216392D01*
X182042Y-222048D01*
X176386Y-227704D01*
X170730Y-222048D01*
G37*
G36*
X160124Y-211442D02*
X165780Y-205786D01*
X171436Y-211442D01*
X165780Y-217098D01*
X160124Y-211442D01*
G37*
D10*
X129813Y-264285D03*
X129813Y-249285D03*
X82900Y-292000D03*
X82900Y-277000D03*
X37400Y-310700D03*
X37400Y-295700D03*
X-13050Y-316950D03*
X-13050Y-301950D03*
X-59750Y-300700D03*
X-59750Y-285700D03*
X-105200Y-280700D03*
X-105200Y-265700D03*
D11*
G36*
X-157874Y-235567D02*
X-152218Y-241223D01*
X-157874Y-246879D01*
X-163530Y-241223D01*
X-157874Y-235567D01*
G37*
G36*
X-147268Y-224961D02*
X-141612Y-230617D01*
X-147268Y-236273D01*
X-152924Y-230617D01*
X-147268Y-224961D01*
G37*
D10*
X-195700Y-193900D03*
X-180700Y-193900D03*
X-228200Y-139700D03*
X-213200Y-139700D03*
X-243200Y-83000D03*
X-228200Y-83000D03*
X-242468Y-24534D03*
X-227468Y-24534D03*
D11*
G36*
X-202360Y39616D02*
X-208016Y33960D01*
X-213672Y39616D01*
X-208016Y45272D01*
X-202360Y39616D01*
G37*
G36*
X-191754Y29010D02*
X-197410Y23354D01*
X-203066Y29010D01*
X-197410Y34666D01*
X-191754Y29010D01*
G37*
D10*
X-150400Y80700D03*
X-150400Y65700D03*
X-94900Y80650D03*
X-94900Y65650D03*
X-39450Y54400D03*
X-39450Y39400D03*
D12*
X1Y-59200D02*
X-649Y-58448D01*
X-1317Y-57712D01*
X-2003Y-56993D01*
X-2706Y-56290D01*
X-3426Y-55605D01*
X-4163Y-54937D01*
X-4915Y-54288D01*
X-5683Y-53657D01*
X-6467Y-53045D01*
X-7264Y-52453D01*
X-8076Y-51879D01*
X-8902Y-51326D01*
X-9741Y-50793D01*
X-10593Y-50281D01*
X-11457Y-49789D01*
X-12332Y-49319D01*
X-13219Y-48870D01*
X-14116Y-48443D01*
X-15024Y-48038D01*
X-15941Y-47655D01*
X-16867Y-47294D01*
X-17802Y-46956D01*
X-18745Y-46641D01*
X-19695Y-46349D01*
X-20651Y-46080D01*
X-21615Y-45835D01*
X-22583Y-45613D01*
X-23557Y-45414D01*
X-24536Y-45240D01*
X-25518Y-45089D01*
X-26504Y-44962D01*
X-27493Y-44860D01*
X-28483Y-44781D01*
X-29476Y-44726D01*
X-30469Y-44696D01*
X-31463Y-44690D01*
X-32457Y-44708D01*
X-33450Y-44750D01*
X-34442Y-44816D01*
X-35431Y-44907D01*
X-36419Y-45021D01*
X-37403Y-45160D01*
X-38383Y-45322D01*
X-39360Y-45508D01*
X-40331Y-45718D01*
X-41297Y-45951D01*
X-42257Y-46208D01*
X-43211Y-46489D01*
X-44158Y-46792D01*
X-45096Y-47118D01*
X-46027Y-47467D01*
X-46949Y-47839D01*
X-47861Y-48232D01*
X-48764Y-48648D01*
X-49656Y-49086D01*
X-50538Y-49546D01*
X-51408Y-50026D01*
X-52266Y-50528D01*
X-53111Y-51050D01*
X-53944Y-51593D01*
X-54763Y-52156D01*
X-55568Y-52739D01*
X-56359Y-53341D01*
X-57135Y-53962D01*
X-57895Y-54602D01*
X-58640Y-55260D01*
X-59368Y-55936D01*
X-60080Y-56630D01*
X-60775Y-57341D01*
X-61452Y-58068D01*
X-62112Y-58812D01*
X-62753Y-59572D01*
X-63375Y-60347D01*
X-63978Y-61136D01*
X-64562Y-61941D01*
X-65126Y-62759D01*
X-65671Y-63591D01*
X-66194Y-64435D01*
X-66697Y-65293D01*
X-67179Y-66162D01*
X-67640Y-67043D01*
X-68079Y-67934D01*
X-68496Y-68836D01*
X-68892Y-69748D01*
X-69265Y-70670D01*
X-69615Y-71600D01*
X-69943Y-72538D01*
X-70247Y-73484D01*
X-70529Y-74437D01*
X-70787Y-75397D01*
X-71022Y-76363D01*
X-71234Y-77334D01*
X-71421Y-78310D01*
X-71585Y-79290D01*
X-71725Y-80274D01*
X-71841Y-81261D01*
X-71933Y-82251D01*
X-72001Y-83243D01*
X-72044Y-84236D01*
X-72064Y-85229D01*
X-72059Y-86223D01*
X-72030Y-87217D01*
X-71977Y-88209D01*
X-71900Y-89200D01*
X-1Y-59200D02*
X649Y-58448D01*
X1317Y-57712D01*
X2003Y-56993D01*
X2706Y-56290D01*
X3426Y-55605D01*
X4163Y-54937D01*
X4915Y-54288D01*
X5683Y-53657D01*
X6467Y-53045D01*
X7264Y-52453D01*
X8076Y-51879D01*
X8902Y-51326D01*
X9741Y-50793D01*
X10593Y-50281D01*
X11457Y-49789D01*
X12332Y-49319D01*
X13219Y-48870D01*
X14116Y-48443D01*
X15024Y-48038D01*
X15941Y-47655D01*
X16867Y-47294D01*
X17802Y-46956D01*
X18745Y-46641D01*
X19695Y-46349D01*
X20651Y-46080D01*
X21615Y-45835D01*
X22583Y-45613D01*
X23557Y-45414D01*
X24536Y-45240D01*
X25518Y-45089D01*
X26504Y-44962D01*
X27493Y-44860D01*
X28483Y-44781D01*
X29476Y-44726D01*
X30469Y-44696D01*
X31463Y-44690D01*
X32457Y-44708D01*
X33450Y-44750D01*
X34442Y-44816D01*
X35431Y-44907D01*
X36419Y-45021D01*
X37403Y-45160D01*
X38383Y-45322D01*
X39360Y-45508D01*
X40331Y-45718D01*
X41297Y-45951D01*
X42257Y-46208D01*
X43211Y-46489D01*
X44158Y-46792D01*
X45096Y-47118D01*
X46027Y-47467D01*
X46949Y-47839D01*
X47861Y-48232D01*
X48764Y-48648D01*
X49656Y-49086D01*
X50538Y-49546D01*
X51408Y-50026D01*
X52266Y-50528D01*
X53111Y-51050D01*
X53944Y-51593D01*
X54763Y-52156D01*
X55568Y-52739D01*
X56359Y-53341D01*
X57135Y-53962D01*
X57895Y-54602D01*
X58640Y-55260D01*
X59368Y-55936D01*
X60080Y-56630D01*
X60775Y-57341D01*
X61452Y-58068D01*
X62112Y-58812D01*
X62753Y-59572D01*
X63375Y-60347D01*
X63978Y-61136D01*
X64562Y-61941D01*
X65126Y-62759D01*
X65671Y-63591D01*
X66194Y-64435D01*
X66697Y-65293D01*
X67179Y-66162D01*
X67640Y-67043D01*
X68079Y-67934D01*
X68496Y-68836D01*
X68892Y-69748D01*
X69265Y-70670D01*
X69615Y-71600D01*
X69943Y-72538D01*
X70247Y-73484D01*
X70529Y-74437D01*
X70787Y-75397D01*
X71022Y-76363D01*
X71234Y-77334D01*
X71421Y-78310D01*
X71585Y-79290D01*
X71725Y-80274D01*
X71841Y-81261D01*
X71933Y-82251D01*
X72001Y-83243D01*
X72044Y-84236D01*
X72064Y-85229D01*
X72059Y-86223D01*
X72030Y-87217D01*
X71977Y-88209D01*
X71900Y-89200D01*
X0Y-161100D02*
X-1928Y-160907D01*
X-3850Y-160668D01*
X-5767Y-160381D01*
X-7675Y-160048D01*
X-9575Y-159667D01*
X-11465Y-159241D01*
X-13344Y-158768D01*
X-15210Y-158250D01*
X-17064Y-157685D01*
X-18903Y-157076D01*
X-20726Y-156422D01*
X-22534Y-155723D01*
X-24323Y-154980D01*
X-26094Y-154194D01*
X-27844Y-153364D01*
X-29574Y-152492D01*
X-31283Y-151578D01*
X-32968Y-150622D01*
X-34629Y-149625D01*
X-36266Y-148588D01*
X-37876Y-147511D01*
X-39460Y-146395D01*
X-41016Y-145240D01*
X-42543Y-144048D01*
X-44040Y-142818D01*
X-45507Y-141553D01*
X-46942Y-140251D01*
X-48345Y-138915D01*
X-49715Y-137545D01*
X-51051Y-136142D01*
X-52353Y-134707D01*
X-53618Y-133240D01*
X-54848Y-131743D01*
X-56040Y-130216D01*
X-57195Y-128660D01*
X-58311Y-127076D01*
X-59388Y-125466D01*
X-60425Y-123829D01*
X-61422Y-122168D01*
X-62378Y-120483D01*
X-63292Y-118774D01*
X-64164Y-117044D01*
X-64994Y-115294D01*
X-65780Y-113523D01*
X-66523Y-111734D01*
X-67222Y-109926D01*
X-67876Y-108103D01*
X-68485Y-106264D01*
X-69050Y-104410D01*
X-69568Y-102544D01*
X-70041Y-100665D01*
X-70467Y-98775D01*
X-70848Y-96875D01*
X-71181Y-94967D01*
X-71468Y-93050D01*
X-71707Y-91128D01*
X-71900Y-89200D01*
X0Y-161100D02*
X1928Y-160907D01*
X3850Y-160668D01*
X5767Y-160381D01*
X7675Y-160048D01*
X9575Y-159667D01*
X11465Y-159241D01*
X13344Y-158768D01*
X15210Y-158250D01*
X17064Y-157685D01*
X18903Y-157076D01*
X20726Y-156422D01*
X22534Y-155723D01*
X24323Y-154980D01*
X26094Y-154194D01*
X27844Y-153364D01*
X29574Y-152492D01*
X31283Y-151578D01*
X32968Y-150622D01*
X34629Y-149625D01*
X36266Y-148588D01*
X37876Y-147511D01*
X39460Y-146395D01*
X41016Y-145240D01*
X42543Y-144048D01*
X44040Y-142818D01*
X45507Y-141553D01*
X46942Y-140251D01*
X48345Y-138915D01*
X49715Y-137545D01*
X51051Y-136142D01*
X52353Y-134707D01*
X53618Y-133240D01*
X54848Y-131743D01*
X56040Y-130216D01*
X57195Y-128660D01*
X58311Y-127076D01*
X59388Y-125466D01*
X60425Y-123829D01*
X61422Y-122168D01*
X62378Y-120483D01*
X63292Y-118774D01*
X64164Y-117044D01*
X64994Y-115294D01*
X65780Y-113523D01*
X66523Y-111734D01*
X67222Y-109926D01*
X67876Y-108103D01*
X68485Y-106264D01*
X69050Y-104410D01*
X69568Y-102544D01*
X70041Y-100665D01*
X70467Y-98775D01*
X70848Y-96875D01*
X71181Y-94967D01*
X71468Y-93050D01*
X71707Y-91128D01*
X71900Y-89200D01*
X-36250Y-45500D02*
X-71250Y-80500D01*
X-70000Y-98000D02*
X-19375Y-47375D01*
X71875Y-87375D02*
X-1250Y-160500D01*
X20625Y-156125D02*
X66875Y-109875D01*
X69375Y-71125D02*
X-16875Y-157375D01*
X-30000Y-151750D02*
X62500Y-59250D01*
X51875Y-51125D02*
X-41250Y-144250D01*
X-51250Y-135500D02*
X38750Y-45500D01*
X18750Y-46750D02*
X-59375Y-124875D01*
X-65625Y-112375D02*
X-6875Y-53625D01*
D13*
X-71275Y-79625D03*
D14*
X115500Y-1000D03*
X115500Y-201000D03*
D15*
X-112500Y-238000D03*
X-16000Y-267000D03*
D12*
X-74000Y-269500D02*
X-105500Y-238000D01*
X-112500Y-238000D01*
X-74000Y-269500D02*
X-45500Y-269500D01*
X-37000Y-261000D01*
X-22000Y-261000D01*
X-16000Y-267000D01*
X38450Y54250D02*
X38450Y54700D01*
X49500Y65750D01*
X93900Y81750D02*
X102000Y81750D01*
X109250Y74500D01*
X144600Y74500D01*
X150600Y80500D01*
X162500Y75000D02*
X162500Y69000D01*
X162500Y75000D02*
X157500Y80000D01*
X151100Y80000D01*
X150600Y80500D01*
X242100Y-11600D02*
X242100Y-25100D01*
X242100Y-11600D02*
X211250Y19250D01*
X211250Y38598D01*
X228350Y-96800D02*
X228350Y-139750D01*
X228350Y-96800D02*
X242100Y-83050D01*
X228350Y-139750D02*
X228350Y-149150D01*
X222500Y-155000D01*
X212500Y-155000D01*
X205750Y-161750D01*
X205750Y-184050D01*
X195850Y-193950D01*
X13000Y-317100D02*
X3350Y-317100D01*
X-122900Y-264600D02*
X-129600Y-264600D01*
X-122900Y-264600D02*
X-114500Y-273000D01*
X-98250Y-273000D01*
X-93750Y-277500D01*
X-93750Y-287500D01*
X-88750Y-292500D01*
X-83300Y-292500D01*
X-82900Y-292100D01*
X-129600Y-264600D02*
X-137900Y-264600D01*
X-145000Y-257500D01*
X-145000Y-243750D01*
X-158750Y-230000D01*
X-213750Y-168650D02*
X-213300Y-168200D01*
X-213300Y-167950D01*
X-235800Y-72950D02*
X-248750Y-60000D01*
X-248750Y-52750D01*
X-248300Y-52300D01*
X-235000Y-30000D02*
X-235000Y-5000D01*
X-235000Y-30000D02*
X-248750Y-43750D01*
X-248750Y-51850D01*
X-248300Y-52300D01*
X-216250Y25000D02*
X-212000Y25000D01*
X-188000Y49000D01*
X-122200Y82050D02*
X-110800Y82050D01*
X-13800Y33800D02*
X-13800Y33300D01*
X-13800Y33800D02*
X-27000Y47000D01*
X-47000Y47000D01*
X-55000Y55000D01*
X-55000Y67500D01*
X93400Y81250D02*
X93900Y81750D01*
X72000Y65750D02*
X49500Y65750D01*
X72000Y65750D02*
X88000Y81750D01*
X93900Y81750D01*
X240750Y-83050D02*
X242100Y-83050D01*
X240750Y-83050D02*
X240750Y-25100D01*
X242100Y-25100D01*
X195850Y-193950D02*
X195000Y-194800D01*
X195000Y-206250D01*
X190000Y-211250D01*
X176750Y-211250D01*
X157729Y-230271D01*
D15*
X-27000Y47000D03*
D12*
X-235800Y-72950D02*
X-235800Y-88800D01*
X-242500Y-95500D01*
X-242500Y-102300D01*
X-235800Y-109000D01*
X-220500Y-161000D02*
X-213300Y-168200D01*
X-220500Y-124300D02*
X-235800Y-109000D01*
X-220500Y-124300D02*
X-220500Y-161000D01*
X-82900Y-292100D02*
X-81750Y-293250D01*
X-55050Y-293250D01*
X-37450Y-310850D01*
X-4250Y-309500D02*
X3350Y-317100D01*
X-36100Y-309500D02*
X-37450Y-310850D01*
X-36100Y-309500D02*
X-4250Y-309500D01*
X54150Y-300850D02*
X59700Y-300850D01*
X54150Y-300850D02*
X51750Y-303250D01*
X26850Y-303250D01*
X13000Y-317100D01*
X97400Y-280850D02*
X105150Y-280850D01*
X61400Y-300850D02*
X59700Y-300850D01*
X93750Y-284500D02*
X97400Y-280850D01*
X93750Y-284500D02*
X77750Y-284500D01*
X61400Y-300850D01*
X116250Y-263250D02*
X122750Y-256750D01*
X116250Y-263250D02*
X116250Y-269750D01*
X105150Y-280850D01*
X122750Y-256750D02*
X142000Y-256750D01*
X-188000Y-209500D02*
X-188000Y-185750D01*
X-192500Y-181250D01*
X-206500Y-181250D01*
X-213300Y-174450D01*
X-213300Y-168200D01*
X-167775Y-230000D02*
X-158750Y-230000D01*
X-167775Y-230000D02*
X-175208Y-222566D01*
X-175208Y-222292D02*
X-188000Y-209500D01*
X-175208Y-222292D02*
X-175208Y-222566D01*
X-235000Y-5000D02*
X-227026Y2974D01*
X-227026Y14224D02*
X-216250Y25000D01*
X-227026Y14224D02*
X-227026Y13676D01*
X-227026Y2974D01*
X-181341Y60610D02*
X-168702Y73250D01*
X-141000Y73250D01*
X-188000Y53952D02*
X-188000Y49000D01*
X-188000Y53952D02*
X-181341Y60610D01*
X142000Y-256750D02*
X157729Y-241021D01*
X157729Y-240846D01*
X157729Y-230271D01*
X157729Y-240846D02*
X157729Y-240846D01*
X192470Y39030D02*
X162500Y69000D01*
X192470Y39030D02*
X210818Y39030D01*
X210818Y39030D01*
X211250Y38598D01*
X-132200Y82050D02*
X-141000Y73250D01*
X-132200Y82050D02*
X-122200Y82050D01*
X-102050Y73300D02*
X-68000Y73300D01*
X-102050Y73300D02*
X-110800Y82050D01*
X-68000Y73300D02*
X-60800Y73300D01*
X-55000Y67500D01*
X13850Y43850D02*
X13850Y33250D01*
X110500Y91250D02*
X119750Y82000D01*
X129500Y82000D01*
X227500Y36250D02*
X227500Y14598D01*
X227025Y14123D01*
X237500Y-152500D02*
X221750Y-168250D01*
X237500Y-152500D02*
X237500Y-110800D01*
X235750Y-109050D01*
X147500Y-263750D02*
X130348Y-263750D01*
X129813Y-264285D01*
X129813Y-271437D01*
X110000Y-291250D01*
X83650Y-291250D01*
X82900Y-292000D01*
X82900Y-297850D01*
X70750Y-310000D01*
X-5000Y-325000D02*
X-13050Y-316950D01*
X-59750Y-300700D02*
X-91800Y-300700D01*
X-105000Y-287500D01*
X-105000Y-280900D01*
X-105200Y-280700D01*
X-129300Y-280700D01*
X-157500Y-252500D01*
X-195000Y-215000D02*
X-195000Y-194600D01*
X-195700Y-193900D01*
X-243200Y-83000D02*
X-243200Y-74300D01*
X-242468Y-24534D02*
X-242500Y-24502D01*
X-175550Y80700D02*
X-175346Y80700D01*
X-150400Y80700D01*
X-94900Y80650D02*
X-94300Y81250D01*
X-143050Y80700D02*
X-150400Y80700D01*
X-143050Y80700D02*
X-133750Y90000D01*
X-104250Y90000D01*
X-94900Y80650D01*
X13850Y43850D02*
X43250Y73250D01*
X66800Y73250D01*
X77500Y91250D02*
X110500Y91250D01*
X77500Y91250D02*
X66250Y80000D01*
X66250Y73800D01*
X66800Y73250D01*
X213250Y-168250D02*
X213750Y-168250D01*
X213750Y-196250D01*
X213250Y-168250D02*
X221750Y-168250D01*
D15*
X-39500Y62750D03*
D12*
X-57400Y80650D02*
X-94900Y80650D01*
X-57400Y80650D02*
X-39500Y62750D01*
X-39500Y54450D01*
X-39450Y54400D01*
X-228200Y-139700D02*
X-228000Y-139900D01*
X-195000Y52633D02*
X-195000Y61000D01*
X-175346Y80654D01*
X-175346Y80700D01*
X-59750Y-300700D02*
X-59750Y-307750D01*
X-5000Y-325000D02*
X23000Y-325000D01*
X37300Y-310700D02*
X37400Y-310700D01*
X37300Y-310700D02*
X23000Y-325000D01*
X-49500Y-318000D02*
X-59750Y-307750D01*
X-14100Y-318000D02*
X-13050Y-316950D01*
X-14100Y-318000D02*
X-49500Y-318000D01*
X-228200Y-139700D02*
X-228200Y-129800D01*
X-247000Y-111000D01*
X-247000Y-93250D01*
X-243200Y-89450D02*
X-243200Y-83000D01*
X-243200Y-89450D02*
X-247000Y-93250D01*
X-201350Y-193900D02*
X-195700Y-193900D01*
X-201350Y-193900D02*
X-228250Y-167000D01*
X-228250Y-139750D01*
X-228200Y-139700D01*
X235750Y-109050D02*
X250250Y-94550D01*
X250250Y-54350D02*
X248250Y-52350D01*
X250250Y-54350D02*
X250250Y-94550D01*
X250250Y-9101D02*
X227025Y14123D01*
X250250Y-9101D02*
X250250Y-54350D01*
X227500Y36250D02*
X203425Y60325D01*
X181858Y60325D01*
X135500Y88000D02*
X129500Y82000D01*
X135500Y88000D02*
X162000Y88000D01*
X181858Y68142D02*
X181858Y60325D01*
X181858Y68142D02*
X162000Y88000D01*
X-195000Y52633D02*
X-208016Y39616D01*
X-242468Y9032D02*
X-242468Y-24468D01*
X-220500Y31000D02*
X-216500Y31000D01*
X-208016Y39484D01*
X-208016Y39616D01*
X-220500Y31000D02*
X-242468Y9032D01*
X-256250Y-61250D02*
X-243200Y-74300D01*
X-256250Y-61250D02*
X-256250Y-38250D01*
X-242468Y-24468D01*
X-242468Y-24534D01*
X-195000Y-215000D02*
X-168777Y-241223D01*
X-157500Y-241598D02*
X-157500Y-252500D01*
X-157500Y-241598D02*
X-157874Y-241223D01*
X-168777Y-241223D01*
X187952Y-222048D02*
X213750Y-196250D01*
X187952Y-222048D02*
X176386Y-222048D01*
X176386Y-234864D02*
X147500Y-263750D01*
X176386Y-234864D02*
X176386Y-222048D01*
X70750Y-310000D02*
X38100Y-310000D01*
X37400Y-310700D01*
D15*
X6500Y-267000D03*
D12*
X-6500Y-267000D01*
D15*
X-6500Y-267000D03*
X19500Y-267000D03*
D16*
X12500Y-274000D01*
X-23000Y-274000D01*
D15*
X-30500Y-267000D03*
D16*
X-30000Y-267000D02*
X-23000Y-274000D01*
D12*
X-30000Y-267000D02*
X-30500Y-267000D01*
X38750Y38950D02*
X38450Y39250D01*
D15*
X28000Y29000D03*
D12*
X38250Y39250D02*
X38450Y39250D01*
X38250Y39250D02*
X28000Y29000D01*
X22500Y18250D02*
X13850Y18250D01*
X22500Y18250D02*
X28000Y23750D01*
X28000Y29000D01*
X66800Y58250D02*
X85250Y58250D01*
X85400Y58250D01*
X93900Y66750D01*
D15*
X85250Y58250D03*
D12*
X119750Y67000D02*
X120000Y66750D01*
X121250Y65500D02*
X135000Y65500D01*
X150600Y65500D01*
X121250Y65500D02*
X119750Y67000D01*
D15*
X135000Y65500D03*
X170500Y-194500D03*
X-69500Y-275500D03*
D12*
X-57000Y-275500D01*
X-50500Y-282000D01*
X-29500Y-282000D01*
X-23500Y-288000D01*
X-2000Y-288000D01*
X6000Y-280000D01*
X25000Y-280000D01*
X35250Y-269750D01*
X88250Y-269750D01*
X116500Y-241500D01*
X125250Y-241500D01*
X170500Y-196250D02*
X170500Y-194500D01*
X170500Y-196250D02*
X125250Y-241500D01*
D15*
X183000Y38000D03*
D12*
X192576Y28424D02*
X200212Y28424D01*
X192576Y28424D02*
X183000Y38000D01*
X182970Y38000D02*
X171252Y49719D01*
X182970Y38000D02*
X183000Y38000D01*
X227100Y-7166D02*
X227100Y-25100D01*
X227000Y-25000D02*
X227000Y-7000D01*
X227000Y-25000D02*
X227100Y-25100D01*
D15*
X227000Y-7000D03*
D12*
X226935Y-7000D02*
X216419Y3517D01*
X226935Y-7000D02*
X227000Y-7000D01*
D15*
X227500Y-72500D03*
D12*
X227500Y-82650D01*
X227100Y-83050D01*
X233250Y-66750D02*
X233250Y-52350D01*
X233250Y-66750D02*
X227500Y-72500D01*
X213350Y-125400D02*
X213350Y-125900D01*
X213350Y-139750D01*
X219800Y-110000D02*
X220750Y-109050D01*
X220750Y-110000D01*
X220750Y-118000D02*
X213350Y-125400D01*
X220750Y-118000D02*
X220750Y-109050D01*
D15*
X213350Y-125900D03*
D12*
X197500Y-167500D02*
X198250Y-168250D01*
X197750Y-168750D01*
D15*
X198000Y-178750D03*
D12*
X198000Y-168500D02*
X198250Y-168250D01*
X198000Y-168500D02*
X198000Y-178750D01*
X180850Y-186650D02*
X180850Y-193950D01*
X188750Y-178750D02*
X198000Y-178750D01*
X188750Y-178750D02*
X180850Y-186650D01*
D15*
X156750Y-221250D03*
D12*
X156112Y-221250D02*
X147123Y-230240D01*
X156112Y-221250D02*
X156750Y-221250D01*
X156112Y-221109D02*
X165780Y-211442D01*
X156112Y-221109D02*
X156112Y-221250D01*
X130000Y-249098D02*
X129813Y-249285D01*
D15*
X140000Y-239500D03*
D12*
X121715Y-249285D02*
X105150Y-265850D01*
X121715Y-249285D02*
X129813Y-249285D01*
X130402Y-249098D02*
X140000Y-239500D01*
X130402Y-249098D02*
X130000Y-249098D01*
X64550Y-281000D02*
X59700Y-285850D01*
X64550Y-281000D02*
X72500Y-281000D01*
D15*
X72500Y-281000D03*
D12*
X76500Y-277000D02*
X82900Y-277000D01*
X76500Y-277000D02*
X72500Y-281000D01*
X19400Y-295700D02*
X13000Y-302100D01*
X19400Y-295700D02*
X37400Y-295700D01*
D15*
X49000Y-296500D03*
D12*
X48300Y-295700D02*
X37400Y-295700D01*
X48300Y-295700D02*
X49000Y-296500D01*
X-31350Y-301950D02*
X-37450Y-295850D01*
X-31350Y-301950D02*
X-13050Y-301950D01*
D15*
X47000Y-283500D03*
D12*
X35500Y-283500D01*
X29000Y-290000D01*
X10500Y-290000D01*
X-1450Y-301950D01*
X-13050Y-301950D01*
D15*
X42500Y-276500D03*
D12*
X35500Y-276500D01*
X27000Y-285000D01*
X8000Y-285000D01*
X0Y-293000D01*
X-25500Y-293000D01*
X-32000Y-286500D01*
X-58950Y-286500D01*
X-59750Y-285700D01*
X-74300Y-285700D02*
X-82900Y-277100D01*
X-74300Y-285700D02*
X-59750Y-285700D01*
X-104500Y-265000D02*
X-105200Y-265700D01*
X-104650Y-266250D01*
X-113500Y-265700D02*
X-129600Y-249600D01*
X-113500Y-265700D02*
X-105200Y-265700D01*
D15*
X-137500Y-241500D03*
D12*
X-129600Y-249400D02*
X-129600Y-249600D01*
X-129600Y-249400D02*
X-137500Y-241500D01*
D15*
X-170500Y-205000D03*
D12*
X-164602Y-210898D01*
X-164602Y-211960D01*
X-164602Y-213283D02*
X-147268Y-230617D01*
X-164602Y-213283D02*
X-164602Y-211960D01*
X-179600Y-195000D02*
X-180700Y-193900D01*
X-180000Y-193200D01*
D15*
X-180299Y-204000D03*
D12*
X-179600Y-203301D02*
X-179600Y-195000D01*
X-179600Y-203301D02*
X-180299Y-204000D01*
X-180700Y-193900D02*
X-180700Y-185800D01*
X-198300Y-168200D01*
X-213200Y-139700D02*
X-213200Y-116600D01*
X-220800Y-109000D01*
X-213200Y-139700D02*
X-212950Y-139950D01*
D15*
X-213500Y-156500D03*
D12*
X-213200Y-156200D02*
X-213200Y-139700D01*
X-213200Y-156200D02*
X-213500Y-156500D01*
X-228200Y-83000D02*
X-227700Y-82500D01*
X-227700Y-57900D01*
X-233300Y-52300D01*
D15*
X-235500Y-98500D03*
D12*
X-228000Y-83200D02*
X-228200Y-83000D01*
X-228200Y-91200D01*
X-235500Y-98500D01*
D15*
X-227500Y-8000D03*
D12*
X-216430Y3070D02*
X-216420Y3070D01*
X-216430Y3070D02*
X-227500Y-8000D01*
X-227500Y-24502D02*
X-227468Y-24534D01*
X-227500Y-24502D02*
X-227500Y-8000D01*
D15*
X-211162Y15258D03*
D12*
X-197410Y29010D01*
X-176416Y50004D02*
X-170735Y50004D01*
X-176416Y50004D02*
X-197410Y29010D01*
X-150400Y65700D02*
X-149100Y67000D01*
X-122250Y67000D02*
X-122200Y67050D01*
X-122250Y67000D02*
X-130981Y67000D01*
X-149100Y67000D01*
D15*
X-130981Y67000D03*
D12*
X-78300Y58300D02*
X-68000Y58300D01*
X-94900Y65650D02*
X-105650Y65650D01*
X-112500Y72500D01*
D15*
X-112500Y72500D03*
D12*
X-94900Y65650D02*
X-85650Y65650D01*
X-78300Y58300D01*
X-39450Y39400D02*
X-18350Y18300D01*
X-13800Y18300D01*
D15*
X-61500Y48000D03*
D12*
X-52900Y39400D02*
X-39450Y39400D01*
X-52900Y39400D02*
X-61500Y48000D01*
D15*
X-38500Y21000D03*
D12*
X-151500Y58000D02*
X-170000Y39500D01*
X-205500Y10000D02*
X-205500Y3000D01*
X-220000Y-11500D01*
X-220000Y-82500D01*
X-194500Y-108000D02*
X-194500Y-145500D01*
X-163500Y-176500D01*
X-163500Y-189000D01*
X-120500Y-232000D01*
X-119000Y-232000D01*
D15*
X-119000Y-232000D03*
D12*
X-194500Y-108000D02*
X-220000Y-82500D01*
X-151500Y58000D02*
X-86500Y58000D01*
X-72500Y50000D02*
X-56500Y34000D01*
X-48500Y34000D01*
X-176000Y39500D02*
X-205500Y10000D01*
X-176000Y39500D02*
X-170000Y39500D01*
X-86500Y58000D02*
X-78500Y50000D01*
X-72500Y50000D01*
X-48500Y34000D02*
X-38500Y24000D01*
X-38500Y21000D01*
D15*
X-205000Y-107500D03*
X-103000Y-251000D03*
D12*
X-199000Y-113500D02*
X-205000Y-107500D01*
X-199000Y-113500D02*
X-199000Y-147500D01*
X-168000Y-178500D02*
X-168000Y-191000D01*
X-168000Y-178500D02*
X-199000Y-147500D01*
X-168000Y-191000D02*
X-108000Y-251000D01*
X-103000Y-251000D01*
D15*
X-205000Y-117000D03*
D12*
X-172500Y-180500D02*
X-172500Y-192250D01*
X-172500Y-180500D02*
X-203500Y-149500D01*
X-203500Y-118500D02*
X-205000Y-117000D01*
X-203500Y-118500D02*
X-203500Y-149500D01*
D15*
X-96000Y-258500D03*
D12*
X-106250Y-258500D01*
X-172500Y-192250D01*
D15*
X-71275Y-79625D03*
X-197500Y-96000D03*
D17*
X3000Y-334000D02*
X25500Y-331500D01*
X45000Y-328000D01*
X68500Y-321500D01*
X99000Y-310000D01*
X122000Y-298500D01*
X141500Y-286000D01*
X164000Y-269500D01*
X190000Y-245000D01*
X194374Y-239740D01*
X206500Y-225500D01*
X219500Y-207500D01*
X230500Y-189000D01*
X241000Y-168000D01*
X252500Y-138000D01*
X261000Y-104500D01*
X265000Y-78500D01*
X267500Y-59500D01*
X267500Y-46000D01*
X266000Y-32000D01*
X264000Y-20500D01*
X259500Y-4000D01*
X252000Y15000D01*
X241500Y34000D01*
X230500Y48000D01*
X216500Y63000D01*
X204500Y73000D01*
X186500Y84500D01*
X166500Y93500D01*
X151000Y98500D01*
X131000Y102500D01*
X110500Y103500D01*
X89000Y102000D01*
X71500Y98500D01*
X51500Y91500D01*
X38000Y85500D01*
X22500Y75500D01*
X8000Y64000D01*
X0Y57000D01*
X3000Y-334000D02*
X-3000Y-334000D01*
X-25500Y-331500D01*
X-45000Y-328000D01*
X-68500Y-321500D01*
X-99000Y-310000D01*
X-122000Y-298500D01*
X-141500Y-286000D01*
X-164000Y-269500D01*
X-190000Y-245000D01*
X-206500Y-225500D01*
X-219500Y-207500D01*
X-230500Y-189000D01*
X-241000Y-168000D01*
X-252500Y-138000D01*
X-261000Y-104500D01*
X-265000Y-78500D01*
X-267250Y-59500D01*
X-267500Y-46000D01*
X-266000Y-32000D01*
X-264000Y-20500D01*
X-259500Y-4000D01*
X-252000Y15000D01*
X-241500Y34000D01*
X-230500Y48000D01*
X-223405Y55602D01*
X-216500Y63000D01*
X-204500Y73000D01*
X-186500Y84500D01*
X-166500Y93500D01*
X-151000Y98500D01*
X-131000Y102500D01*
X-110500Y103500D01*
X-89000Y102000D01*
X-71500Y98500D01*
X-51500Y91500D01*
X-38000Y85500D01*
X-22500Y75500D01*
X-8000Y64000D01*
X0Y57000D01*
D15*
X183850Y-229496D03*
D17*
X194374Y-239740D01*
D16*
X-197500Y-96000D02*
X-199500Y-96000D01*
X-215000Y-80500D01*
X-215000Y-13000D01*
X-201000Y1000D01*
X-201000Y8000D01*
D15*
X-193000Y13000D03*
D16*
X-196000Y13000D02*
X-201000Y8000D01*
X-196000Y13000D02*
X-193000Y13000D01*
D15*
X-216000Y48500D03*
D17*
X-223405Y55602D01*
M02*
