G04 EAGLE Gerber RS-274X export*
G75*
%MOMM*%
%FSLAX34Y34*%
%LPD*%
%AMOC8*
5,1,8,0,0,1.08239X$1,22.5*%
G01*
%ADD10R,0.400000X1.500000*%
%ADD11R,1.600000X0.300000*%
%ADD12R,0.300000X1.600000*%
%ADD13R,0.500000X2.500000*%
%ADD14R,2.000000X2.500000*%
%ADD15R,0.800000X1.500000*%
%ADD16R,1.500000X0.800000*%
%ADD17R,2.032000X2.540000*%
%ADD18C,2.000000*%
%ADD19R,0.500000X1.200000*%
%ADD20R,1.200000X0.500000*%
%ADD21C,0.200000*%
%ADD22C,0.704800*%


D10*
X-161750Y-157350D03*
X-155250Y-157350D03*
X-148750Y-157350D03*
X-142250Y-157350D03*
X-135750Y-157350D03*
X-129250Y-157350D03*
X-122750Y-157350D03*
X-116250Y-157350D03*
X-109750Y-157350D03*
X-103250Y-157350D03*
X-96750Y-157350D03*
X-90250Y-157350D03*
X-83750Y-157350D03*
X-77250Y-157350D03*
X-77250Y-229850D03*
X-83750Y-229850D03*
X-90250Y-229850D03*
X-96750Y-229850D03*
X-103250Y-229850D03*
X-109750Y-229850D03*
X-116250Y-229850D03*
X-122750Y-229850D03*
X-129250Y-229850D03*
X-135750Y-229850D03*
X-142250Y-229850D03*
X-148750Y-229850D03*
X-155250Y-229850D03*
X-161750Y-229850D03*
D11*
X-124800Y-90700D03*
X-124800Y-85700D03*
X-124800Y-80700D03*
X-124800Y-75700D03*
X-124800Y-70700D03*
X-124800Y-65700D03*
X-124800Y-60700D03*
X-124800Y-55700D03*
X-124800Y-50700D03*
X-124800Y-45700D03*
X-124800Y-40700D03*
X-124800Y-35700D03*
X-124800Y-30700D03*
X-124800Y-25700D03*
X-124800Y-20700D03*
X-124800Y-15700D03*
D12*
X-106300Y2800D03*
X-101300Y2800D03*
X-96300Y2800D03*
X-91300Y2800D03*
X-86300Y2800D03*
X-81300Y2800D03*
X-76300Y2800D03*
X-71300Y2800D03*
X-66300Y2800D03*
X-61300Y2800D03*
X-56300Y2800D03*
X-51300Y2800D03*
X-46300Y2800D03*
X-41300Y2800D03*
X-36300Y2800D03*
X-31300Y2800D03*
D11*
X-12800Y-15700D03*
X-12800Y-20700D03*
X-12800Y-25700D03*
X-12800Y-30700D03*
X-12800Y-35700D03*
X-12800Y-40700D03*
X-12800Y-45700D03*
X-12800Y-50700D03*
X-12800Y-55700D03*
X-12800Y-60700D03*
X-12800Y-65700D03*
X-12800Y-70700D03*
X-12800Y-75700D03*
X-12800Y-80700D03*
X-12800Y-85700D03*
X-12800Y-90700D03*
D12*
X-31300Y-109200D03*
X-36300Y-109200D03*
X-41300Y-109200D03*
X-46300Y-109200D03*
X-51300Y-109200D03*
X-56300Y-109200D03*
X-61300Y-109200D03*
X-66300Y-109200D03*
X-71300Y-109200D03*
X-76300Y-109200D03*
X-81300Y-109200D03*
X-86300Y-109200D03*
X-91300Y-109200D03*
X-96300Y-109200D03*
X-101300Y-109200D03*
X-106300Y-109200D03*
D13*
X0Y-237350D03*
X8000Y-237350D03*
X-16000Y-237350D03*
X-8000Y-237350D03*
D14*
X-45000Y-292350D03*
X45000Y-292350D03*
X-45000Y-237350D03*
X45000Y-237350D03*
D13*
X16000Y-237350D03*
D15*
X-189650Y-188350D03*
X-206650Y-188350D03*
X-108400Y-260800D03*
X-91400Y-260800D03*
D16*
X-142000Y-112500D03*
X-142000Y-129500D03*
D17*
X-182650Y-1140D03*
X-182650Y-123060D03*
D15*
X-236000Y-115000D03*
X-219000Y-115000D03*
X-236000Y-10000D03*
X-219000Y-10000D03*
D16*
X-152900Y28750D03*
X-152900Y11750D03*
D18*
X115000Y0D03*
X115000Y-200000D03*
D16*
X-43750Y68500D03*
X-43750Y51500D03*
X-72500Y22750D03*
X-72500Y39750D03*
D19*
X-137700Y45300D03*
X-129700Y45300D03*
X-121700Y45300D03*
X-113700Y45300D03*
X-105700Y45300D03*
X-97700Y45300D03*
D20*
X-96700Y56300D03*
D19*
X-97700Y67300D03*
X-105700Y67300D03*
X-113700Y67300D03*
X-121700Y67300D03*
X-129700Y67300D03*
X-137700Y67300D03*
D20*
X-138700Y56300D03*
D15*
X-175250Y56250D03*
X-192250Y56250D03*
D21*
X-137500Y-140000D02*
X-142250Y-144750D01*
X-142250Y-157350D01*
D22*
X-175000Y-171250D03*
X-132500Y-140000D03*
D21*
X-137500Y-140000D01*
X-90250Y-212250D02*
X-90250Y-229850D01*
X-90250Y-212250D02*
X-98750Y-203750D01*
X-188750Y-189250D02*
X-189650Y-188350D01*
X-175000Y-188350D02*
X-175000Y-171250D01*
X-175000Y-188350D02*
X-189650Y-188350D01*
X-159600Y-203750D02*
X-98750Y-203750D01*
X-159600Y-203750D02*
X-175000Y-188350D01*
X-101250Y-121250D02*
X-101250Y-109250D01*
X-101300Y-109200D01*
X-96750Y-229850D02*
X-96750Y-245750D01*
X-91250Y-251250D01*
X-91250Y-260650D01*
X-91400Y-260800D01*
X-78300Y-260800D01*
X-66250Y-248750D01*
X-66250Y-222500D01*
X-57500Y-213750D01*
X-22500Y-213750D01*
X-116250Y-210000D02*
X-142250Y-210000D01*
X-142250Y-229850D01*
X-116250Y-229850D02*
X-116250Y-210000D01*
X-148750Y-210000D02*
X-148750Y-229850D01*
X-148750Y-210000D02*
X-142250Y-210000D01*
X-129700Y28750D02*
X-121700Y28750D01*
X-105700Y28750D01*
X-157500Y-137500D02*
X-177500Y-157500D01*
X-225200Y-157500D02*
X-225200Y-179800D01*
X-225200Y-157500D02*
X-177500Y-157500D01*
X-206650Y-188350D02*
X-206650Y-200850D01*
X-197500Y-210000D01*
X-148750Y-210000D01*
X-216650Y-188350D02*
X-225200Y-179800D01*
X-216650Y-188350D02*
X-206650Y-188350D01*
X-101300Y-109200D02*
X-101300Y-95000D01*
X-96300Y-95000D01*
X-96300Y-109200D01*
X-22500Y-213750D02*
X-16000Y-220250D01*
X-16000Y-237350D01*
X-129700Y28750D02*
X-152900Y28750D01*
X-108750Y-121250D02*
X-101250Y-121250D01*
X-122750Y-121250D02*
X-122750Y-157350D01*
D22*
X-105700Y28750D03*
D21*
X-108750Y-121250D02*
X-122750Y-121250D01*
X-236000Y-115000D02*
X-236000Y-10000D01*
X-236000Y-146700D02*
X-225200Y-157500D01*
X-236000Y-146700D02*
X-236000Y-115000D01*
X-236000Y-10000D02*
X-236000Y7750D01*
X-121700Y67300D02*
X-121700Y80250D01*
X-113700Y80250D02*
X-113700Y67300D01*
X-113700Y80250D02*
X-121700Y80250D01*
X-121700Y67300D02*
X-121700Y45300D01*
X-121700Y28750D01*
X-129700Y28750D02*
X-129700Y45300D01*
X-105700Y45300D02*
X-105700Y28750D01*
X-215000Y28750D02*
X-236000Y7750D01*
X-215000Y28750D02*
X-192500Y28750D01*
X-152900Y28750D01*
X-192250Y56250D02*
X-192500Y56250D01*
X-192500Y28750D01*
X-153750Y-121250D02*
X-122750Y-121250D01*
X-153750Y-121250D02*
X-157500Y-125000D01*
X-157500Y-137500D01*
X-116250Y-210000D02*
X-101250Y-210000D01*
X-96750Y-214500D01*
X-96750Y-229850D01*
X-77250Y-229850D02*
X-77250Y-217250D01*
X-67500Y-207500D01*
X-12500Y-207500D01*
X0Y-220000D01*
X0Y-237350D01*
X-83750Y-229850D02*
X-83750Y-216250D01*
X-68750Y-201250D01*
X-7500Y-201250D01*
X8000Y-216750D01*
X8000Y-237350D01*
X-109750Y-229850D02*
X-109750Y-259450D01*
X-108400Y-260800D01*
X16000Y-253250D02*
X16000Y-237350D01*
X16000Y-253250D02*
X-4500Y-273750D01*
X-28750Y-273750D01*
X-38750Y-263750D01*
X-63750Y-263750D01*
X-80000Y-280000D01*
X-102500Y-280000D01*
X-108750Y-273750D01*
X-108750Y-261150D01*
X-108400Y-260800D01*
X-12800Y-30700D02*
X-700Y-30700D01*
X22500Y-7500D01*
X22500Y5000D01*
D22*
X22500Y5000D03*
D21*
X4300Y-35700D02*
X-12800Y-35700D01*
X4300Y-35700D02*
X81250Y41250D01*
D22*
X81250Y41250D03*
D21*
X28050Y-40700D02*
X-12800Y-40700D01*
X28050Y-40700D02*
X123750Y55000D01*
X135000Y55000D01*
D22*
X135000Y55000D03*
D21*
X114300Y-45700D02*
X-12800Y-45700D01*
X114300Y-45700D02*
X175000Y15000D01*
X175000Y30000D01*
D22*
X175000Y30000D03*
D21*
X135550Y-50700D02*
X-12800Y-50700D01*
X135550Y-50700D02*
X161250Y-25000D01*
X210000Y-25000D01*
D22*
X210000Y-25000D03*
D21*
X196950Y-55700D02*
X-12800Y-55700D01*
X196950Y-55700D02*
X209450Y-68200D01*
D22*
X209450Y-68200D03*
D21*
X150700Y-60700D02*
X-12800Y-60700D01*
X150700Y-60700D02*
X200000Y-110000D01*
D22*
X200000Y-110000D03*
D21*
X129450Y-65700D02*
X-12800Y-65700D01*
X129450Y-65700D02*
X192500Y-128750D01*
D22*
X192500Y-128750D03*
D21*
X85700Y-70700D02*
X-12800Y-70700D01*
X85700Y-70700D02*
X168750Y-153750D01*
D22*
X168750Y-153750D03*
D21*
X64450Y-75700D02*
X-12800Y-75700D01*
X64450Y-75700D02*
X150000Y-161250D01*
X150000Y-211250D01*
X130000Y-231250D01*
D22*
X130000Y-231250D03*
D21*
X30700Y-80700D02*
X-12800Y-80700D01*
X30700Y-80700D02*
X75000Y-125000D01*
X75000Y-170000D01*
D22*
X75000Y-170000D03*
D21*
X15700Y-85700D02*
X-12800Y-85700D01*
X15700Y-85700D02*
X56250Y-126250D01*
X56250Y-186250D01*
D22*
X56250Y-186250D03*
D21*
X700Y-90700D02*
X-12800Y-90700D01*
X700Y-90700D02*
X36250Y-126250D01*
X36250Y-163750D01*
D22*
X36250Y-163750D03*
D21*
X-25000Y-110000D02*
X-30500Y-110000D01*
X-31300Y-109200D01*
X-25000Y-110000D02*
X5000Y-140000D01*
X5000Y-185000D01*
D22*
X5000Y-185000D03*
D21*
X-36300Y-137450D02*
X-36300Y-109200D01*
X-36300Y-137450D02*
X-20000Y-153750D01*
X-20000Y-175000D01*
D22*
X-20000Y-175000D03*
D21*
X-41300Y-139950D02*
X-41300Y-109200D01*
X-41300Y-139950D02*
X-35000Y-146250D01*
X-35000Y-185000D01*
D22*
X-35000Y-185000D03*
D21*
X-81300Y-126200D02*
X-81300Y-109200D01*
X-65000Y-142500D02*
X-65000Y-175000D01*
X-65000Y-142500D02*
X-81300Y-126200D01*
D22*
X-65000Y-175000D03*
D21*
X-86300Y-137450D02*
X-86300Y-109200D01*
D22*
X-86300Y-137450D03*
D21*
X-91300Y-122550D02*
X-91300Y-109200D01*
X-91300Y-122550D02*
X-97500Y-128750D01*
D22*
X-97500Y-128750D03*
D21*
X-124800Y-85700D02*
X-144300Y-85700D01*
X-150000Y-80000D01*
D22*
X-150000Y-80000D03*
D21*
X-134300Y-80700D02*
X-124800Y-80700D01*
X-134300Y-80700D02*
X-150000Y-65000D01*
D22*
X-150000Y-65000D03*
D21*
X-124800Y-75700D02*
X-74450Y-75700D01*
X-70000Y-71250D01*
D22*
X-70000Y-71250D03*
D21*
X-124250Y-71250D02*
X-124800Y-70700D01*
X-124250Y-71250D02*
X-88750Y-71250D01*
X-81250Y-63750D01*
D22*
X-81250Y-63750D03*
D21*
X-124250Y-66250D02*
X-124800Y-65700D01*
X-124250Y-66250D02*
X-106250Y-66250D01*
X-93750Y-53750D01*
D22*
X-93750Y-53750D03*
D21*
X-80000Y-28750D02*
X-83050Y-25700D01*
X-124800Y-25700D01*
D22*
X-80000Y-28750D03*
D21*
X-97500Y-15000D02*
X-103750Y-21250D01*
X-124250Y-21250D01*
X-124800Y-20700D01*
D22*
X-97500Y-15000D03*
D21*
X-57500Y-38750D02*
X-57500Y-52500D01*
X-57500Y-38750D02*
X-81250Y-15000D01*
X-81250Y2750D01*
X-81300Y2800D01*
X-161750Y-157350D02*
X-161750Y-185000D01*
D22*
X-57500Y-52500D03*
X-161750Y-185000D03*
D21*
X-135750Y-171750D02*
X-135750Y-157350D01*
X-135750Y-171750D02*
X-131250Y-176250D01*
X-125000Y-176250D01*
X-124800Y-30700D02*
X-98050Y-30700D01*
X-78750Y-50000D01*
X-71250Y-50000D01*
D22*
X-71250Y-50000D03*
X-125000Y-176250D03*
D21*
X-76300Y-123700D02*
X-76300Y-109200D01*
X-76300Y-123700D02*
X-56250Y-143750D01*
X-56250Y-181250D01*
X-65000Y-190000D01*
X-131250Y-190000D01*
X-148750Y-172500D01*
X-148750Y-157350D01*
X-148750Y-142500D01*
X-142000Y-135750D01*
X-142000Y-129500D01*
X-71300Y-121200D02*
X-71300Y-109200D01*
X-71300Y-121200D02*
X-51250Y-141250D01*
X-51250Y-183750D01*
X-62500Y-195000D01*
X-133750Y-195000D01*
X-155000Y-173750D01*
X-155000Y-157600D01*
X-155250Y-157350D01*
X-36300Y2800D02*
X-36300Y19950D01*
X-56100Y39750D01*
X-72500Y39750D01*
X-72500Y50000D02*
X-78800Y56300D01*
X-72500Y50000D02*
X-72500Y39750D01*
X-78800Y56300D02*
X-96700Y56300D01*
X-30000Y-15000D02*
X-21250Y-6250D01*
X-21250Y17500D01*
X-43750Y40000D01*
X-43750Y51250D01*
X-43750Y51500D01*
X-43750Y51250D02*
X-61250Y51250D01*
X-77300Y67300D01*
X-97700Y67300D01*
X-41250Y-15000D02*
X-30000Y-15000D01*
X-46300Y-9950D02*
X-46300Y2800D01*
X-46300Y-9950D02*
X-41250Y-15000D01*
X-157500Y46250D02*
X-157500Y56250D01*
X-157500Y56300D01*
X-165000Y-135000D02*
X-178750Y-148750D01*
X-124800Y-90700D02*
X-106300Y-90700D01*
X-106300Y-109200D01*
X-106300Y-90700D02*
X-31800Y-90700D01*
X45000Y-200000D02*
X115000Y-200000D01*
X45000Y-200000D02*
X15000Y-170000D01*
X15000Y-137500D01*
X-31800Y-90700D01*
X-105700Y86250D02*
X-142500Y86250D01*
X-157500Y71250D01*
X-157500Y56300D01*
X-212500Y20000D02*
X-227500Y5000D01*
X-212500Y20000D02*
X-175000Y20000D01*
X-136950Y-90700D02*
X-124800Y-90700D01*
X-97700Y20000D02*
X-175000Y20000D01*
D22*
X-175000Y20000D03*
X-157500Y46250D03*
D21*
X-178750Y-148750D02*
X-220000Y-148750D01*
X-227500Y-141250D01*
X-227500Y5000D01*
X-45000Y68500D02*
X-43750Y68500D01*
X-82500Y86250D02*
X-105700Y86250D01*
X-64750Y68500D02*
X-45000Y68500D01*
X-64750Y68500D02*
X-82500Y86250D01*
X-90000Y20000D02*
X-97700Y20000D01*
X-90000Y20000D02*
X-87250Y22750D01*
X-72500Y22750D01*
X-138700Y56250D02*
X-138700Y56300D01*
X-138700Y56250D02*
X-157500Y56250D01*
X-157500Y46250D02*
X-137700Y46250D01*
X-137700Y45300D01*
X-105700Y67300D02*
X-105700Y86250D01*
X-97700Y45300D02*
X-97700Y20000D01*
X-113700Y45300D02*
X-113700Y52300D01*
X-105700Y60300D02*
X-105700Y67300D01*
X-105700Y60300D02*
X-113700Y52300D01*
X-157500Y56250D02*
X-175250Y56250D01*
X-165000Y-121250D02*
X-165000Y-135000D01*
X-165000Y-121250D02*
X-156250Y-112500D01*
X-142500Y-112500D01*
X-142000Y-112500D01*
X-142500Y-96250D02*
X-136950Y-90700D01*
X-142500Y-96250D02*
X-142500Y-112500D01*
X-159450Y-55700D02*
X-124800Y-55700D01*
X-182650Y-78900D02*
X-182650Y-115000D01*
X-182650Y-123060D01*
X-182650Y-78900D02*
X-159450Y-55700D01*
X-182650Y-115000D02*
X-219000Y-115000D01*
X-159300Y-50700D02*
X-124800Y-50700D01*
X-182650Y-27350D02*
X-182650Y-10000D01*
X-182650Y-1140D01*
X-182650Y-27350D02*
X-159300Y-50700D01*
X-182650Y-10000D02*
X-219000Y-10000D01*
X-135550Y-35700D02*
X-124800Y-35700D01*
X-135550Y-35700D02*
X-152900Y-18350D01*
X-152900Y11750D01*
X-124800Y-35700D02*
X-105550Y-35700D01*
X-100000Y-41250D01*
D22*
X-100000Y-41250D03*
M02*
