M48
;GenerationSoftware,Autodesk,EAGLE,9.1.3*%
;CreationDate,2018-09-20T01:58:47Z*%
FMAT,2
ICI,OFF
METRIC,TZ,000.000
T4C0.305
T3C1.000
T2C2.000
%
G90
M71
T2
X0Y0
T3
X11550Y-20100
X11550Y-100
T4
X-17050Y-20500
X-13750Y-24150
X-18030Y-20400
X-21350Y-15650
X-23550Y-9850
X-22750Y-800
X-21116Y1526
X-13098Y6700
X-11250Y7250
X-6150Y4800
X-3850Y2100
X-11900Y-23200
X-20500Y-10750
X-10300Y-25100
X-20500Y-11700
X-9600Y-25850
X-7127Y-7962
X-19750Y-9600
X18385Y-22950
X-19300Y1300
X-21600Y4850
X-6950Y-27550
X-1600Y-26700
X-2700Y4700
X-3950Y6275
X650Y-26700
X-650Y-26700
X1950Y-26700
X-3050Y-26700
X2800Y2900
X8525Y5825
X13500Y6550
X17050Y-19450
X-11250Y-23800
X18300Y3800
X22700Y-700
X22750Y-7250
X21335Y-12590
X19800Y-17875
X15675Y-22125
X14000Y-23950
X7250Y-28100
X4900Y-29650
X4700Y-28350
X4250Y-27650
M30