M48
;GenerationSoftware,Autodesk,EAGLE,9.1.3*%
;CreationDate,2018-09-01T14:55:19Z*%
FMAT,2
ICI,OFF
METRIC,TZ,000.000
T5C0.400
T4C0.900
T3C1.000
T2C2.000
%
G90
M71
T2
X0Y0
T3
X11500Y-20000
X11500Y0
T4
X-2200Y-26235
X2200Y-26235
T5
X-9750Y-12875
X-8630Y-13745
X-15000Y-8000
X-15000Y-6500
X-7000Y-7125
X-8125Y-6375
X-9375Y-5375
X-8000Y-2875
X-9750Y-1500
X-5750Y-5250
X-16175Y-18500
X-7125Y-5000
X-12500Y-17625
X-17500Y2000
X-15750Y4625
X-10000Y-4125
X19250Y-12875
X-13250Y-14000
X-10570Y2875
X2250Y500
X8125Y4125
X13500Y5500
X17500Y3000
X21000Y-2500
X20945Y-6820
X20000Y-11000
X-17500Y-17125
X16875Y-15375
X13000Y-23125
X7500Y-17000
X5625Y-18625
X3625Y-16375
X500Y-18500
X-2000Y-17500
X-3500Y-18500
X-6500Y-17500
M30