G04 EAGLE Gerber RS-274X export*
G75*
%MOMM*%
%FSLAX34Y34*%
%LPD*%
%AMOC8*
5,1,8,0,0,1.08239X$1,22.5*%
G01*
%ADD10C,0.254000*%


D10*
X-270000Y-85000D02*
X-269998Y-85014D01*
X-265996Y-109895D01*
X-259841Y-134333D01*
X-251579Y-158141D01*
X-241273Y-181139D01*
X-229002Y-203151D01*
X-214860Y-224010D01*
X-198953Y-243556D01*
X-181403Y-261643D01*
X-162344Y-278130D01*
X-141920Y-292894D01*
X-120287Y-305821D01*
X-97610Y-316814D01*
X-74061Y-325789D01*
X-49819Y-332677D01*
X-25069Y-337426D01*
X0Y-340000D01*
X14Y-339999D01*
X25083Y-337424D01*
X49832Y-332674D01*
X74074Y-325785D01*
X97622Y-316809D01*
X120299Y-305815D01*
X141931Y-292886D01*
X162354Y-278122D01*
X181413Y-261633D01*
X198962Y-243546D01*
X214868Y-223999D01*
X229009Y-203139D01*
X241279Y-181127D01*
X251584Y-158129D01*
X259845Y-134320D01*
X265999Y-109882D01*
X270000Y-85000D01*
X270003Y-84986D01*
X272225Y-71036D01*
X273224Y-56945D01*
X272990Y-42821D01*
X271526Y-28771D01*
X268843Y-14901D01*
X264962Y-1319D01*
X259911Y11874D01*
X253730Y24576D01*
X246466Y36691D01*
X238173Y48127D01*
X228915Y58797D01*
X218762Y68619D01*
X207792Y77519D01*
X196088Y85429D01*
X183739Y92289D01*
X170840Y98046D01*
X157487Y102658D01*
X143784Y106088D01*
X129833Y108310D01*
X115742Y109308D01*
X101618Y109075D01*
X87568Y107611D01*
X73698Y104928D01*
X60116Y101047D01*
X46923Y95996D01*
X34221Y89815D01*
X22106Y82551D01*
X10670Y74258D01*
X0Y65000D01*
X-10Y65010D01*
X-10680Y74267D01*
X-22117Y82558D01*
X-34233Y89822D01*
X-46936Y96002D01*
X-60129Y101051D01*
X-73712Y104931D01*
X-87581Y107613D01*
X-101632Y109076D01*
X-115756Y109308D01*
X-129847Y108309D01*
X-143797Y106085D01*
X-157500Y102654D01*
X-170852Y98041D01*
X-183752Y92283D01*
X-196100Y85422D01*
X-207803Y77511D01*
X-218773Y68610D01*
X-228925Y58787D01*
X-238182Y48117D01*
X-246474Y36680D01*
X-253737Y24564D01*
X-259917Y11861D01*
X-264966Y-1332D01*
X-268846Y-14915D01*
X-271528Y-28784D01*
X-272991Y-42835D01*
X-273223Y-56959D01*
X-272224Y-71050D01*
X-270000Y-85000D01*
X10000Y-437D02*
X9924Y-1307D01*
X9772Y-2166D01*
X9546Y-3010D01*
X9248Y-3830D01*
X8879Y-4622D01*
X8442Y-5378D01*
X7941Y-6093D01*
X7380Y-6762D01*
X6762Y-7380D01*
X6093Y-7941D01*
X5378Y-8442D01*
X4622Y-8879D01*
X3830Y-9248D01*
X3010Y-9546D01*
X2166Y-9772D01*
X1307Y-9924D01*
X437Y-10000D01*
X-437Y-10000D01*
X-1307Y-9924D01*
X-2166Y-9772D01*
X-3010Y-9546D01*
X-3830Y-9248D01*
X-4622Y-8879D01*
X-5378Y-8442D01*
X-6093Y-7941D01*
X-6762Y-7380D01*
X-7380Y-6762D01*
X-7941Y-6093D01*
X-8442Y-5378D01*
X-8879Y-4622D01*
X-9248Y-3830D01*
X-9546Y-3010D01*
X-9772Y-2166D01*
X-9924Y-1307D01*
X-10000Y-437D01*
X-10000Y437D01*
X-9924Y1307D01*
X-9772Y2166D01*
X-9546Y3010D01*
X-9248Y3830D01*
X-8879Y4622D01*
X-8442Y5378D01*
X-7941Y6093D01*
X-7380Y6762D01*
X-6762Y7380D01*
X-6093Y7941D01*
X-5378Y8442D01*
X-4622Y8879D01*
X-3830Y9248D01*
X-3010Y9546D01*
X-2166Y9772D01*
X-1307Y9924D01*
X-437Y10000D01*
X437Y10000D01*
X1307Y9924D01*
X2166Y9772D01*
X3010Y9546D01*
X3830Y9248D01*
X4622Y8879D01*
X5378Y8442D01*
X6093Y7941D01*
X6762Y7380D01*
X7380Y6762D01*
X7941Y6093D01*
X8442Y5378D01*
X8879Y4622D01*
X9248Y3830D01*
X9546Y3010D01*
X9772Y2166D01*
X9924Y1307D01*
X10000Y437D01*
X10000Y-437D01*
M02*
