G04 EAGLE Gerber RS-274X export*
G75*
%MOMM*%
%FSLAX34Y34*%
%LPD*%
%AMOC8*
5,1,8,0,0,1.08239X$1,22.5*%
G01*
%ADD10C,0.254000*%


D10*
X-270000Y-85000D02*
X-265998Y-109882D01*
X-259843Y-134321D01*
X-251581Y-158130D01*
X-241276Y-181129D01*
X-229005Y-203142D01*
X-214863Y-224001D01*
X-198956Y-243549D01*
X-181406Y-261636D01*
X-162347Y-278125D01*
X-141923Y-292889D01*
X-120290Y-305818D01*
X-97612Y-316811D01*
X-74062Y-325787D01*
X-49820Y-332676D01*
X-25070Y-337425D01*
X0Y-340000D01*
X25070Y-337425D01*
X49820Y-332676D01*
X74062Y-325787D01*
X97612Y-316811D01*
X120290Y-305818D01*
X141923Y-292889D01*
X162347Y-278125D01*
X181406Y-261636D01*
X198956Y-243549D01*
X214863Y-224001D01*
X229005Y-203142D01*
X241276Y-181129D01*
X251581Y-158130D01*
X259843Y-134321D01*
X265998Y-109882D01*
X270000Y-85000D01*
X272223Y-71050D01*
X273222Y-56958D01*
X272989Y-42834D01*
X271526Y-28783D01*
X268843Y-14914D01*
X264963Y-1331D01*
X259913Y11862D01*
X253732Y24565D01*
X246468Y36681D01*
X238176Y48117D01*
X228918Y58787D01*
X218766Y68610D01*
X207796Y77511D01*
X196092Y85421D01*
X183743Y92282D01*
X170843Y98040D01*
X157491Y102652D01*
X143787Y106082D01*
X129837Y108305D01*
X115746Y109304D01*
X101621Y109071D01*
X87571Y107608D01*
X73701Y104926D01*
X60118Y101045D01*
X46925Y95995D01*
X34222Y89814D01*
X22107Y82550D01*
X10670Y74258D01*
X0Y65000D01*
X-10670Y74258D01*
X-22107Y82550D01*
X-34222Y89814D01*
X-46925Y95995D01*
X-60118Y101045D01*
X-73701Y104926D01*
X-87571Y107608D01*
X-101621Y109071D01*
X-115746Y109304D01*
X-129837Y108305D01*
X-143787Y106082D01*
X-157491Y102652D01*
X-170843Y98040D01*
X-183743Y92282D01*
X-196092Y85421D01*
X-207796Y77511D01*
X-218766Y68610D01*
X-228918Y58787D01*
X-238176Y48117D01*
X-246468Y36681D01*
X-253732Y24565D01*
X-259913Y11862D01*
X-264963Y-1331D01*
X-268843Y-14914D01*
X-271526Y-28783D01*
X-272989Y-42834D01*
X-273222Y-56958D01*
X-272223Y-71050D01*
X-270000Y-85000D01*
X10000Y-437D02*
X9924Y-1307D01*
X9772Y-2166D01*
X9546Y-3010D01*
X9248Y-3830D01*
X8879Y-4622D01*
X8442Y-5378D01*
X7941Y-6093D01*
X7380Y-6762D01*
X6762Y-7380D01*
X6093Y-7941D01*
X5378Y-8442D01*
X4622Y-8879D01*
X3830Y-9248D01*
X3010Y-9546D01*
X2166Y-9772D01*
X1307Y-9924D01*
X437Y-10000D01*
X-437Y-10000D01*
X-1307Y-9924D01*
X-2166Y-9772D01*
X-3010Y-9546D01*
X-3830Y-9248D01*
X-4622Y-8879D01*
X-5378Y-8442D01*
X-6093Y-7941D01*
X-6762Y-7380D01*
X-7380Y-6762D01*
X-7941Y-6093D01*
X-8442Y-5378D01*
X-8879Y-4622D01*
X-9248Y-3830D01*
X-9546Y-3010D01*
X-9772Y-2166D01*
X-9924Y-1307D01*
X-10000Y-437D01*
X-10000Y437D01*
X-9924Y1307D01*
X-9772Y2166D01*
X-9546Y3010D01*
X-9248Y3830D01*
X-8879Y4622D01*
X-8442Y5378D01*
X-7941Y6093D01*
X-7380Y6762D01*
X-6762Y7380D01*
X-6093Y7941D01*
X-5378Y8442D01*
X-4622Y8879D01*
X-3830Y9248D01*
X-3010Y9546D01*
X-2166Y9772D01*
X-1307Y9924D01*
X-437Y10000D01*
X437Y10000D01*
X1307Y9924D01*
X2166Y9772D01*
X3010Y9546D01*
X3830Y9248D01*
X4622Y8879D01*
X5378Y8442D01*
X6093Y7941D01*
X6762Y7380D01*
X7380Y6762D01*
X7941Y6093D01*
X8442Y5378D01*
X8879Y4622D01*
X9248Y3830D01*
X9546Y3010D01*
X9772Y2166D01*
X9924Y1307D01*
X10000Y437D01*
X10000Y-437D01*
X21705Y-257850D02*
X21120Y-257927D01*
X20550Y-258080D01*
X20005Y-258305D01*
X19495Y-258600D01*
X19027Y-258959D01*
X18609Y-259377D01*
X18250Y-259845D01*
X17955Y-260355D01*
X17730Y-260900D01*
X17577Y-261470D01*
X17500Y-262055D01*
X17500Y-262645D01*
X17577Y-263230D01*
X17730Y-263800D01*
X17955Y-264345D01*
X18250Y-264855D01*
X18609Y-265323D01*
X19027Y-265741D01*
X19495Y-266100D01*
X20005Y-266395D01*
X20550Y-266620D01*
X21120Y-266773D01*
X21705Y-266850D01*
X22295Y-266850D01*
X22880Y-266773D01*
X23450Y-266620D01*
X23995Y-266395D01*
X24505Y-266100D01*
X24973Y-265741D01*
X25391Y-265323D01*
X25750Y-264855D01*
X26045Y-264345D01*
X26270Y-263800D01*
X26423Y-263230D01*
X26500Y-262645D01*
X26500Y-262055D01*
X26423Y-261470D01*
X26270Y-260900D01*
X26045Y-260355D01*
X25750Y-259845D01*
X25391Y-259377D01*
X24973Y-258959D01*
X24505Y-258600D01*
X23995Y-258305D01*
X23450Y-258080D01*
X22880Y-257927D01*
X22295Y-257850D01*
X21705Y-257850D01*
X-22295Y-257850D02*
X-22880Y-257927D01*
X-23450Y-258080D01*
X-23995Y-258305D01*
X-24505Y-258600D01*
X-24973Y-258959D01*
X-25391Y-259377D01*
X-25750Y-259845D01*
X-26045Y-260355D01*
X-26270Y-260900D01*
X-26423Y-261470D01*
X-26500Y-262055D01*
X-26500Y-262645D01*
X-26423Y-263230D01*
X-26270Y-263800D01*
X-26045Y-264345D01*
X-25750Y-264855D01*
X-25391Y-265323D01*
X-24973Y-265741D01*
X-24505Y-266100D01*
X-23995Y-266395D01*
X-23450Y-266620D01*
X-22880Y-266773D01*
X-22295Y-266850D01*
X-21705Y-266850D01*
X-21120Y-266773D01*
X-20550Y-266620D01*
X-20005Y-266395D01*
X-19495Y-266100D01*
X-19027Y-265741D01*
X-18609Y-265323D01*
X-18250Y-264855D01*
X-17955Y-264345D01*
X-17730Y-263800D01*
X-17577Y-263230D01*
X-17500Y-262645D01*
X-17500Y-262055D01*
X-17577Y-261470D01*
X-17730Y-260900D01*
X-17955Y-260355D01*
X-18250Y-259845D01*
X-18609Y-259377D01*
X-19027Y-258959D01*
X-19495Y-258600D01*
X-20005Y-258305D01*
X-20550Y-258080D01*
X-21120Y-257927D01*
X-21705Y-257850D01*
X-22295Y-257850D01*
M02*
