G04 EAGLE Gerber RS-274X export*
G75*
%MOMM*%
%FSLAX34Y34*%
%LPD*%
%AMOC8*
5,1,8,0,0,1.08239X$1,22.5*%
G01*
%ADD10C,0.076200*%
%ADD11C,0.400000*%
%ADD12C,0.127000*%
%ADD13R,0.415000X1.350000*%
%ADD14C,0.100000*%
%ADD15C,0.050000*%
%ADD16R,1.540000X0.250000*%


D10*
X-93355Y-207375D02*
X-94584Y-207375D01*
X-94584Y-214747D01*
X-93355Y-214747D02*
X-95813Y-214747D01*
X-99574Y-214747D02*
X-102031Y-214747D01*
X-99574Y-214747D02*
X-98345Y-213518D01*
X-98345Y-211061D01*
X-99574Y-209832D01*
X-102031Y-209832D01*
X-103260Y-211061D01*
X-103260Y-212290D01*
X-98345Y-212290D01*
X-110744Y-214747D02*
X-110744Y-207375D01*
X-110744Y-214747D02*
X-107058Y-214747D01*
X-105829Y-213518D01*
X-105829Y-211061D01*
X-107058Y-209832D01*
X-110744Y-209832D01*
X-113313Y-211061D02*
X-118228Y-211061D01*
X-120797Y-207375D02*
X-120797Y-214747D01*
X-120797Y-211061D02*
X-122026Y-209832D01*
X-124484Y-209832D01*
X-125712Y-211061D01*
X-125712Y-214747D01*
X-129510Y-214747D02*
X-131968Y-214747D01*
X-129510Y-214747D02*
X-128282Y-213518D01*
X-128282Y-211061D01*
X-129510Y-209832D01*
X-131968Y-209832D01*
X-133196Y-211061D01*
X-133196Y-212290D01*
X-128282Y-212290D01*
X-136994Y-209832D02*
X-139452Y-209832D01*
X-140681Y-211061D01*
X-140681Y-214747D01*
X-136994Y-214747D01*
X-135766Y-213518D01*
X-136994Y-212290D01*
X-140681Y-212290D01*
X-143250Y-214747D02*
X-143250Y-209832D01*
X-145707Y-209832D02*
X-143250Y-212290D01*
X-145707Y-209832D02*
X-146936Y-209832D01*
X-150715Y-208603D02*
X-150715Y-213518D01*
X-151944Y-214747D01*
X-151944Y-209832D02*
X-149487Y-209832D01*
X-161960Y-209832D02*
X-164418Y-214747D01*
X-166875Y-209832D01*
X-169444Y-214747D02*
X-174359Y-214747D01*
X-169444Y-214747D02*
X-174359Y-209832D01*
X-174359Y-208603D01*
X-173131Y-207375D01*
X-170673Y-207375D01*
X-169444Y-208603D01*
X-176929Y-213518D02*
X-176929Y-214747D01*
X-176929Y-213518D02*
X-178157Y-213518D01*
X-178157Y-214747D01*
X-176929Y-214747D01*
X-180671Y-213518D02*
X-180671Y-208603D01*
X-181899Y-207375D01*
X-184357Y-207375D01*
X-185585Y-208603D01*
X-185585Y-213518D01*
X-184357Y-214747D01*
X-181899Y-214747D01*
X-180671Y-213518D01*
X-185585Y-208603D01*
X-188155Y-213518D02*
X-188155Y-214747D01*
X-188155Y-213518D02*
X-189383Y-213518D01*
X-189383Y-214747D01*
X-188155Y-214747D01*
X-191897Y-213518D02*
X-191897Y-208603D01*
X-193126Y-207375D01*
X-195583Y-207375D01*
X-196812Y-208603D01*
X-196812Y-213518D01*
X-195583Y-214747D01*
X-193126Y-214747D01*
X-191897Y-213518D01*
X-196812Y-208603D01*
X-82073Y-227204D02*
X-80845Y-227204D01*
X-82073Y-227204D02*
X-83302Y-225976D01*
X-83302Y-219832D01*
X-79616Y-219832D01*
X-78387Y-221061D01*
X-78387Y-223518D01*
X-79616Y-224747D01*
X-83302Y-224747D01*
X-85871Y-219832D02*
X-87100Y-219832D01*
X-87100Y-224747D01*
X-85871Y-224747D02*
X-88329Y-224747D01*
X-87100Y-217375D02*
X-87100Y-216146D01*
X-92089Y-218603D02*
X-92089Y-223518D01*
X-93318Y-224747D01*
X-93318Y-219832D02*
X-90861Y-219832D01*
X-95850Y-217375D02*
X-95850Y-224747D01*
X-95850Y-221061D02*
X-97079Y-219832D01*
X-99536Y-219832D01*
X-100765Y-221061D01*
X-100765Y-224747D01*
X-103334Y-223518D02*
X-103334Y-219832D01*
X-103334Y-223518D02*
X-104563Y-224747D01*
X-108249Y-224747D01*
X-108249Y-219832D01*
X-110819Y-217375D02*
X-110819Y-224747D01*
X-114505Y-224747D01*
X-115733Y-223518D01*
X-115733Y-221061D01*
X-114505Y-219832D01*
X-110819Y-219832D01*
X-118303Y-223518D02*
X-118303Y-224747D01*
X-118303Y-223518D02*
X-119531Y-223518D01*
X-119531Y-224747D01*
X-118303Y-224747D01*
X-123273Y-219832D02*
X-126960Y-219832D01*
X-123273Y-219832D02*
X-122045Y-221061D01*
X-122045Y-223518D01*
X-123273Y-224747D01*
X-126960Y-224747D01*
X-130758Y-224747D02*
X-133215Y-224747D01*
X-134444Y-223518D01*
X-134444Y-221061D01*
X-133215Y-219832D01*
X-130758Y-219832D01*
X-129529Y-221061D01*
X-129529Y-223518D01*
X-130758Y-224747D01*
X-137013Y-224747D02*
X-137013Y-219832D01*
X-138242Y-219832D01*
X-139470Y-221061D01*
X-139470Y-224747D01*
X-139470Y-221061D02*
X-140699Y-219832D01*
X-141928Y-221061D01*
X-141928Y-224747D01*
X-144497Y-224747D02*
X-149412Y-217375D01*
X-151981Y-219832D02*
X-151981Y-224747D01*
X-151981Y-219832D02*
X-155667Y-219832D01*
X-156896Y-221061D01*
X-156896Y-224747D01*
X-160694Y-224747D02*
X-163152Y-224747D01*
X-160694Y-224747D02*
X-159466Y-223518D01*
X-159466Y-221061D01*
X-160694Y-219832D01*
X-163152Y-219832D01*
X-164380Y-221061D01*
X-164380Y-222290D01*
X-159466Y-222290D01*
X-168178Y-223518D02*
X-168178Y-218603D01*
X-168178Y-223518D02*
X-169407Y-224747D01*
X-169407Y-219832D02*
X-166950Y-219832D01*
X-173168Y-219832D02*
X-176854Y-219832D01*
X-173168Y-219832D02*
X-171939Y-221061D01*
X-171939Y-223518D01*
X-173168Y-224747D01*
X-176854Y-224747D01*
X-180652Y-219832D02*
X-183109Y-219832D01*
X-184338Y-221061D01*
X-184338Y-224747D01*
X-180652Y-224747D01*
X-179423Y-223518D01*
X-180652Y-222290D01*
X-184338Y-222290D01*
X-188136Y-223518D02*
X-188136Y-218603D01*
X-188136Y-223518D02*
X-189365Y-224747D01*
X-189365Y-219832D02*
X-186907Y-219832D01*
X-191897Y-219832D02*
X-191897Y-223518D01*
X-193126Y-224747D01*
X-196812Y-224747D01*
X-196812Y-219832D01*
D11*
X-62000Y-189000D03*
D12*
X-60500Y-194500D02*
X-63500Y-194500D01*
X-63500Y-197500D01*
X-63500Y-242500D02*
X-63500Y-245500D01*
X-60500Y-245500D01*
X-15500Y-245500D02*
X-12500Y-245500D01*
X-12500Y-242500D01*
X-12500Y-197500D02*
X-12500Y-194500D01*
X-15500Y-194500D01*
D10*
X-14781Y-189847D02*
X-12323Y-189847D01*
X-13552Y-189847D02*
X-13552Y-182475D01*
X-12323Y-182475D02*
X-14781Y-182475D01*
X-20999Y-182475D02*
X-22228Y-183703D01*
X-20999Y-182475D02*
X-18541Y-182475D01*
X-17313Y-183703D01*
X-17313Y-188618D01*
X-18541Y-189847D01*
X-20999Y-189847D01*
X-22228Y-188618D01*
X-24797Y-184932D02*
X-27254Y-182475D01*
X-27254Y-189847D01*
X-24797Y-189847D02*
X-29712Y-189847D01*
X-126145Y-263201D02*
X-127373Y-261972D01*
X-126145Y-263201D02*
X-126145Y-265659D01*
X-127373Y-266887D01*
X-132288Y-266887D01*
X-133517Y-265659D01*
X-133517Y-263201D01*
X-132288Y-261972D01*
X-128602Y-259403D02*
X-126145Y-256946D01*
X-133517Y-256946D01*
X-133517Y-259403D02*
X-133517Y-254488D01*
X34915Y-244594D02*
X36143Y-245823D01*
X36143Y-248280D01*
X34915Y-249509D01*
X30000Y-249509D01*
X28771Y-248280D01*
X28771Y-245823D01*
X30000Y-244594D01*
X28771Y-242025D02*
X28771Y-237110D01*
X28771Y-242025D02*
X33686Y-237110D01*
X34915Y-237110D01*
X36143Y-238339D01*
X36143Y-240796D01*
X34915Y-242025D01*
X-101178Y-27223D02*
X-99949Y-25995D01*
X-97491Y-25995D01*
X-96263Y-27223D01*
X-96263Y-32138D01*
X-97491Y-33367D01*
X-99949Y-33367D01*
X-101178Y-32138D01*
X-107433Y-33367D02*
X-107433Y-25995D01*
X-103747Y-29681D01*
X-108662Y-29681D01*
X-129949Y-83195D02*
X-131178Y-84423D01*
X-129949Y-83195D02*
X-127491Y-83195D01*
X-126263Y-84423D01*
X-126263Y-89338D01*
X-127491Y-90567D01*
X-129949Y-90567D01*
X-131178Y-89338D01*
X-133747Y-83195D02*
X-138662Y-83195D01*
X-133747Y-83195D02*
X-133747Y-86881D01*
X-136204Y-85652D01*
X-137433Y-85652D01*
X-138662Y-86881D01*
X-138662Y-89338D01*
X-137433Y-90567D01*
X-134976Y-90567D01*
X-133747Y-89338D01*
X-19013Y-69767D02*
X-19013Y-62395D01*
X-22699Y-62395D01*
X-23928Y-63623D01*
X-23928Y-66081D01*
X-22699Y-67310D01*
X-19013Y-67310D01*
X-21470Y-67310D02*
X-23928Y-69767D01*
X-26497Y-62395D02*
X-31412Y-62395D01*
X-26497Y-62395D02*
X-26497Y-66081D01*
X-28954Y-64852D01*
X-30183Y-64852D01*
X-31412Y-66081D01*
X-31412Y-68538D01*
X-30183Y-69767D01*
X-27726Y-69767D01*
X-26497Y-68538D01*
D12*
X5500Y-76000D02*
X5533Y-73300D01*
X5632Y-70603D01*
X5798Y-67908D01*
X6030Y-65218D01*
X6327Y-62535D01*
X6691Y-59860D01*
X7119Y-57194D01*
X7614Y-54540D01*
X8173Y-51899D01*
X8797Y-49272D01*
X9485Y-46662D01*
X10237Y-44069D01*
X11052Y-41495D01*
X11930Y-38942D01*
X12871Y-36412D01*
X13873Y-33905D01*
X14937Y-31423D01*
X16061Y-28969D01*
X17245Y-26543D01*
X18489Y-24146D01*
X19790Y-21781D01*
X21150Y-19449D01*
X22566Y-17150D01*
X24038Y-14887D01*
X25566Y-12661D01*
X27147Y-10473D01*
X28782Y-8325D01*
X30469Y-6217D01*
X32207Y-4151D01*
X33995Y-2129D01*
X35833Y-151D01*
X37718Y1782D01*
X39651Y3667D01*
X41629Y5505D01*
X43651Y7293D01*
X45717Y9031D01*
X47825Y10718D01*
X49973Y12353D01*
X52161Y13934D01*
X54387Y15462D01*
X56650Y16934D01*
X58949Y18350D01*
X61281Y19710D01*
X63646Y21011D01*
X66043Y22255D01*
X68469Y23439D01*
X70923Y24563D01*
X73405Y25627D01*
X75912Y26629D01*
X78442Y27570D01*
X80995Y28448D01*
X83569Y29263D01*
X86162Y30015D01*
X88772Y30703D01*
X91399Y31327D01*
X94040Y31886D01*
X96694Y32381D01*
X99360Y32809D01*
X102035Y33173D01*
X104718Y33470D01*
X107408Y33702D01*
X110103Y33868D01*
X112800Y33967D01*
X115500Y34000D01*
X118200Y33967D01*
X120897Y33868D01*
X123592Y33702D01*
X126282Y33470D01*
X128965Y33173D01*
X131640Y32809D01*
X134306Y32381D01*
X136960Y31886D01*
X139601Y31327D01*
X142228Y30703D01*
X144838Y30015D01*
X147431Y29263D01*
X150005Y28448D01*
X152558Y27570D01*
X155088Y26629D01*
X157595Y25627D01*
X160077Y24563D01*
X162531Y23439D01*
X164957Y22255D01*
X167354Y21011D01*
X169719Y19710D01*
X172051Y18350D01*
X174350Y16934D01*
X176613Y15462D01*
X178839Y13934D01*
X181027Y12353D01*
X183175Y10718D01*
X185283Y9031D01*
X187349Y7293D01*
X189371Y5505D01*
X191349Y3667D01*
X193282Y1782D01*
X195167Y-151D01*
X197005Y-2129D01*
X198793Y-4151D01*
X200531Y-6217D01*
X202218Y-8325D01*
X203853Y-10473D01*
X205434Y-12661D01*
X206962Y-14887D01*
X208434Y-17150D01*
X209850Y-19449D01*
X211210Y-21781D01*
X212511Y-24146D01*
X213755Y-26543D01*
X214939Y-28969D01*
X216063Y-31423D01*
X217127Y-33905D01*
X218129Y-36412D01*
X219070Y-38942D01*
X219948Y-41495D01*
X220763Y-44069D01*
X221515Y-46662D01*
X222203Y-49272D01*
X222827Y-51899D01*
X223386Y-54540D01*
X223881Y-57194D01*
X224309Y-59860D01*
X224673Y-62535D01*
X224970Y-65218D01*
X225202Y-67908D01*
X225368Y-70603D01*
X225467Y-73300D01*
X225500Y-76000D01*
X225467Y-78700D01*
X225368Y-81397D01*
X225202Y-84092D01*
X224970Y-86782D01*
X224673Y-89465D01*
X224309Y-92140D01*
X223881Y-94806D01*
X223386Y-97460D01*
X222827Y-100101D01*
X222203Y-102728D01*
X221515Y-105338D01*
X220763Y-107931D01*
X219948Y-110505D01*
X219070Y-113058D01*
X218129Y-115588D01*
X217127Y-118095D01*
X216063Y-120577D01*
X214939Y-123031D01*
X213755Y-125457D01*
X212511Y-127854D01*
X211210Y-130219D01*
X209850Y-132551D01*
X208434Y-134850D01*
X206962Y-137113D01*
X205434Y-139339D01*
X203853Y-141527D01*
X202218Y-143675D01*
X200531Y-145783D01*
X198793Y-147849D01*
X197005Y-149871D01*
X195167Y-151849D01*
X193282Y-153782D01*
X191349Y-155667D01*
X189371Y-157505D01*
X187349Y-159293D01*
X185283Y-161031D01*
X183175Y-162718D01*
X181027Y-164353D01*
X178839Y-165934D01*
X176613Y-167462D01*
X174350Y-168934D01*
X172051Y-170350D01*
X169719Y-171710D01*
X167354Y-173011D01*
X164957Y-174255D01*
X162531Y-175439D01*
X160077Y-176563D01*
X157595Y-177627D01*
X155088Y-178629D01*
X152558Y-179570D01*
X150005Y-180448D01*
X147431Y-181263D01*
X144838Y-182015D01*
X142228Y-182703D01*
X139601Y-183327D01*
X136960Y-183886D01*
X134306Y-184381D01*
X131640Y-184809D01*
X128965Y-185173D01*
X126282Y-185470D01*
X123592Y-185702D01*
X120897Y-185868D01*
X118200Y-185967D01*
X115500Y-186000D01*
X112800Y-185967D01*
X110103Y-185868D01*
X107408Y-185702D01*
X104718Y-185470D01*
X102035Y-185173D01*
X99360Y-184809D01*
X96694Y-184381D01*
X94040Y-183886D01*
X91399Y-183327D01*
X88772Y-182703D01*
X86162Y-182015D01*
X83569Y-181263D01*
X80995Y-180448D01*
X78442Y-179570D01*
X75912Y-178629D01*
X73405Y-177627D01*
X70923Y-176563D01*
X68469Y-175439D01*
X66043Y-174255D01*
X63646Y-173011D01*
X61281Y-171710D01*
X58949Y-170350D01*
X56650Y-168934D01*
X54387Y-167462D01*
X52161Y-165934D01*
X49973Y-164353D01*
X47825Y-162718D01*
X45717Y-161031D01*
X43651Y-159293D01*
X41629Y-157505D01*
X39651Y-155667D01*
X37718Y-153782D01*
X35833Y-151849D01*
X33995Y-149871D01*
X32207Y-147849D01*
X30469Y-145783D01*
X28782Y-143675D01*
X27147Y-141527D01*
X25566Y-139339D01*
X24038Y-137113D01*
X22566Y-134850D01*
X21150Y-132551D01*
X19790Y-130219D01*
X18489Y-127854D01*
X17245Y-125457D01*
X16061Y-123031D01*
X14937Y-120577D01*
X13873Y-118095D01*
X12871Y-115588D01*
X11930Y-113058D01*
X11052Y-110505D01*
X10237Y-107931D01*
X9485Y-105338D01*
X8797Y-102728D01*
X8173Y-100101D01*
X7614Y-97460D01*
X7119Y-94806D01*
X6691Y-92140D01*
X6327Y-89465D01*
X6030Y-86782D01*
X5798Y-84092D01*
X5632Y-81397D01*
X5533Y-78700D01*
X5500Y-76000D01*
X85500Y-182000D02*
X85500Y-211000D01*
X145500Y-211000D02*
X145500Y-182000D01*
X101500Y-211000D02*
X85500Y-211000D01*
X129500Y-211000D02*
X145500Y-211000D01*
D10*
X80119Y-200619D02*
X80119Y-193247D01*
X76433Y-193247D01*
X75204Y-194475D01*
X75204Y-195704D01*
X76433Y-196933D01*
X75204Y-198162D01*
X75204Y-199390D01*
X76433Y-200619D01*
X80119Y-200619D01*
X80119Y-196933D02*
X76433Y-196933D01*
X72635Y-195704D02*
X70177Y-193247D01*
X70177Y-200619D01*
X67720Y-200619D02*
X72635Y-200619D01*
D12*
X38100Y-273900D02*
X-38100Y-273900D01*
X-38100Y-324700D02*
X38100Y-324700D01*
X38100Y-299300D02*
X38100Y-273900D01*
X-38100Y-273900D02*
X-38100Y-299300D01*
D10*
X46381Y-319204D02*
X53753Y-324119D01*
X53753Y-319204D02*
X46381Y-324119D01*
X51296Y-316635D02*
X53753Y-314177D01*
X46381Y-314177D01*
X46381Y-311720D02*
X46381Y-316635D01*
D12*
X-113753Y-36888D02*
X-124659Y-36888D01*
X-101375Y-46738D02*
X-101375Y-55263D01*
X-137038Y-55263D02*
X-137038Y-46738D01*
X-124659Y-65113D02*
X-113753Y-65113D01*
D11*
X-107500Y-69000D03*
D10*
X-95838Y-61911D02*
X-90923Y-61911D01*
X-89695Y-60683D01*
X-89695Y-58225D01*
X-90923Y-56997D01*
X-95838Y-56997D01*
X-97067Y-58225D01*
X-97067Y-60683D01*
X-95838Y-61911D01*
X-94610Y-59454D02*
X-97067Y-56997D01*
X-89695Y-54427D02*
X-89695Y-49512D01*
X-90923Y-49512D01*
X-95838Y-54427D01*
X-97067Y-54427D01*
X-97067Y-49512D01*
X-92152Y-46943D02*
X-89695Y-44486D01*
X-97067Y-44486D01*
X-97067Y-46943D02*
X-97067Y-42028D01*
D13*
X-161615Y-25004D03*
D12*
X-159118Y-17634D02*
X-175882Y-17634D01*
X-175882Y-32366D02*
X-159118Y-32366D01*
D10*
X-162881Y-11162D02*
X-162881Y-6247D01*
X-162881Y-11162D02*
X-165338Y-13619D01*
X-167796Y-11162D01*
X-167796Y-6247D01*
X-170365Y-6247D02*
X-170365Y-13619D01*
X-174051Y-13619D01*
X-175280Y-12390D01*
X-175280Y-7475D01*
X-174051Y-6247D01*
X-170365Y-6247D01*
X-177849Y-8704D02*
X-180307Y-6247D01*
X-180307Y-13619D01*
X-182764Y-13619D02*
X-177849Y-13619D01*
D12*
X-52276Y-13396D02*
X-52276Y-21524D01*
X-52276Y-13396D02*
X-57864Y-13396D01*
X-80724Y-13396D02*
X-80724Y-21524D01*
X-80724Y-13396D02*
X-75136Y-13396D01*
D10*
X-60331Y-44425D02*
X-60331Y-49340D01*
X-60331Y-44425D02*
X-61560Y-43197D01*
X-64017Y-43197D01*
X-65246Y-44425D01*
X-65246Y-49340D01*
X-64017Y-50569D01*
X-61560Y-50569D01*
X-60331Y-49340D01*
X-62788Y-48112D02*
X-65246Y-50569D01*
X-67815Y-50569D02*
X-72730Y-50569D01*
X-67815Y-50569D02*
X-72730Y-45654D01*
X-72730Y-44425D01*
X-71501Y-43197D01*
X-69044Y-43197D01*
X-67815Y-44425D01*
D14*
X-156100Y-137100D02*
X-155560Y-137948D01*
X-155040Y-138809D01*
X-154540Y-139681D01*
X-154060Y-140565D01*
X-153601Y-141460D01*
X-153163Y-142365D01*
X-152747Y-143280D01*
X-152351Y-144205D01*
X-151978Y-145139D01*
X-151626Y-146081D01*
X-151296Y-147031D01*
X-150988Y-147988D01*
X-150703Y-148952D01*
X-150440Y-149923D01*
X-150200Y-150900D01*
X-150200Y-150901D02*
X-149917Y-152134D01*
X-149662Y-153374D01*
X-149433Y-154618D01*
X-149232Y-155868D01*
X-149058Y-157121D01*
X-148911Y-158378D01*
X-148792Y-159638D01*
X-148700Y-160900D01*
X-148701Y-160900D02*
X-148647Y-161762D01*
X-148613Y-162625D01*
X-148597Y-163488D01*
X-148600Y-164352D01*
X-148622Y-165215D01*
X-148663Y-166078D01*
X-148722Y-166939D01*
X-148801Y-167799D01*
X-201999Y-152200D02*
X-202325Y-151224D01*
X-202627Y-150241D01*
X-202906Y-149250D01*
X-203160Y-148253D01*
X-203391Y-147250D01*
X-203598Y-146243D01*
X-203780Y-145230D01*
X-203939Y-144213D01*
X-204073Y-143193D01*
X-204182Y-142170D01*
X-204267Y-141145D01*
X-204328Y-140117D01*
X-204364Y-139089D01*
X-204375Y-138060D01*
X-204362Y-137031D01*
X-204324Y-136003D01*
X-204261Y-134976D01*
X-204174Y-133951D01*
X-204063Y-132928D01*
X-203927Y-131908D01*
X-203766Y-130892D01*
X-203582Y-129880D01*
X-203373Y-128872D01*
X-203140Y-127870D01*
X-202884Y-126873D01*
X-202603Y-125883D01*
X-202299Y-124900D01*
X-169000Y-177999D02*
X-167984Y-177775D01*
X-166974Y-177526D01*
X-165969Y-177253D01*
X-164972Y-176957D01*
X-163982Y-176636D01*
X-163000Y-176293D01*
X-162027Y-175926D01*
X-161062Y-175535D01*
X-160107Y-175123D01*
X-159162Y-174687D01*
X-158228Y-174229D01*
X-157305Y-173749D01*
X-156394Y-173247D01*
X-155495Y-172724D01*
X-154608Y-172179D01*
X-153735Y-171614D01*
X-152875Y-171028D01*
X-152030Y-170421D01*
X-151199Y-169795D01*
X-150384Y-169149D01*
X-149584Y-168484D01*
X-148800Y-167800D01*
X-169101Y-178000D02*
X-169793Y-178141D01*
X-170488Y-178266D01*
X-171185Y-178377D01*
X-171885Y-178472D01*
X-172587Y-178552D01*
X-173290Y-178617D01*
X-173995Y-178666D01*
X-174700Y-178700D01*
X-174800Y-178700D02*
X-175436Y-178748D01*
X-176074Y-178783D01*
X-176712Y-178804D01*
X-177350Y-178811D01*
X-177988Y-178804D01*
X-178626Y-178783D01*
X-179264Y-178748D01*
X-179900Y-178700D01*
X-181556Y-178585D01*
X-183208Y-178432D01*
X-184856Y-178240D01*
X-186499Y-178010D01*
X-188137Y-177741D01*
X-189768Y-177435D01*
X-191391Y-177091D01*
X-193006Y-176709D01*
X-194611Y-176289D01*
X-196207Y-175833D01*
X-197791Y-175339D01*
X-199363Y-174809D01*
X-200923Y-174242D01*
X-202469Y-173639D01*
X-204000Y-173000D01*
X-204058Y-171325D01*
X-204077Y-169650D01*
X-204057Y-167975D01*
X-203998Y-166300D01*
X-203900Y-164628D01*
X-203763Y-162958D01*
X-203587Y-161291D01*
X-203373Y-159630D01*
X-203120Y-157973D01*
X-202828Y-156323D01*
X-202499Y-154681D01*
X-202131Y-153046D01*
X-201725Y-151421D01*
X-201281Y-149805D01*
X-200800Y-148200D01*
X-185000Y-136400D02*
X-185488Y-135788D01*
X-185991Y-135188D01*
X-186508Y-134600D01*
X-187039Y-134024D01*
X-187583Y-133462D01*
X-188141Y-132912D01*
X-188711Y-132376D01*
X-189295Y-131854D01*
X-189890Y-131346D01*
X-190498Y-130852D01*
X-191117Y-130373D01*
X-191748Y-129909D01*
X-192389Y-129460D01*
X-193041Y-129027D01*
X-193703Y-128609D01*
X-194375Y-128207D01*
X-195057Y-127822D01*
X-195747Y-127453D01*
X-196446Y-127100D01*
X-197153Y-126764D01*
X-197868Y-126446D01*
X-198591Y-126144D01*
X-199320Y-125860D01*
X-200057Y-125593D01*
X-200799Y-125344D01*
X-201547Y-125113D01*
X-202300Y-124900D01*
X-185000Y-136400D02*
X-184858Y-136299D01*
X-184714Y-136201D01*
X-184568Y-136107D01*
X-184419Y-136017D01*
X-184269Y-135930D01*
X-184116Y-135846D01*
X-183961Y-135767D01*
X-183804Y-135691D01*
X-183646Y-135619D01*
X-183486Y-135550D01*
X-183324Y-135486D01*
X-183161Y-135425D01*
X-182997Y-135368D01*
X-182831Y-135316D01*
X-182664Y-135267D01*
X-182496Y-135222D01*
X-182327Y-135181D01*
X-182157Y-135145D01*
X-181986Y-135112D01*
X-181814Y-135084D01*
X-181642Y-135059D01*
X-181469Y-135039D01*
X-181296Y-135023D01*
X-181122Y-135011D01*
X-180948Y-135003D01*
X-180774Y-134999D01*
X-180600Y-135000D01*
D15*
X-189500Y-131700D02*
X-189810Y-131502D01*
X-190125Y-131312D01*
X-190444Y-131129D01*
X-190768Y-130954D01*
X-191095Y-130787D01*
X-191426Y-130627D01*
X-191762Y-130476D01*
X-192100Y-130332D01*
X-192442Y-130196D01*
X-192787Y-130069D01*
X-193135Y-129950D01*
X-193486Y-129839D01*
X-193839Y-129737D01*
X-194195Y-129643D01*
X-194553Y-129557D01*
X-194913Y-129480D01*
X-195274Y-129412D01*
X-195637Y-129352D01*
X-196001Y-129301D01*
X-196367Y-129259D01*
X-196733Y-129225D01*
X-197100Y-129200D01*
D14*
X-180599Y-135000D02*
X-180023Y-134445D01*
X-179434Y-133903D01*
X-178832Y-133376D01*
X-178217Y-132863D01*
X-177591Y-132364D01*
X-176953Y-131881D01*
X-176303Y-131413D01*
X-175643Y-130961D01*
X-174972Y-130525D01*
X-174291Y-130104D01*
X-173600Y-129700D01*
X-173019Y-129419D01*
X-172431Y-129152D01*
X-171836Y-128900D01*
X-171236Y-128661D01*
X-170630Y-128437D01*
X-170020Y-128227D01*
X-169404Y-128032D01*
X-168784Y-127852D01*
X-168160Y-127686D01*
X-167532Y-127535D01*
X-166900Y-127400D01*
X-167023Y-127811D01*
X-167156Y-128219D01*
X-167298Y-128623D01*
X-167450Y-129025D01*
X-167611Y-129422D01*
X-167782Y-129815D01*
X-167962Y-130205D01*
X-168151Y-130590D01*
X-168350Y-130970D01*
X-168557Y-131345D01*
X-168773Y-131716D01*
X-168998Y-132081D01*
X-169232Y-132441D01*
X-169474Y-132795D01*
X-169725Y-133143D01*
X-169984Y-133485D01*
X-170250Y-133821D01*
X-170525Y-134150D01*
X-170808Y-134473D01*
X-171098Y-134789D01*
X-171395Y-135098D01*
X-171700Y-135400D01*
D15*
X-194500Y-132100D02*
X-194609Y-131911D01*
X-194723Y-131725D01*
X-194842Y-131542D01*
X-194964Y-131362D01*
X-195091Y-131184D01*
X-195223Y-131010D01*
X-195358Y-130839D01*
X-195498Y-130672D01*
X-195641Y-130507D01*
X-195789Y-130347D01*
X-195940Y-130190D01*
X-196095Y-130037D01*
X-196254Y-129887D01*
X-196417Y-129741D01*
X-196583Y-129600D01*
X-196752Y-129462D01*
X-196924Y-129329D01*
X-197100Y-129200D01*
X-171700Y-135400D02*
X-171393Y-135320D01*
X-171085Y-135248D01*
X-170774Y-135183D01*
X-170462Y-135125D01*
X-170149Y-135076D01*
X-169835Y-135034D01*
X-169519Y-135000D01*
X-169203Y-134973D01*
X-168887Y-134954D01*
X-168570Y-134943D01*
X-168253Y-134940D01*
X-167936Y-134944D01*
X-167619Y-134957D01*
X-167302Y-134977D01*
X-166986Y-135004D01*
X-166671Y-135040D01*
X-166357Y-135083D01*
X-166044Y-135133D01*
X-165732Y-135192D01*
X-165422Y-135258D01*
X-165114Y-135331D01*
X-164807Y-135412D01*
X-164502Y-135501D01*
X-164200Y-135597D01*
X-163900Y-135700D01*
X-194500Y-132100D02*
X-194751Y-131875D01*
X-195007Y-131655D01*
X-195268Y-131442D01*
X-195534Y-131235D01*
X-195806Y-131035D01*
X-196081Y-130841D01*
X-196362Y-130653D01*
X-196647Y-130473D01*
X-196936Y-130299D01*
X-197229Y-130132D01*
X-197526Y-129972D01*
X-197826Y-129819D01*
X-198131Y-129674D01*
X-198438Y-129536D01*
X-198749Y-129405D01*
X-199063Y-129281D01*
X-199380Y-129165D01*
X-199699Y-129057D01*
X-200021Y-128956D01*
X-200345Y-128863D01*
X-200671Y-128778D01*
X-201000Y-128700D01*
X-201001Y-128700D02*
X-201169Y-129066D01*
X-201328Y-129435D01*
X-201478Y-129808D01*
X-201618Y-130185D01*
X-201750Y-130565D01*
X-201873Y-130948D01*
X-201986Y-131333D01*
X-202090Y-131722D01*
X-202184Y-132113D01*
X-202269Y-132506D01*
X-202344Y-132901D01*
X-202410Y-133298D01*
X-202466Y-133696D01*
X-202512Y-134095D01*
X-202549Y-134495D01*
X-202576Y-134897D01*
X-202593Y-135298D01*
X-202601Y-135700D01*
X-196200Y-139000D02*
X-196132Y-138897D01*
X-196061Y-138796D01*
X-195987Y-138697D01*
X-195911Y-138600D01*
X-195831Y-138505D01*
X-195749Y-138413D01*
X-195664Y-138323D01*
X-195577Y-138236D01*
X-195487Y-138151D01*
X-195395Y-138069D01*
X-195300Y-137989D01*
X-195203Y-137913D01*
X-195104Y-137839D01*
X-195003Y-137768D01*
X-194900Y-137700D01*
X-194901Y-137700D02*
X-194999Y-137330D01*
X-195105Y-136963D01*
X-195221Y-136598D01*
X-195345Y-136236D01*
X-195478Y-135878D01*
X-195620Y-135522D01*
X-195770Y-135170D01*
X-195928Y-134822D01*
X-196095Y-134478D01*
X-196270Y-134137D01*
X-196453Y-133802D01*
X-196645Y-133470D01*
X-196844Y-133143D01*
X-197051Y-132822D01*
X-197266Y-132505D01*
X-197488Y-132193D01*
X-197717Y-131887D01*
X-197954Y-131587D01*
X-198199Y-131292D01*
X-198450Y-131004D01*
X-198708Y-130721D01*
X-198972Y-130445D01*
X-199244Y-130175D01*
X-199521Y-129912D01*
X-199805Y-129656D01*
X-200096Y-129406D01*
X-200392Y-129164D01*
X-200693Y-128928D01*
X-201001Y-128701D01*
X-169200Y-138400D02*
X-168933Y-138340D01*
X-168668Y-138274D01*
X-168404Y-138201D01*
X-168142Y-138122D01*
X-167882Y-138037D01*
X-167624Y-137946D01*
X-167369Y-137848D01*
X-167116Y-137745D01*
X-166865Y-137636D01*
X-166617Y-137520D01*
X-166372Y-137399D01*
X-166130Y-137272D01*
X-165891Y-137139D01*
X-165655Y-137001D01*
X-165422Y-136857D01*
X-165193Y-136707D01*
X-164968Y-136552D01*
X-164746Y-136392D01*
X-164528Y-136227D01*
X-164315Y-136056D01*
X-164105Y-135881D01*
X-163900Y-135700D01*
X-169199Y-138400D02*
X-169107Y-138529D01*
X-169017Y-138660D01*
X-168930Y-138793D01*
X-168847Y-138928D01*
X-168767Y-139065D01*
X-168691Y-139204D01*
X-168618Y-139345D01*
X-168548Y-139488D01*
X-168482Y-139632D01*
X-168420Y-139778D01*
X-168361Y-139925D01*
X-168306Y-140074D01*
X-168254Y-140224D01*
X-168207Y-140375D01*
X-168162Y-140528D01*
X-168122Y-140681D01*
X-168085Y-140835D01*
X-168053Y-140991D01*
X-168024Y-141147D01*
X-167999Y-141303D01*
X-167977Y-141461D01*
X-167960Y-141618D01*
X-167946Y-141776D01*
X-167937Y-141935D01*
X-167931Y-142093D01*
X-167929Y-142252D01*
X-167931Y-142411D01*
X-167937Y-142569D01*
X-167947Y-142728D01*
X-167960Y-142886D01*
X-167978Y-143043D01*
X-167999Y-143201D01*
X-168000Y-143200D02*
X-168503Y-142885D01*
X-169013Y-142582D01*
X-169529Y-142289D01*
X-170052Y-142008D01*
X-170581Y-141739D01*
X-171115Y-141481D01*
X-171655Y-141235D01*
X-172200Y-141000D01*
D14*
X-169800Y-133299D02*
X-168950Y-133271D01*
X-168100Y-133262D01*
X-167250Y-133271D01*
X-166400Y-133299D01*
D15*
X-175600Y-148700D02*
X-175052Y-149297D01*
X-174519Y-149907D01*
X-173999Y-150529D01*
X-173495Y-151163D01*
X-173005Y-151809D01*
X-172530Y-152466D01*
X-172071Y-153134D01*
X-171628Y-153812D01*
X-171200Y-154500D01*
D14*
X-166400Y-133300D02*
X-166130Y-132690D01*
X-165846Y-132086D01*
X-165547Y-131490D01*
X-165235Y-130900D01*
X-164909Y-130318D01*
X-164569Y-129744D01*
X-164216Y-129178D01*
X-163849Y-128621D01*
X-163470Y-128072D01*
X-163077Y-127533D01*
X-162672Y-127002D01*
X-162255Y-126482D01*
X-161826Y-125971D01*
X-161384Y-125471D01*
X-160931Y-124981D01*
X-160467Y-124502D01*
X-159991Y-124035D01*
X-159505Y-123578D01*
X-159007Y-123133D01*
X-158500Y-122700D01*
X-158109Y-123431D01*
X-157736Y-124171D01*
X-157381Y-124919D01*
X-157043Y-125676D01*
X-156724Y-126440D01*
X-156423Y-127212D01*
X-156140Y-127991D01*
X-155876Y-128776D01*
X-155631Y-129568D01*
X-155405Y-130365D01*
X-155198Y-131167D01*
X-155010Y-131974D01*
X-154841Y-132785D01*
X-154691Y-133600D01*
X-154561Y-134418D01*
X-154451Y-135239D01*
X-154360Y-136063D01*
X-154288Y-136888D01*
X-154236Y-137715D01*
X-154204Y-138543D01*
X-154192Y-139372D01*
X-154200Y-140200D01*
D15*
X-166400Y-133300D02*
X-165840Y-132535D01*
X-165261Y-131784D01*
X-164665Y-131046D01*
X-164051Y-130324D01*
X-163421Y-129615D01*
X-162774Y-128923D01*
X-162110Y-128245D01*
X-161430Y-127584D01*
X-160735Y-126939D01*
X-160025Y-126311D01*
X-159300Y-125700D01*
X-159393Y-125898D01*
X-159481Y-126098D01*
X-159564Y-126301D01*
X-159642Y-126505D01*
X-159716Y-126711D01*
X-159784Y-126919D01*
X-159847Y-127128D01*
X-159905Y-127339D01*
X-159958Y-127551D01*
X-160006Y-127764D01*
X-160049Y-127979D01*
X-160086Y-128194D01*
X-160118Y-128411D01*
X-160145Y-128628D01*
X-160167Y-128845D01*
X-160183Y-129063D01*
X-160194Y-129282D01*
X-160200Y-129500D01*
X-160201Y-129500D02*
X-160026Y-129194D01*
X-159844Y-128893D01*
X-159655Y-128596D01*
X-159459Y-128304D01*
X-159256Y-128016D01*
X-159047Y-127734D01*
X-158830Y-127456D01*
X-158607Y-127184D01*
X-158378Y-126917D01*
X-158143Y-126655D01*
X-157901Y-126400D01*
X-157900Y-126400D02*
X-158141Y-126918D01*
X-158370Y-127443D01*
X-158586Y-127972D01*
X-158790Y-128507D01*
X-158980Y-129046D01*
X-159158Y-129590D01*
X-159322Y-130138D01*
X-159473Y-130689D01*
X-159611Y-131244D01*
X-159736Y-131802D01*
X-159847Y-132363D01*
X-159945Y-132927D01*
X-160029Y-133493D01*
X-160100Y-134060D01*
X-160156Y-134629D01*
X-160200Y-135200D01*
X-156200Y-132601D02*
X-156353Y-131811D01*
X-156523Y-131024D01*
X-156711Y-130242D01*
X-156915Y-129463D01*
X-157136Y-128690D01*
X-157374Y-127921D01*
X-157629Y-127158D01*
X-157900Y-126401D01*
X-165400Y-151700D02*
X-165534Y-151944D01*
X-165663Y-152192D01*
X-165786Y-152442D01*
X-165904Y-152696D01*
X-166015Y-152952D01*
X-166120Y-153210D01*
X-166220Y-153471D01*
X-166313Y-153734D01*
X-166400Y-154000D01*
D14*
X-160800Y-150801D02*
X-160417Y-150327D01*
X-160045Y-149845D01*
X-159684Y-149354D01*
X-159334Y-148855D01*
X-158996Y-148348D01*
X-158671Y-147833D01*
X-158357Y-147311D01*
X-158055Y-146782D01*
X-157766Y-146246D01*
X-157490Y-145703D01*
X-157226Y-145154D01*
X-156975Y-144599D01*
X-156737Y-144038D01*
X-156512Y-143472D01*
X-156300Y-142900D01*
X-160800Y-150800D02*
X-161305Y-151373D01*
X-161824Y-151934D01*
X-162356Y-152482D01*
X-162900Y-153018D01*
X-163457Y-153541D01*
X-164025Y-154051D01*
X-164606Y-154548D01*
X-165197Y-155031D01*
X-165800Y-155500D01*
X-155000Y-148500D02*
X-155108Y-147789D01*
X-155233Y-147080D01*
X-155372Y-146375D01*
X-155527Y-145672D01*
X-155698Y-144973D01*
X-155883Y-144278D01*
X-156084Y-143587D01*
X-156300Y-142900D01*
X-155000Y-148500D02*
X-154980Y-150800D01*
X-155000Y-153100D01*
X-155031Y-153350D01*
X-155068Y-153599D01*
X-155111Y-153847D01*
X-155160Y-154094D01*
X-155215Y-154340D01*
X-155275Y-154585D01*
X-155342Y-154828D01*
X-155414Y-155069D01*
X-155492Y-155309D01*
X-155575Y-155546D01*
X-155665Y-155782D01*
X-155759Y-156015D01*
X-155860Y-156246D01*
X-155965Y-156475D01*
X-156076Y-156701D01*
X-156193Y-156924D01*
X-156315Y-157145D01*
X-156442Y-157362D01*
X-156574Y-157576D01*
X-156711Y-157788D01*
X-156853Y-157996D01*
X-157000Y-158200D01*
X-157001Y-158200D02*
X-157145Y-158353D01*
X-157293Y-158502D01*
X-157445Y-158648D01*
X-157600Y-158790D01*
X-157758Y-158929D01*
X-157920Y-159064D01*
X-158084Y-159195D01*
X-158252Y-159322D01*
X-158422Y-159446D01*
X-158595Y-159565D01*
X-158771Y-159680D01*
X-158950Y-159791D01*
X-159131Y-159898D01*
X-159315Y-160001D01*
X-159500Y-160100D01*
X-159500Y-160099D02*
X-159644Y-160152D01*
X-159789Y-160201D01*
X-159936Y-160247D01*
X-160084Y-160288D01*
X-160232Y-160326D01*
X-160382Y-160361D01*
X-160532Y-160391D01*
X-160683Y-160418D01*
X-160835Y-160441D01*
X-160987Y-160460D01*
X-161140Y-160476D01*
X-161293Y-160488D01*
X-161446Y-160495D01*
X-161600Y-160499D01*
X-161600Y-160501D02*
X-161746Y-160453D01*
X-161890Y-160401D01*
X-162033Y-160346D01*
X-162175Y-160288D01*
X-162315Y-160225D01*
X-162453Y-160160D01*
X-162590Y-160090D01*
X-162725Y-160018D01*
X-162858Y-159942D01*
X-162989Y-159862D01*
X-163118Y-159780D01*
X-163244Y-159694D01*
X-163369Y-159605D01*
X-163492Y-159513D01*
X-163612Y-159418D01*
X-163729Y-159319D01*
X-163844Y-159218D01*
X-163957Y-159114D01*
X-164067Y-159008D01*
X-164174Y-158898D01*
X-164278Y-158786D01*
X-164380Y-158671D01*
X-164478Y-158554D01*
X-164574Y-158434D01*
X-164666Y-158312D01*
X-164756Y-158187D01*
X-164842Y-158061D01*
X-164925Y-157932D01*
X-165004Y-157801D01*
X-165081Y-157668D01*
X-165154Y-157534D01*
X-165224Y-157397D01*
X-165290Y-157259D01*
X-165352Y-157119D01*
X-165412Y-156978D01*
X-165467Y-156835D01*
X-165519Y-156691D01*
X-165567Y-156546D01*
X-165612Y-156399D01*
X-165653Y-156251D01*
X-165690Y-156103D01*
X-165723Y-155953D01*
X-165753Y-155803D01*
X-165779Y-155652D01*
X-165801Y-155500D01*
D15*
X-159099Y-152700D02*
X-159143Y-151399D01*
X-159210Y-150099D01*
X-159299Y-148800D01*
X-159100Y-152700D02*
X-159129Y-153027D01*
X-159166Y-153352D01*
X-159210Y-153677D01*
X-159263Y-154000D01*
X-159324Y-154322D01*
X-159392Y-154643D01*
X-159468Y-154962D01*
X-159552Y-155279D01*
X-159643Y-155593D01*
X-159742Y-155906D01*
X-159849Y-156216D01*
X-159963Y-156523D01*
X-160084Y-156827D01*
X-160213Y-157129D01*
X-160349Y-157427D01*
X-160492Y-157722D01*
X-160642Y-158013D01*
X-160800Y-158300D01*
X-160800Y-158299D02*
X-160921Y-158179D01*
X-161040Y-158056D01*
X-161155Y-157929D01*
X-161267Y-157800D01*
X-161376Y-157669D01*
X-161481Y-157534D01*
X-161584Y-157398D01*
X-161683Y-157258D01*
X-161778Y-157117D01*
X-161870Y-156973D01*
X-161959Y-156826D01*
X-162044Y-156678D01*
X-162125Y-156528D01*
X-162203Y-156376D01*
X-162276Y-156222D01*
X-162346Y-156066D01*
X-162413Y-155908D01*
X-162475Y-155749D01*
X-162533Y-155588D01*
X-162588Y-155427D01*
X-162638Y-155263D01*
X-162685Y-155099D01*
X-162727Y-154933D01*
X-162766Y-154767D01*
X-162800Y-154600D01*
X-162807Y-154400D01*
X-162810Y-154199D01*
X-162808Y-153998D01*
X-162802Y-153798D01*
X-162791Y-153598D01*
X-162775Y-153397D01*
X-162754Y-153198D01*
X-162729Y-152999D01*
X-162700Y-152800D01*
X-164000Y-168600D02*
X-164074Y-168678D01*
X-164150Y-168754D01*
X-164229Y-168827D01*
X-164310Y-168896D01*
X-164394Y-168963D01*
X-164481Y-169027D01*
X-164569Y-169088D01*
X-164659Y-169146D01*
X-164752Y-169201D01*
X-164846Y-169252D01*
X-164942Y-169301D01*
X-165040Y-169345D01*
X-165139Y-169387D01*
X-165239Y-169424D01*
X-165341Y-169459D01*
X-165444Y-169489D01*
X-165548Y-169517D01*
X-165652Y-169540D01*
X-165758Y-169560D01*
X-165864Y-169576D01*
X-165971Y-169588D01*
X-166078Y-169597D01*
X-166185Y-169602D01*
X-166292Y-169603D01*
X-166400Y-169600D01*
X-166509Y-169580D01*
X-166616Y-169557D01*
X-166723Y-169530D01*
X-166828Y-169499D01*
X-166932Y-169464D01*
X-167036Y-169426D01*
X-167137Y-169384D01*
X-167238Y-169339D01*
X-167336Y-169290D01*
X-167433Y-169238D01*
X-167528Y-169183D01*
X-167621Y-169124D01*
X-167712Y-169062D01*
X-167800Y-168997D01*
X-167887Y-168929D01*
X-167970Y-168858D01*
X-168052Y-168784D01*
X-168131Y-168707D01*
X-168206Y-168628D01*
X-168280Y-168546D01*
X-168350Y-168461D01*
X-168417Y-168374D01*
X-168481Y-168285D01*
X-168542Y-168193D01*
X-168600Y-168100D01*
X-168673Y-168180D01*
X-168749Y-168256D01*
X-168827Y-168330D01*
X-168908Y-168401D01*
X-168992Y-168469D01*
X-169078Y-168534D01*
X-169167Y-168596D01*
X-169257Y-168655D01*
X-169350Y-168710D01*
X-169444Y-168762D01*
X-169541Y-168810D01*
X-169639Y-168855D01*
X-169739Y-168896D01*
X-169840Y-168934D01*
X-169942Y-168968D01*
X-170046Y-168998D01*
X-170150Y-169024D01*
X-170256Y-169047D01*
X-170362Y-169065D01*
X-170469Y-169080D01*
X-170576Y-169091D01*
X-170684Y-169098D01*
X-170792Y-169101D01*
X-170900Y-169100D01*
X-170900Y-169099D02*
X-170999Y-169086D01*
X-171097Y-169068D01*
X-171195Y-169047D01*
X-171292Y-169022D01*
X-171388Y-168994D01*
X-171483Y-168962D01*
X-171576Y-168926D01*
X-171668Y-168887D01*
X-171758Y-168844D01*
X-171847Y-168798D01*
X-171934Y-168749D01*
X-172019Y-168697D01*
X-172102Y-168641D01*
X-172183Y-168582D01*
X-172262Y-168520D01*
X-172338Y-168455D01*
X-172412Y-168388D01*
X-172483Y-168317D01*
X-172551Y-168244D01*
X-172617Y-168169D01*
X-172679Y-168091D01*
X-172739Y-168011D01*
X-172796Y-167928D01*
X-172849Y-167844D01*
X-172899Y-167757D01*
X-172946Y-167669D01*
X-172990Y-167579D01*
X-173030Y-167487D01*
X-173066Y-167394D01*
X-173100Y-167300D01*
X-166200Y-171900D02*
X-166107Y-171829D01*
X-166017Y-171754D01*
X-165929Y-171676D01*
X-165844Y-171596D01*
X-165761Y-171512D01*
X-165682Y-171426D01*
X-165605Y-171337D01*
X-165532Y-171246D01*
X-165461Y-171152D01*
X-165394Y-171056D01*
X-165330Y-170958D01*
X-165269Y-170858D01*
X-165212Y-170756D01*
X-165158Y-170651D01*
X-165107Y-170545D01*
X-165061Y-170438D01*
X-165018Y-170329D01*
X-164978Y-170218D01*
X-164942Y-170107D01*
X-164911Y-169994D01*
X-164882Y-169880D01*
X-164858Y-169765D01*
X-164838Y-169650D01*
X-164821Y-169534D01*
X-164809Y-169417D01*
X-164800Y-169300D01*
X-166400Y-169600D02*
X-166350Y-169690D01*
X-166304Y-169783D01*
X-166261Y-169877D01*
X-166221Y-169973D01*
X-166185Y-170070D01*
X-166153Y-170169D01*
X-166125Y-170269D01*
X-166101Y-170369D01*
X-166080Y-170471D01*
X-166063Y-170573D01*
X-166050Y-170676D01*
X-166041Y-170779D01*
X-166036Y-170883D01*
X-166035Y-170986D01*
X-166038Y-171090D01*
X-166045Y-171193D01*
X-166055Y-171296D01*
X-166070Y-171399D01*
X-166088Y-171501D01*
X-166111Y-171602D01*
X-166137Y-171702D01*
X-166167Y-171801D01*
X-166200Y-171899D01*
D14*
X-170800Y-157201D02*
X-172089Y-156388D01*
X-173397Y-155606D01*
X-174724Y-154857D01*
X-176069Y-154140D01*
X-177430Y-153456D01*
X-178808Y-152804D01*
X-180201Y-152187D01*
X-181609Y-151603D01*
X-183030Y-151054D01*
X-184464Y-150540D01*
X-185911Y-150060D01*
X-187368Y-149615D01*
X-188836Y-149206D01*
X-190313Y-148833D01*
X-191799Y-148495D01*
X-193293Y-148194D01*
X-194794Y-147929D01*
X-196300Y-147701D01*
X-175400Y-163599D02*
X-175075Y-163301D01*
X-174756Y-162995D01*
X-174446Y-162682D01*
X-174143Y-162361D01*
X-173848Y-162033D01*
X-173561Y-161697D01*
X-173282Y-161355D01*
X-173012Y-161006D01*
X-172750Y-160651D01*
X-172496Y-160290D01*
X-172252Y-159922D01*
X-172017Y-159549D01*
X-171790Y-159170D01*
X-171573Y-158786D01*
X-171366Y-158396D01*
X-171167Y-158002D01*
X-170979Y-157603D01*
X-170800Y-157199D01*
X-175400Y-163600D02*
X-175656Y-163817D01*
X-175917Y-164027D01*
X-176184Y-164231D01*
X-176455Y-164428D01*
X-176730Y-164619D01*
X-177010Y-164803D01*
X-177295Y-164981D01*
X-177584Y-165151D01*
X-177876Y-165315D01*
X-178173Y-165471D01*
X-178473Y-165620D01*
X-178777Y-165762D01*
X-179084Y-165897D01*
X-179394Y-166024D01*
X-179708Y-166144D01*
X-180024Y-166256D01*
X-180342Y-166360D01*
X-180663Y-166457D01*
X-180986Y-166546D01*
X-181312Y-166627D01*
X-181639Y-166701D01*
X-181968Y-166766D01*
X-182298Y-166823D01*
X-182630Y-166873D01*
X-182962Y-166915D01*
X-183296Y-166948D01*
X-183630Y-166973D01*
X-183965Y-166991D01*
X-184300Y-167000D01*
X-184571Y-166979D01*
X-184843Y-166953D01*
X-185113Y-166919D01*
X-185383Y-166879D01*
X-185652Y-166833D01*
X-185919Y-166780D01*
X-186185Y-166721D01*
X-186450Y-166655D01*
X-186713Y-166583D01*
X-186974Y-166505D01*
X-187233Y-166420D01*
X-187490Y-166330D01*
X-187745Y-166233D01*
X-187998Y-166130D01*
X-188248Y-166020D01*
X-188495Y-165905D01*
X-188739Y-165784D01*
X-188980Y-165658D01*
X-189219Y-165525D01*
X-189454Y-165387D01*
X-189685Y-165243D01*
X-189913Y-165093D01*
X-190138Y-164938D01*
X-190358Y-164778D01*
X-190575Y-164613D01*
X-190787Y-164442D01*
X-190996Y-164266D01*
X-191200Y-164085D01*
X-191400Y-163900D01*
X-191685Y-163605D01*
X-191963Y-163304D01*
X-192234Y-162996D01*
X-192498Y-162682D01*
X-192754Y-162362D01*
X-193002Y-162036D01*
X-193243Y-161704D01*
X-193476Y-161366D01*
X-193700Y-161023D01*
X-193916Y-160675D01*
X-194124Y-160322D01*
X-194324Y-159963D01*
X-194514Y-159601D01*
X-194697Y-159233D01*
X-194870Y-158862D01*
X-195034Y-158486D01*
X-195190Y-158107D01*
X-195336Y-157724D01*
X-195474Y-157337D01*
X-195602Y-156948D01*
X-195720Y-156556D01*
X-195830Y-156160D01*
X-195929Y-155763D01*
X-196020Y-155363D01*
X-196101Y-154961D01*
X-196172Y-154557D01*
X-196234Y-154152D01*
X-196286Y-153745D01*
X-196328Y-153337D01*
X-196361Y-152929D01*
X-196383Y-152519D01*
X-196397Y-152110D01*
X-196400Y-151700D01*
X-196401Y-151701D02*
X-196426Y-151200D01*
X-196441Y-150700D01*
X-196445Y-150199D01*
X-196438Y-149698D01*
X-196420Y-149198D01*
X-196391Y-148698D01*
X-196351Y-148199D01*
X-196301Y-147700D01*
D15*
X-179199Y-153800D02*
X-179264Y-154158D01*
X-179338Y-154515D01*
X-179420Y-154870D01*
X-179511Y-155222D01*
X-179610Y-155573D01*
X-179717Y-155921D01*
X-179832Y-156266D01*
X-179956Y-156609D01*
X-180088Y-156948D01*
X-180228Y-157284D01*
X-180375Y-157617D01*
X-180531Y-157946D01*
X-180694Y-158272D01*
X-180866Y-158593D01*
X-181044Y-158911D01*
X-181231Y-159223D01*
X-181424Y-159532D01*
X-181625Y-159836D01*
X-181833Y-160134D01*
X-182048Y-160428D01*
X-182271Y-160717D01*
X-182499Y-161000D01*
X-182500Y-161000D02*
X-182535Y-160834D01*
X-182574Y-160670D01*
X-182618Y-160507D01*
X-182665Y-160344D01*
X-182716Y-160183D01*
X-182771Y-160023D01*
X-182830Y-159865D01*
X-182892Y-159708D01*
X-182958Y-159553D01*
X-183028Y-159399D01*
X-183102Y-159247D01*
X-183179Y-159096D01*
X-183260Y-158948D01*
X-183345Y-158802D01*
X-183433Y-158657D01*
X-183524Y-158515D01*
X-183619Y-158375D01*
X-183717Y-158238D01*
X-183819Y-158103D01*
X-183923Y-157970D01*
X-184031Y-157840D01*
X-184142Y-157712D01*
X-184256Y-157588D01*
X-184373Y-157466D01*
X-184493Y-157347D01*
X-184615Y-157230D01*
X-184741Y-157117D01*
X-184869Y-157007D01*
X-185000Y-156900D01*
X-184999Y-156900D02*
X-185068Y-157170D01*
X-185130Y-157442D01*
X-185186Y-157716D01*
X-185235Y-157991D01*
X-185277Y-158266D01*
X-185313Y-158543D01*
X-185342Y-158821D01*
X-185364Y-159099D01*
X-185380Y-159378D01*
X-185389Y-159657D01*
X-185391Y-159936D01*
X-185386Y-160215D01*
X-185375Y-160494D01*
X-185357Y-160772D01*
X-185333Y-161050D01*
X-185301Y-161328D01*
X-185263Y-161604D01*
X-185219Y-161880D01*
X-185167Y-162154D01*
X-185110Y-162427D01*
X-185045Y-162699D01*
X-184974Y-162969D01*
X-184897Y-163237D01*
X-184813Y-163503D01*
X-184723Y-163767D01*
X-184626Y-164029D01*
X-184523Y-164288D01*
X-184414Y-164545D01*
X-184299Y-164800D01*
X-184300Y-164800D02*
X-184510Y-164561D01*
X-184714Y-164316D01*
X-184912Y-164067D01*
X-185104Y-163812D01*
X-185290Y-163553D01*
X-185469Y-163290D01*
X-185642Y-163022D01*
X-185808Y-162750D01*
X-185967Y-162475D01*
X-186120Y-162195D01*
X-186266Y-161912D01*
X-186405Y-161625D01*
X-186537Y-161335D01*
X-186662Y-161042D01*
X-186780Y-160746D01*
X-186890Y-160447D01*
X-186993Y-160146D01*
X-187089Y-159842D01*
X-187177Y-159536D01*
X-187258Y-159228D01*
X-187332Y-158918D01*
X-187397Y-158606D01*
X-187455Y-158293D01*
X-187506Y-157978D01*
X-187549Y-157663D01*
X-187584Y-157346D01*
X-187611Y-157028D01*
X-187631Y-156711D01*
X-187643Y-156392D01*
X-187647Y-156074D01*
X-187643Y-155755D01*
X-187632Y-155437D01*
X-187613Y-155119D01*
X-187586Y-154801D01*
X-187552Y-154484D01*
X-187509Y-154169D01*
X-187459Y-153854D01*
X-187402Y-153541D01*
X-187337Y-153229D01*
X-187264Y-152919D01*
X-187183Y-152610D01*
X-187096Y-152304D01*
X-187000Y-152000D01*
X-186661Y-152226D01*
X-186327Y-152460D01*
X-185999Y-152702D01*
X-185677Y-152951D01*
X-185361Y-153208D01*
X-185051Y-153472D01*
X-184748Y-153744D01*
X-184451Y-154023D01*
X-184160Y-154308D01*
X-183877Y-154601D01*
X-183600Y-154900D01*
X-183601Y-154900D02*
X-183549Y-154548D01*
X-183507Y-154195D01*
X-183472Y-153841D01*
X-183446Y-153486D01*
X-183429Y-153131D01*
X-183419Y-152775D01*
X-183419Y-152420D01*
X-183427Y-152064D01*
X-183443Y-151709D01*
X-183468Y-151354D01*
X-183501Y-151000D01*
D14*
X-165600Y-177100D02*
X-165520Y-177664D01*
X-165454Y-178230D01*
X-165402Y-178797D01*
X-165362Y-179366D01*
X-165336Y-179935D01*
X-165323Y-180504D01*
X-165323Y-181074D01*
X-165336Y-181644D01*
X-165363Y-182213D01*
X-165403Y-182781D01*
X-165456Y-183348D01*
X-165522Y-183914D01*
X-165601Y-184478D01*
X-165694Y-185040D01*
X-165800Y-185600D01*
X-165827Y-185454D01*
X-165858Y-185309D01*
X-165893Y-185164D01*
X-165931Y-185020D01*
X-165973Y-184878D01*
X-166018Y-184736D01*
X-166067Y-184596D01*
X-166120Y-184456D01*
X-166175Y-184319D01*
X-166235Y-184182D01*
X-166297Y-184047D01*
X-166363Y-183914D01*
X-166433Y-183782D01*
X-166505Y-183653D01*
X-166581Y-183525D01*
X-166660Y-183399D01*
X-166742Y-183275D01*
X-166827Y-183153D01*
X-166915Y-183033D01*
X-167006Y-182915D01*
X-167100Y-182800D01*
X-167301Y-182000D02*
X-167263Y-182136D01*
X-167229Y-182274D01*
X-167199Y-182413D01*
X-167172Y-182552D01*
X-167150Y-182692D01*
X-167131Y-182833D01*
X-167116Y-182974D01*
X-167105Y-183115D01*
X-167098Y-183257D01*
X-167094Y-183399D01*
X-167095Y-183540D01*
X-167099Y-183682D01*
X-167107Y-183824D01*
X-167119Y-183965D01*
X-167135Y-184106D01*
X-167155Y-184246D01*
X-167179Y-184386D01*
X-167206Y-184525D01*
X-167237Y-184664D01*
X-167272Y-184801D01*
X-167311Y-184938D01*
X-167353Y-185073D01*
X-167399Y-185207D01*
X-167449Y-185340D01*
X-167502Y-185471D01*
X-167559Y-185601D01*
X-167620Y-185730D01*
X-167684Y-185856D01*
X-167751Y-185981D01*
X-167822Y-186104D01*
X-167896Y-186225D01*
X-167973Y-186344D01*
X-168053Y-186461D01*
X-168137Y-186575D01*
X-168224Y-186688D01*
X-168314Y-186797D01*
X-168406Y-186905D01*
X-168502Y-187009D01*
X-168600Y-187112D01*
X-168702Y-187211D01*
X-168805Y-187308D01*
X-168912Y-187401D01*
X-169021Y-187492D01*
X-169132Y-187580D01*
X-169246Y-187665D01*
X-169362Y-187746D01*
X-169480Y-187824D01*
X-169601Y-187900D01*
X-169200Y-187600D02*
X-169180Y-187459D01*
X-169164Y-187318D01*
X-169151Y-187176D01*
X-169142Y-187034D01*
X-169137Y-186891D01*
X-169135Y-186749D01*
X-169137Y-186607D01*
X-169143Y-186464D01*
X-169153Y-186322D01*
X-169166Y-186180D01*
X-169183Y-186039D01*
X-169204Y-185898D01*
X-169228Y-185758D01*
X-169256Y-185618D01*
X-169288Y-185479D01*
X-169323Y-185341D01*
X-169362Y-185204D01*
X-169405Y-185069D01*
X-169451Y-184934D01*
X-169500Y-184800D01*
X-169522Y-184885D01*
X-169547Y-184969D01*
X-169576Y-185052D01*
X-169608Y-185133D01*
X-169643Y-185213D01*
X-169682Y-185292D01*
X-169724Y-185368D01*
X-169769Y-185443D01*
X-169817Y-185516D01*
X-169868Y-185587D01*
X-169922Y-185656D01*
X-169979Y-185723D01*
X-170039Y-185787D01*
X-170101Y-185848D01*
X-170166Y-185907D01*
X-170233Y-185963D01*
X-170302Y-186017D01*
X-170374Y-186067D01*
X-170447Y-186115D01*
X-170523Y-186159D01*
X-170600Y-186200D01*
X-167700Y-185900D02*
X-167683Y-186746D01*
X-167686Y-187592D01*
X-167709Y-188438D01*
X-167751Y-189283D01*
X-167813Y-190127D01*
X-167894Y-190970D01*
X-167995Y-191810D01*
X-168116Y-192647D01*
X-168256Y-193482D01*
X-168416Y-194313D01*
X-168594Y-195140D01*
X-168792Y-195963D01*
X-169009Y-196781D01*
X-169245Y-197593D01*
X-169500Y-198400D01*
X-169499Y-198400D02*
X-169499Y-198401D02*
X-169569Y-198517D01*
X-169641Y-198630D01*
X-169717Y-198742D01*
X-169796Y-198852D01*
X-169878Y-198959D01*
X-169964Y-199064D01*
X-170052Y-199166D01*
X-170143Y-199266D01*
X-170237Y-199363D01*
X-170334Y-199457D01*
X-170434Y-199548D01*
X-170536Y-199636D01*
X-170641Y-199722D01*
X-170748Y-199804D01*
X-170858Y-199883D01*
X-170970Y-199959D01*
X-171083Y-200031D01*
X-171200Y-200101D01*
X-171200Y-200100D02*
X-172075Y-200128D01*
X-172950Y-200138D01*
X-173825Y-200128D01*
X-174700Y-200100D01*
X-174701Y-200100D02*
X-174753Y-200034D01*
X-174803Y-199966D01*
X-174849Y-199895D01*
X-174892Y-199823D01*
X-174932Y-199749D01*
X-174968Y-199672D01*
X-175001Y-199595D01*
X-175030Y-199515D01*
X-175056Y-199435D01*
X-175077Y-199353D01*
X-175095Y-199271D01*
X-175110Y-199188D01*
X-175120Y-199104D01*
X-175126Y-199020D01*
X-175129Y-198936D01*
X-175128Y-198851D01*
X-175123Y-198767D01*
X-175114Y-198683D01*
X-175101Y-198600D01*
X-175100Y-198600D02*
X-174848Y-197721D01*
X-174617Y-196836D01*
X-174407Y-195946D01*
X-174218Y-195052D01*
X-174051Y-194153D01*
X-173905Y-193250D01*
X-173780Y-192345D01*
X-173678Y-191436D01*
X-173597Y-190525D01*
X-173537Y-189613D01*
X-173500Y-188700D01*
X-173552Y-189272D01*
X-173618Y-189842D01*
X-173698Y-190410D01*
X-173791Y-190976D01*
X-173898Y-191540D01*
X-174019Y-192101D01*
X-174154Y-192659D01*
X-174302Y-193214D01*
X-174463Y-193764D01*
X-174638Y-194311D01*
X-174825Y-194853D01*
X-175026Y-195391D01*
X-175240Y-195923D01*
X-175467Y-196451D01*
X-175706Y-196972D01*
X-175958Y-197488D01*
X-176223Y-197997D01*
X-176500Y-198500D01*
X-176585Y-198615D01*
X-176673Y-198727D01*
X-176764Y-198837D01*
X-176858Y-198945D01*
X-176954Y-199050D01*
X-177053Y-199153D01*
X-177155Y-199253D01*
X-177259Y-199351D01*
X-177366Y-199446D01*
X-177475Y-199538D01*
X-177587Y-199627D01*
X-177700Y-199713D01*
X-177816Y-199797D01*
X-177934Y-199877D01*
X-178054Y-199955D01*
X-178176Y-200029D01*
X-178300Y-200100D01*
X-178379Y-200135D01*
X-178460Y-200168D01*
X-178542Y-200197D01*
X-178625Y-200223D01*
X-178709Y-200245D01*
X-178794Y-200264D01*
X-178879Y-200280D01*
X-178966Y-200292D01*
X-179052Y-200300D01*
X-179139Y-200305D01*
X-179226Y-200307D01*
X-179313Y-200305D01*
X-179400Y-200300D01*
X-179510Y-200284D01*
X-179620Y-200264D01*
X-179729Y-200240D01*
X-179837Y-200212D01*
X-179944Y-200180D01*
X-180050Y-200144D01*
X-180154Y-200105D01*
X-180257Y-200062D01*
X-180359Y-200015D01*
X-180458Y-199965D01*
X-180556Y-199911D01*
X-180652Y-199854D01*
X-180745Y-199793D01*
X-180837Y-199729D01*
X-180926Y-199662D01*
X-181013Y-199592D01*
X-181097Y-199518D01*
X-181178Y-199442D01*
X-181257Y-199363D01*
X-181333Y-199281D01*
X-181405Y-199196D01*
X-181475Y-199109D01*
X-181542Y-199020D01*
X-181605Y-198928D01*
X-181665Y-198834D01*
X-181722Y-198738D01*
X-181775Y-198640D01*
X-181824Y-198540D01*
X-181870Y-198438D01*
X-181913Y-198335D01*
X-181951Y-198230D01*
X-181986Y-198124D01*
X-182017Y-198017D01*
X-182045Y-197909D01*
X-182068Y-197800D01*
X-182087Y-197690D01*
X-182103Y-197579D01*
X-182114Y-197468D01*
X-182122Y-197357D01*
X-182126Y-197245D01*
X-182125Y-197134D01*
X-182121Y-197022D01*
X-182113Y-196911D01*
X-182100Y-196800D01*
X-182374Y-197019D01*
X-182652Y-197231D01*
X-182937Y-197437D01*
X-183225Y-197636D01*
X-183519Y-197827D01*
X-183817Y-198012D01*
X-184120Y-198189D01*
X-184426Y-198359D01*
X-184737Y-198522D01*
X-185051Y-198677D01*
X-185369Y-198824D01*
X-185691Y-198964D01*
X-186016Y-199096D01*
X-186344Y-199220D01*
X-186675Y-199336D01*
X-187008Y-199444D01*
X-187344Y-199544D01*
X-187682Y-199636D01*
X-188023Y-199720D01*
X-188365Y-199795D01*
X-188709Y-199863D01*
X-189055Y-199922D01*
X-189402Y-199972D01*
X-189750Y-200015D01*
X-190099Y-200049D01*
X-190448Y-200074D01*
X-190799Y-200091D01*
X-191149Y-200100D01*
X-191500Y-200100D01*
X-191816Y-200105D01*
X-192133Y-200102D01*
X-192450Y-200092D01*
X-192766Y-200074D01*
X-193081Y-200049D01*
X-193396Y-200016D01*
X-193711Y-199976D01*
X-194024Y-199929D01*
X-194336Y-199873D01*
X-194646Y-199811D01*
X-194955Y-199741D01*
X-195262Y-199664D01*
X-195567Y-199579D01*
X-195870Y-199488D01*
X-196171Y-199389D01*
X-196470Y-199283D01*
X-196765Y-199169D01*
X-197058Y-199049D01*
X-197349Y-198922D01*
X-197635Y-198788D01*
X-197919Y-198648D01*
X-198199Y-198500D01*
X-198200Y-198500D02*
X-198076Y-197543D01*
X-197929Y-196589D01*
X-197759Y-195639D01*
X-197567Y-194693D01*
X-197352Y-193752D01*
X-197114Y-192817D01*
X-196854Y-191887D01*
X-196571Y-190964D01*
X-196267Y-190048D01*
X-195940Y-189140D01*
X-195592Y-188239D01*
X-195223Y-187348D01*
X-194832Y-186465D01*
X-194420Y-185592D01*
X-193987Y-184729D01*
X-193534Y-183877D01*
X-193060Y-183036D01*
X-192567Y-182207D01*
X-192053Y-181389D01*
X-191520Y-180585D01*
X-190968Y-179793D01*
X-190397Y-179015D01*
X-189808Y-178250D01*
X-189200Y-177500D01*
X-201500Y-188400D02*
X-201266Y-188724D01*
X-201038Y-189054D01*
X-200819Y-189389D01*
X-200608Y-189730D01*
X-200406Y-190075D01*
X-200211Y-190425D01*
X-200025Y-190779D01*
X-199848Y-191138D01*
X-199679Y-191502D01*
X-199518Y-191869D01*
X-199367Y-192239D01*
X-199225Y-192614D01*
X-199091Y-192991D01*
X-198967Y-193372D01*
X-198852Y-193755D01*
X-198746Y-194141D01*
X-198649Y-194530D01*
X-198561Y-194921D01*
X-198483Y-195313D01*
X-198415Y-195708D01*
X-198356Y-196104D01*
X-198306Y-196501D01*
X-198266Y-196900D01*
X-198235Y-197299D01*
X-198214Y-197699D01*
X-198202Y-198099D01*
X-198200Y-198500D01*
D15*
X-201500Y-188400D02*
X-201405Y-188348D01*
X-201312Y-188292D01*
X-201221Y-188233D01*
X-201132Y-188171D01*
X-201046Y-188106D01*
X-200961Y-188038D01*
X-200879Y-187967D01*
X-200800Y-187893D01*
X-200723Y-187816D01*
X-200649Y-187737D01*
X-200578Y-187655D01*
X-200510Y-187571D01*
X-200444Y-187485D01*
X-200382Y-187396D01*
X-200323Y-187305D01*
X-200267Y-187212D01*
X-200214Y-187117D01*
X-200165Y-187021D01*
X-200119Y-186923D01*
X-200077Y-186823D01*
X-200038Y-186722D01*
X-200002Y-186619D01*
X-199970Y-186516D01*
X-199942Y-186411D01*
X-199918Y-186305D01*
X-199897Y-186199D01*
X-199880Y-186092D01*
X-199866Y-185984D01*
X-199857Y-185876D01*
X-199851Y-185768D01*
X-199849Y-185660D01*
X-199851Y-185551D01*
X-199856Y-185443D01*
X-199866Y-185335D01*
X-199879Y-185227D01*
X-199896Y-185120D01*
X-199916Y-185014D01*
X-199940Y-184908D01*
X-199968Y-184803D01*
X-200000Y-184700D01*
X-201500Y-188400D02*
X-201596Y-188453D01*
X-201695Y-188504D01*
X-201794Y-188550D01*
X-201896Y-188593D01*
X-201999Y-188633D01*
X-202103Y-188669D01*
X-202208Y-188702D01*
X-202315Y-188730D01*
X-202422Y-188755D01*
X-202530Y-188776D01*
X-202639Y-188794D01*
X-202749Y-188807D01*
X-202859Y-188817D01*
X-202969Y-188823D01*
X-203079Y-188825D01*
X-203189Y-188823D01*
X-203299Y-188818D01*
X-203409Y-188808D01*
X-203519Y-188795D01*
X-203628Y-188778D01*
X-203736Y-188757D01*
X-203843Y-188732D01*
X-203950Y-188704D01*
X-204055Y-188672D01*
X-204160Y-188636D01*
X-204263Y-188596D01*
X-204364Y-188554D01*
X-204464Y-188507D01*
X-204562Y-188457D01*
X-204659Y-188404D01*
X-204754Y-188347D01*
X-204846Y-188287D01*
X-204937Y-188224D01*
X-205025Y-188158D01*
X-205110Y-188089D01*
X-205194Y-188016D01*
X-205274Y-187941D01*
X-205353Y-187863D01*
X-205428Y-187783D01*
X-205500Y-187700D01*
X-200000Y-184700D02*
X-200043Y-184503D01*
X-200089Y-184307D01*
X-200141Y-184112D01*
X-200197Y-183918D01*
X-200257Y-183726D01*
X-200322Y-183535D01*
X-200392Y-183346D01*
X-200465Y-183158D01*
X-200543Y-182972D01*
X-200626Y-182788D01*
X-200712Y-182606D01*
X-200803Y-182426D01*
X-200898Y-182249D01*
X-200997Y-182073D01*
X-201100Y-181900D01*
X-207300Y-184300D02*
X-207218Y-184544D01*
X-207130Y-184787D01*
X-207037Y-185027D01*
X-206938Y-185265D01*
X-206834Y-185501D01*
X-206724Y-185734D01*
X-206608Y-185965D01*
X-206488Y-186192D01*
X-206362Y-186417D01*
X-206231Y-186639D01*
X-206095Y-186858D01*
X-205953Y-187074D01*
X-205807Y-187286D01*
X-205656Y-187495D01*
X-205500Y-187700D01*
X-207301Y-184300D02*
X-205731Y-183750D01*
X-204174Y-183167D01*
X-202631Y-182550D01*
X-201101Y-181900D01*
X-200700Y-182799D02*
X-201712Y-183233D01*
X-202733Y-183644D01*
X-203762Y-184033D01*
X-204800Y-184399D01*
X-208200Y-183000D02*
X-206403Y-182384D01*
X-204620Y-181728D01*
X-202852Y-181033D01*
X-201100Y-180300D01*
X-200500Y-180800D02*
X-200477Y-180850D01*
X-200458Y-180901D01*
X-200443Y-180953D01*
X-200432Y-181006D01*
X-200424Y-181060D01*
X-200420Y-181114D01*
X-200421Y-181168D01*
X-200424Y-181223D01*
X-200432Y-181276D01*
X-200444Y-181330D01*
X-200459Y-181382D01*
X-200478Y-181433D01*
X-200501Y-181482D01*
X-200527Y-181530D01*
X-200556Y-181576D01*
X-200589Y-181619D01*
X-200624Y-181660D01*
X-200663Y-181699D01*
X-200704Y-181735D01*
X-200747Y-181767D01*
X-200793Y-181797D01*
X-200841Y-181823D01*
X-200890Y-181846D01*
X-200941Y-181865D01*
X-200993Y-181881D01*
X-201046Y-181892D01*
X-201100Y-181900D01*
X-200500Y-180800D02*
X-200514Y-180753D01*
X-200532Y-180707D01*
X-200553Y-180663D01*
X-200577Y-180621D01*
X-200605Y-180580D01*
X-200635Y-180541D01*
X-200667Y-180505D01*
X-200703Y-180471D01*
X-200740Y-180440D01*
X-200780Y-180411D01*
X-200822Y-180385D01*
X-200865Y-180363D01*
X-200910Y-180343D01*
X-200956Y-180327D01*
X-201003Y-180315D01*
X-201051Y-180305D01*
X-201100Y-180299D01*
X-208200Y-183000D02*
X-208230Y-183051D01*
X-208257Y-183104D01*
X-208280Y-183159D01*
X-208300Y-183215D01*
X-208317Y-183272D01*
X-208329Y-183330D01*
X-208339Y-183389D01*
X-208344Y-183448D01*
X-208346Y-183507D01*
X-208344Y-183567D01*
X-208339Y-183626D01*
X-208329Y-183685D01*
X-208316Y-183743D01*
X-208300Y-183800D01*
X-208270Y-183852D01*
X-208237Y-183901D01*
X-208201Y-183949D01*
X-208163Y-183994D01*
X-208121Y-184037D01*
X-208077Y-184077D01*
X-208031Y-184114D01*
X-207982Y-184148D01*
X-207931Y-184180D01*
X-207879Y-184208D01*
X-207825Y-184233D01*
X-207770Y-184255D01*
X-207713Y-184273D01*
X-207655Y-184288D01*
X-207597Y-184299D01*
X-207538Y-184306D01*
X-207478Y-184310D01*
X-207419Y-184311D01*
X-207359Y-184307D01*
X-207300Y-184300D01*
X-204700Y-178100D02*
X-204646Y-178086D01*
X-204590Y-178075D01*
X-204535Y-178068D01*
X-204479Y-178064D01*
X-204423Y-178065D01*
X-204367Y-178069D01*
X-204311Y-178077D01*
X-204256Y-178089D01*
X-204202Y-178104D01*
X-204149Y-178123D01*
X-204097Y-178145D01*
X-204048Y-178171D01*
X-204000Y-178200D01*
X-204700Y-178100D02*
X-204736Y-178141D01*
X-204769Y-178184D01*
X-204799Y-178229D01*
X-204825Y-178277D01*
X-204848Y-178327D01*
X-204867Y-178377D01*
X-204882Y-178430D01*
X-204893Y-178483D01*
X-204901Y-178537D01*
X-204905Y-178591D01*
X-204904Y-178645D01*
X-204900Y-178700D01*
X-204000Y-178200D02*
X-203824Y-178538D01*
X-203655Y-178880D01*
X-203493Y-179225D01*
X-203339Y-179574D01*
X-203193Y-179926D01*
X-203054Y-180281D01*
X-202923Y-180639D01*
X-202800Y-181000D01*
X-203800Y-181400D02*
X-203912Y-181053D01*
X-204031Y-180708D01*
X-204157Y-180366D01*
X-204291Y-180026D01*
X-204433Y-179690D01*
X-204581Y-179357D01*
X-204737Y-179027D01*
X-204900Y-178700D01*
X-206600Y-179400D02*
X-206450Y-179715D01*
X-206308Y-180033D01*
X-206172Y-180354D01*
X-206043Y-180678D01*
X-205922Y-181005D01*
X-205807Y-181334D01*
X-205700Y-181666D01*
X-205600Y-182000D01*
X-206500Y-182400D02*
X-206601Y-182078D01*
X-206709Y-181759D01*
X-206824Y-181442D01*
X-206946Y-181128D01*
X-207074Y-180817D01*
X-207210Y-180508D01*
X-207352Y-180202D01*
X-207500Y-179900D01*
X-207300Y-179100D02*
X-207258Y-179085D01*
X-207215Y-179073D01*
X-207171Y-179066D01*
X-207127Y-179062D01*
X-207082Y-179061D01*
X-207038Y-179065D01*
X-206994Y-179072D01*
X-206951Y-179082D01*
X-206908Y-179096D01*
X-206867Y-179114D01*
X-206828Y-179135D01*
X-206791Y-179159D01*
X-206755Y-179186D01*
X-206722Y-179216D01*
X-206692Y-179248D01*
X-206664Y-179283D01*
X-206639Y-179320D01*
X-206618Y-179359D01*
X-206600Y-179400D01*
X-207300Y-179100D02*
X-207338Y-179135D01*
X-207373Y-179173D01*
X-207406Y-179213D01*
X-207435Y-179256D01*
X-207461Y-179300D01*
X-207484Y-179347D01*
X-207504Y-179395D01*
X-207520Y-179444D01*
X-207532Y-179494D01*
X-207541Y-179545D01*
X-207546Y-179596D01*
X-207548Y-179648D01*
X-207546Y-179699D01*
X-207540Y-179751D01*
X-207530Y-179801D01*
X-207517Y-179851D01*
X-207500Y-179900D01*
D12*
X-33776Y20476D02*
X-33776Y28604D01*
X-39364Y28604D01*
X-62224Y28604D02*
X-62224Y20476D01*
X-62224Y28604D02*
X-56636Y28604D01*
D10*
X-13963Y26847D02*
X-13963Y21932D01*
X-13963Y26847D02*
X-15191Y28075D01*
X-17649Y28075D01*
X-18878Y26847D01*
X-18878Y21932D01*
X-17649Y20703D01*
X-15191Y20703D01*
X-13963Y21932D01*
X-16420Y23160D02*
X-18878Y20703D01*
X-21447Y25618D02*
X-23904Y28075D01*
X-23904Y20703D01*
X-21447Y20703D02*
X-26362Y20703D01*
D12*
X-16276Y-13396D02*
X-16276Y-21524D01*
X-16276Y-13396D02*
X-21864Y-13396D01*
X-44724Y-13396D02*
X-44724Y-21524D01*
X-44724Y-13396D02*
X-39136Y-13396D01*
D10*
X-24831Y-44425D02*
X-24831Y-49340D01*
X-24831Y-44425D02*
X-26060Y-43197D01*
X-28517Y-43197D01*
X-29746Y-44425D01*
X-29746Y-49340D01*
X-28517Y-50569D01*
X-26060Y-50569D01*
X-24831Y-49340D01*
X-27288Y-48112D02*
X-29746Y-50569D01*
X-32315Y-44425D02*
X-33544Y-43197D01*
X-36001Y-43197D01*
X-37230Y-44425D01*
X-37230Y-45654D01*
X-36001Y-46883D01*
X-34773Y-46883D01*
X-36001Y-46883D02*
X-37230Y-48112D01*
X-37230Y-49340D01*
X-36001Y-50569D01*
X-33544Y-50569D01*
X-32315Y-49340D01*
D12*
X-151500Y-60000D02*
X-151500Y-74000D01*
X-183500Y-74000D02*
X-183500Y-60000D01*
D10*
X-160463Y-100775D02*
X-160463Y-108147D01*
X-165378Y-108147D01*
X-167947Y-103232D02*
X-170404Y-100775D01*
X-170404Y-108147D01*
X-167947Y-108147D02*
X-172862Y-108147D01*
D12*
X-189245Y-66080D02*
X-189245Y-55920D01*
X-205755Y-55920D02*
X-205755Y-66080D01*
D16*
X-197500Y-64750D03*
D10*
X-209575Y-65701D02*
X-210803Y-64472D01*
X-209575Y-65701D02*
X-209575Y-68159D01*
X-210803Y-69387D01*
X-215718Y-69387D01*
X-216947Y-68159D01*
X-216947Y-65701D01*
X-215718Y-64472D01*
X-210803Y-61903D02*
X-209575Y-60674D01*
X-209575Y-58217D01*
X-210803Y-56988D01*
X-212032Y-56988D01*
X-213261Y-58217D01*
X-213261Y-59446D01*
X-213261Y-58217D02*
X-214490Y-56988D01*
X-215718Y-56988D01*
X-216947Y-58217D01*
X-216947Y-60674D01*
X-215718Y-61903D01*
D11*
X-114000Y-83000D03*
D12*
X-112000Y-89000D02*
X-116000Y-89000D01*
X-116000Y-93000D01*
X-116000Y-147000D02*
X-116000Y-151000D01*
X-112000Y-151000D01*
X-54000Y-151000D02*
X-54000Y-147000D01*
X-54000Y-151000D02*
X-58000Y-151000D01*
X-54000Y-93000D02*
X-54000Y-89000D01*
X-58000Y-89000D01*
D10*
X-98923Y-165647D02*
X-101381Y-165647D01*
X-100152Y-165647D02*
X-100152Y-158275D01*
X-98923Y-158275D02*
X-101381Y-158275D01*
X-107599Y-158275D02*
X-108828Y-159503D01*
X-107599Y-158275D02*
X-105141Y-158275D01*
X-103913Y-159503D01*
X-103913Y-164418D01*
X-105141Y-165647D01*
X-107599Y-165647D01*
X-108828Y-164418D01*
X-111397Y-165647D02*
X-116312Y-165647D01*
X-111397Y-165647D02*
X-116312Y-160732D01*
X-116312Y-159503D01*
X-115083Y-158275D01*
X-112626Y-158275D01*
X-111397Y-159503D01*
D12*
X-155000Y25000D02*
X-155000Y70000D01*
X-140000Y85000D02*
X-95000Y85000D01*
X-80000Y70000D02*
X-80000Y25000D01*
X-95000Y10000D02*
X-140000Y10000D01*
M02*
