G04 EAGLE Gerber RS-274X export*
G75*
%MOMM*%
%FSLAX34Y34*%
%LPD*%
%AMOC8*
5,1,8,0,0,1.08239X$1,22.5*%
G01*
%ADD10C,0.127000*%
%ADD11C,0.076200*%


D10*
X38450Y48020D02*
X37180Y45480D01*
X39720Y45480D01*
X38450Y48020D01*
X33370Y48020D02*
X33370Y45480D01*
X43530Y45480D02*
X43530Y48020D01*
X92630Y72980D02*
X93900Y75520D01*
X92630Y72980D02*
X95170Y72980D01*
X93900Y75520D01*
X88820Y75520D02*
X88820Y72980D01*
X98980Y72980D02*
X98980Y75520D01*
X149330Y71730D02*
X150600Y74270D01*
X149330Y71730D02*
X151870Y71730D01*
X150600Y74270D01*
X145520Y74270D02*
X145520Y71730D01*
X155680Y71730D02*
X155680Y74270D01*
X203719Y33727D02*
X206413Y34625D01*
X203719Y33727D02*
X205515Y31931D01*
X206413Y34625D01*
X202821Y38217D02*
X201025Y36421D01*
X208209Y29237D02*
X210005Y31033D01*
X233330Y-23830D02*
X235870Y-25100D01*
X233330Y-23830D02*
X233330Y-26370D01*
X235870Y-25100D01*
X235870Y-20020D02*
X233330Y-20020D01*
X233330Y-30180D02*
X235870Y-30180D01*
X233330Y-81780D02*
X235870Y-83050D01*
X233330Y-81780D02*
X233330Y-84320D01*
X235870Y-83050D01*
X235870Y-77970D02*
X233330Y-77970D01*
X233330Y-88130D02*
X235870Y-88130D01*
X219580Y-138480D02*
X222120Y-139750D01*
X219580Y-138480D02*
X219580Y-141020D01*
X222120Y-139750D01*
X222120Y-134670D02*
X219580Y-134670D01*
X219580Y-144830D02*
X222120Y-144830D01*
X189620Y-193950D02*
X187080Y-192680D01*
X187080Y-195220D01*
X189620Y-193950D01*
X189620Y-188870D02*
X187080Y-188870D01*
X187080Y-199030D02*
X189620Y-199030D01*
X152426Y-233747D02*
X153324Y-236441D01*
X152426Y-233747D02*
X150630Y-235543D01*
X153324Y-236441D01*
X156916Y-232849D02*
X155120Y-231053D01*
X147936Y-238237D02*
X149732Y-240033D01*
X106420Y-272080D02*
X105150Y-274620D01*
X106420Y-272080D02*
X103880Y-272080D01*
X105150Y-274620D01*
X110230Y-274620D02*
X110230Y-272080D01*
X100070Y-272080D02*
X100070Y-274620D01*
X60970Y-292080D02*
X59700Y-294620D01*
X60970Y-292080D02*
X58430Y-292080D01*
X59700Y-294620D01*
X64780Y-294620D02*
X64780Y-292080D01*
X54620Y-292080D02*
X54620Y-294620D01*
X14270Y-308330D02*
X13000Y-310870D01*
X14270Y-308330D02*
X11730Y-308330D01*
X13000Y-310870D01*
X18080Y-310870D02*
X18080Y-308330D01*
X7920Y-308330D02*
X7920Y-310870D01*
X-36180Y-302080D02*
X-37450Y-304620D01*
X-36180Y-302080D02*
X-38720Y-302080D01*
X-37450Y-304620D01*
X-32370Y-304620D02*
X-32370Y-302080D01*
X-42530Y-302080D02*
X-42530Y-304620D01*
X-82900Y-285870D02*
X-81630Y-283330D01*
X-84170Y-283330D01*
X-82900Y-285870D01*
X-77820Y-285870D02*
X-77820Y-283330D01*
X-87980Y-283330D02*
X-87980Y-285870D01*
X-129600Y-258370D02*
X-128330Y-255830D01*
X-130870Y-255830D01*
X-129600Y-258370D01*
X-124520Y-258370D02*
X-124520Y-255830D01*
X-134680Y-255830D02*
X-134680Y-258370D01*
X-168109Y-217263D02*
X-170803Y-218161D01*
X-168109Y-217263D02*
X-169905Y-215467D01*
X-170803Y-218161D01*
X-167211Y-221753D02*
X-165415Y-219957D01*
X-172599Y-212773D02*
X-174395Y-214569D01*
X-204530Y-169470D02*
X-207070Y-168200D01*
X-204530Y-169470D02*
X-204530Y-166930D01*
X-207070Y-168200D01*
X-207070Y-173280D02*
X-204530Y-173280D01*
X-204530Y-163120D02*
X-207070Y-163120D01*
X-227030Y-110270D02*
X-229570Y-109000D01*
X-227030Y-110270D02*
X-227030Y-107730D01*
X-229570Y-109000D01*
X-229570Y-114080D02*
X-227030Y-114080D01*
X-227030Y-103920D02*
X-229570Y-103920D01*
X-239530Y-53570D02*
X-242070Y-52300D01*
X-239530Y-53570D02*
X-239530Y-51030D01*
X-242070Y-52300D01*
X-242070Y-57380D02*
X-239530Y-57380D01*
X-239530Y-47220D02*
X-242070Y-47220D01*
X-221723Y6577D02*
X-222621Y9271D01*
X-221723Y6577D02*
X-219927Y8373D01*
X-222621Y9271D01*
X-226213Y5679D02*
X-224417Y3883D01*
X-217233Y11067D02*
X-219029Y12863D01*
X-176038Y53511D02*
X-176936Y56205D01*
X-176038Y53511D02*
X-174242Y55307D01*
X-176936Y56205D01*
X-180528Y52613D02*
X-178732Y50817D01*
X-171548Y58001D02*
X-173344Y59797D01*
X-123470Y73280D02*
X-122200Y75820D01*
X-123470Y73280D02*
X-120930Y73280D01*
X-122200Y75820D01*
X-127280Y75820D02*
X-127280Y73280D01*
X-117120Y73280D02*
X-117120Y75820D01*
X-69270Y64530D02*
X-68000Y67070D01*
X-69270Y64530D02*
X-66730Y64530D01*
X-68000Y67070D01*
X-73080Y67070D02*
X-73080Y64530D01*
X-62920Y64530D02*
X-62920Y67070D01*
X-13800Y27070D02*
X-15070Y24530D01*
X-12530Y24530D01*
X-13800Y27070D01*
X-18880Y27070D02*
X-18880Y24530D01*
X-8720Y24530D02*
X-8720Y27070D01*
X12580Y24480D02*
X13850Y27020D01*
X12580Y24480D02*
X15120Y24480D01*
X13850Y27020D01*
X8770Y27020D02*
X8770Y24480D01*
X18930Y24480D02*
X18930Y27020D01*
X65530Y64480D02*
X66800Y67020D01*
X65530Y64480D02*
X68070Y64480D01*
X66800Y67020D01*
X61720Y67020D02*
X61720Y64480D01*
X71880Y64480D02*
X71880Y67020D01*
X118480Y73230D02*
X119750Y75770D01*
X118480Y73230D02*
X121020Y73230D01*
X119750Y75770D01*
X114670Y75770D02*
X114670Y73230D01*
X124830Y73230D02*
X124830Y75770D01*
X174759Y55022D02*
X177453Y55920D01*
X174759Y55022D02*
X176555Y53226D01*
X177453Y55920D01*
X173861Y59512D02*
X172065Y57716D01*
X179249Y50532D02*
X181045Y52328D01*
X219926Y8820D02*
X222620Y9718D01*
X219926Y8820D02*
X221722Y7024D01*
X222620Y9718D01*
X219028Y13310D02*
X217232Y11514D01*
X224416Y4330D02*
X226212Y6126D01*
X239480Y-51080D02*
X242020Y-52350D01*
X239480Y-51080D02*
X239480Y-53620D01*
X242020Y-52350D01*
X242020Y-47270D02*
X239480Y-47270D01*
X239480Y-57430D02*
X242020Y-57430D01*
X226980Y-107780D02*
X229520Y-109050D01*
X226980Y-107780D02*
X226980Y-110320D01*
X229520Y-109050D01*
X229520Y-103970D02*
X226980Y-103970D01*
X226980Y-114130D02*
X229520Y-114130D01*
X204480Y-166980D02*
X207020Y-168250D01*
X204480Y-166980D02*
X204480Y-169520D01*
X207020Y-168250D01*
X207020Y-163170D02*
X204480Y-163170D01*
X204480Y-173330D02*
X207020Y-173330D01*
X-79224Y13476D02*
X-79224Y21604D01*
X-73636Y21604D01*
X-50776Y21604D02*
X-50776Y13476D01*
X-50776Y21604D02*
X-56364Y21604D01*
D11*
X-89587Y31610D02*
X-89587Y36525D01*
X-88359Y37753D01*
X-85901Y37753D01*
X-84672Y36525D01*
X-84672Y31610D01*
X-85901Y30381D01*
X-88359Y30381D01*
X-89587Y31610D01*
X-87130Y32838D02*
X-84672Y30381D01*
X-82103Y35296D02*
X-79646Y37753D01*
X-79646Y30381D01*
X-82103Y30381D02*
X-77188Y30381D01*
D10*
X171083Y-214949D02*
X171981Y-217643D01*
X171083Y-214949D02*
X169287Y-216745D01*
X171981Y-217643D01*
X175573Y-214051D02*
X173777Y-212255D01*
X166593Y-219439D02*
X168389Y-221235D01*
X131083Y-255515D02*
X129813Y-258055D01*
X131083Y-255515D02*
X128543Y-255515D01*
X129813Y-258055D01*
X134893Y-258055D02*
X134893Y-255515D01*
X124733Y-255515D02*
X124733Y-258055D01*
X84170Y-283230D02*
X82900Y-285770D01*
X84170Y-283230D02*
X81630Y-283230D01*
X82900Y-285770D01*
X87980Y-285770D02*
X87980Y-283230D01*
X77820Y-283230D02*
X77820Y-285770D01*
X38670Y-301930D02*
X37400Y-304470D01*
X38670Y-301930D02*
X36130Y-301930D01*
X37400Y-304470D01*
X42480Y-304470D02*
X42480Y-301930D01*
X32320Y-301930D02*
X32320Y-304470D01*
X-11780Y-308180D02*
X-13050Y-310720D01*
X-11780Y-308180D02*
X-14320Y-308180D01*
X-13050Y-310720D01*
X-7970Y-310720D02*
X-7970Y-308180D01*
X-18130Y-308180D02*
X-18130Y-310720D01*
X-58480Y-291930D02*
X-59750Y-294470D01*
X-58480Y-291930D02*
X-61020Y-291930D01*
X-59750Y-294470D01*
X-54670Y-294470D02*
X-54670Y-291930D01*
X-64830Y-291930D02*
X-64830Y-294470D01*
X-105200Y-274470D02*
X-103930Y-271930D01*
X-106470Y-271930D01*
X-105200Y-274470D01*
X-100120Y-274470D02*
X-100120Y-271930D01*
X-110280Y-271930D02*
X-110280Y-274470D01*
X-150775Y-235920D02*
X-153469Y-236818D01*
X-150775Y-235920D02*
X-152571Y-234124D01*
X-153469Y-236818D01*
X-149877Y-240410D02*
X-148081Y-238614D01*
X-155265Y-231430D02*
X-157061Y-233226D01*
X-186930Y-195170D02*
X-189470Y-193900D01*
X-186930Y-195170D02*
X-186930Y-192630D01*
X-189470Y-193900D01*
X-189470Y-198980D02*
X-186930Y-198980D01*
X-186930Y-188820D02*
X-189470Y-188820D01*
X-219430Y-140970D02*
X-221970Y-139700D01*
X-219430Y-140970D02*
X-219430Y-138430D01*
X-221970Y-139700D01*
X-221970Y-144780D02*
X-219430Y-144780D01*
X-219430Y-134620D02*
X-221970Y-134620D01*
X-234430Y-84270D02*
X-236970Y-83000D01*
X-234430Y-84270D02*
X-234430Y-81730D01*
X-236970Y-83000D01*
X-236970Y-88080D02*
X-234430Y-88080D01*
X-234430Y-77920D02*
X-236970Y-77920D01*
X-233698Y-25804D02*
X-236238Y-24534D01*
X-233698Y-25804D02*
X-233698Y-23264D01*
X-236238Y-24534D01*
X-236238Y-29614D02*
X-233698Y-29614D01*
X-233698Y-19454D02*
X-236238Y-19454D01*
X-202713Y32517D02*
X-203611Y35211D01*
X-202713Y32517D02*
X-200917Y34313D01*
X-203611Y35211D01*
X-207203Y31619D02*
X-205407Y29823D01*
X-198223Y37007D02*
X-200019Y38803D01*
X-151670Y71930D02*
X-150400Y74470D01*
X-151670Y71930D02*
X-149130Y71930D01*
X-150400Y74470D01*
X-155480Y74470D02*
X-155480Y71930D01*
X-145320Y71930D02*
X-145320Y74470D01*
X-96170Y71880D02*
X-94900Y74420D01*
X-96170Y71880D02*
X-93630Y71880D01*
X-94900Y74420D01*
X-99980Y74420D02*
X-99980Y71880D01*
X-89820Y71880D02*
X-89820Y74420D01*
X-39450Y48170D02*
X-40720Y45630D01*
X-38180Y45630D01*
X-39450Y48170D01*
X-44530Y48170D02*
X-44530Y45630D01*
X-34370Y45630D02*
X-34370Y48170D01*
X50776Y21604D02*
X50776Y13476D01*
X50776Y21604D02*
X56364Y21604D01*
X79224Y21604D02*
X79224Y13476D01*
X79224Y21604D02*
X73636Y21604D01*
D11*
X75381Y31610D02*
X75381Y36525D01*
X76610Y37753D01*
X79067Y37753D01*
X80296Y36525D01*
X80296Y31610D01*
X79067Y30381D01*
X76610Y30381D01*
X75381Y31610D01*
X77838Y32838D02*
X80296Y30381D01*
X82865Y30381D02*
X87780Y30381D01*
X82865Y30381D02*
X87780Y35296D01*
X87780Y36525D01*
X86551Y37753D01*
X84094Y37753D01*
X82865Y36525D01*
M02*
