G04 EAGLE Gerber RS-274X export*
G75*
%MOMM*%
%FSLAX34Y34*%
%LPD*%
%AMOC8*
5,1,8,0,0,1.08239X$1,22.5*%
G01*
%ADD10C,0.076200*%
%ADD11C,0.127000*%
%ADD12C,0.400000*%
%ADD13C,0.100000*%
%ADD14C,0.050000*%


D10*
X209967Y-170563D02*
X209098Y-171432D01*
X214311Y-176645D01*
X215180Y-175776D02*
X213442Y-177514D01*
X210783Y-180173D02*
X209045Y-181910D01*
X210783Y-180173D02*
X210783Y-178435D01*
X209045Y-176698D01*
X207308Y-176697D01*
X205570Y-178435D01*
X205570Y-180173D01*
X206439Y-181042D01*
X209914Y-177566D01*
X202884Y-188071D02*
X197672Y-182858D01*
X202884Y-188071D02*
X205491Y-185465D01*
X205491Y-183727D01*
X203753Y-181990D01*
X202016Y-181990D01*
X199409Y-184596D01*
X198461Y-187282D02*
X194986Y-190757D01*
X190563Y-189967D02*
X195776Y-195180D01*
X193169Y-192574D02*
X191431Y-192574D01*
X189694Y-194311D01*
X189694Y-196049D01*
X192300Y-198656D01*
X189615Y-201341D02*
X187877Y-203079D01*
X189615Y-201341D02*
X189615Y-199604D01*
X187877Y-197866D01*
X186139Y-197866D01*
X184402Y-199604D01*
X184402Y-201341D01*
X185271Y-202210D01*
X188746Y-198735D01*
X180847Y-203158D02*
X179110Y-204896D01*
X179110Y-206633D01*
X181716Y-209240D01*
X184323Y-206633D01*
X184323Y-204896D01*
X182585Y-204896D01*
X179978Y-207502D01*
X176424Y-207581D02*
X179899Y-211057D01*
X178162Y-209319D02*
X174686Y-209319D01*
X173818Y-210188D01*
X170276Y-211991D02*
X173752Y-215467D01*
X173752Y-217204D01*
X170276Y-213729D02*
X172014Y-211991D01*
X163194Y-220811D02*
X164931Y-226024D01*
X159718Y-224287D01*
X157902Y-226104D02*
X154426Y-226104D01*
X159639Y-231317D01*
X157902Y-233054D02*
X161377Y-229579D01*
X156085Y-234871D02*
X155216Y-234002D01*
X154347Y-234871D01*
X155216Y-235740D01*
X156085Y-234871D01*
X152570Y-236648D02*
X149095Y-233173D01*
X147357Y-233173D01*
X145619Y-234910D01*
X145619Y-236648D01*
X149095Y-240124D01*
X150832Y-240123D01*
X152570Y-238386D01*
X152570Y-236648D01*
X145619Y-236648D01*
X147278Y-241940D02*
X148147Y-242809D01*
X147278Y-241940D02*
X146409Y-242809D01*
X147278Y-243678D01*
X148147Y-242809D01*
X144632Y-244586D02*
X141157Y-241111D01*
X139419Y-241111D01*
X137681Y-242849D01*
X137681Y-244586D01*
X141157Y-248062D01*
X142894Y-248062D01*
X144632Y-246324D01*
X144632Y-244586D01*
X137681Y-244586D01*
X224895Y-184536D02*
X225764Y-183667D01*
X224895Y-184536D02*
X223158Y-184536D01*
X218814Y-180192D01*
X221420Y-177585D01*
X223158Y-177585D01*
X224895Y-179323D01*
X224895Y-181061D01*
X222289Y-183667D01*
X216997Y-182009D02*
X216128Y-182877D01*
X219603Y-186353D01*
X220472Y-185484D02*
X218734Y-187221D01*
X214390Y-181140D02*
X213521Y-180271D01*
X211731Y-185537D02*
X215206Y-189012D01*
X215206Y-190750D01*
X211731Y-187274D02*
X213469Y-185537D01*
X208203Y-187327D02*
X213416Y-192540D01*
X210809Y-189933D02*
X209072Y-189933D01*
X207334Y-191671D01*
X207334Y-193409D01*
X209941Y-196015D01*
X207255Y-196963D02*
X204649Y-194357D01*
X207255Y-196963D02*
X207255Y-198701D01*
X204649Y-201307D01*
X201173Y-197832D01*
X197619Y-197911D02*
X202832Y-203124D01*
X200225Y-205731D01*
X198488Y-205731D01*
X196750Y-203993D01*
X196750Y-202255D01*
X199356Y-199649D01*
X196671Y-207547D02*
X197540Y-208416D01*
X196671Y-207547D02*
X195802Y-208416D01*
X196671Y-209285D01*
X197540Y-208416D01*
X190549Y-208456D02*
X187943Y-211062D01*
X190549Y-208456D02*
X192287Y-208456D01*
X194025Y-210193D01*
X194025Y-211931D01*
X191418Y-214538D01*
X188733Y-217223D02*
X186995Y-218961D01*
X185257Y-218961D01*
X183520Y-217223D01*
X183520Y-215486D01*
X185257Y-213748D01*
X186995Y-213748D01*
X188733Y-215486D01*
X188733Y-217223D01*
X184309Y-221646D02*
X180834Y-218171D01*
X179965Y-219040D01*
X179965Y-220778D01*
X182572Y-223384D01*
X179965Y-220778D02*
X178228Y-220778D01*
X178228Y-222515D01*
X180834Y-225122D01*
X179017Y-226939D02*
X170329Y-225201D01*
X170250Y-228755D02*
X173725Y-232231D01*
X170250Y-228755D02*
X167643Y-231362D01*
X167643Y-233099D01*
X170250Y-235706D01*
X167564Y-238392D02*
X165827Y-240129D01*
X167564Y-238392D02*
X167564Y-236654D01*
X165827Y-234916D01*
X164089Y-234916D01*
X162351Y-236654D01*
X162351Y-238392D01*
X163220Y-239260D01*
X166696Y-235785D01*
X161403Y-242815D02*
X157928Y-239340D01*
X161403Y-242815D02*
X161403Y-244552D01*
X157928Y-241077D02*
X159666Y-239340D01*
X155269Y-243736D02*
X152662Y-246343D01*
X155269Y-243736D02*
X157007Y-243736D01*
X158744Y-245474D01*
X158744Y-247212D01*
X156138Y-249818D01*
X149977Y-249028D02*
X148239Y-250766D01*
X148239Y-252504D01*
X150846Y-255110D01*
X153452Y-252504D01*
X153452Y-250766D01*
X151714Y-250766D01*
X149108Y-253373D01*
X147291Y-256927D02*
X143816Y-253452D01*
X147291Y-256927D02*
X147291Y-258665D01*
X143816Y-255189D02*
X145553Y-253452D01*
X142025Y-256980D02*
X144632Y-259586D01*
X144632Y-261324D01*
X142025Y-263930D01*
X138550Y-260455D01*
D11*
X-68500Y-167600D02*
X-170500Y-167600D01*
X-68500Y-167600D02*
X-68500Y-219600D01*
X-170500Y-219600D01*
X-170500Y-167600D01*
D12*
X-164431Y-173569D03*
D10*
X-62747Y-212119D02*
X-62747Y-214577D01*
X-62747Y-213348D02*
X-55375Y-213348D01*
X-55375Y-214577D02*
X-55375Y-212119D01*
X-55375Y-205901D02*
X-56603Y-204672D01*
X-55375Y-205901D02*
X-55375Y-208359D01*
X-56603Y-209587D01*
X-61518Y-209587D01*
X-62747Y-208359D01*
X-62747Y-205901D01*
X-61518Y-204672D01*
X-57832Y-202103D02*
X-55375Y-199646D01*
X-62747Y-199646D01*
X-62747Y-202103D02*
X-62747Y-197188D01*
D11*
X-18800Y-103200D02*
X-18800Y-100200D01*
X-18800Y-103200D02*
X-21800Y-103200D01*
X-18800Y-6200D02*
X-18800Y-3200D01*
X-21800Y-3200D01*
X-115800Y-3200D02*
X-118800Y-3200D01*
X-118800Y-6200D01*
X-118800Y-100200D02*
X-118800Y-103200D01*
X-115800Y-103200D01*
D12*
X-124831Y-102131D03*
D10*
X-6588Y-122119D02*
X-4131Y-122119D01*
X-5360Y-122119D02*
X-5360Y-114747D01*
X-6588Y-114747D02*
X-4131Y-114747D01*
X-12807Y-114747D02*
X-14035Y-115975D01*
X-12807Y-114747D02*
X-10349Y-114747D01*
X-9120Y-115975D01*
X-9120Y-120890D01*
X-10349Y-122119D01*
X-12807Y-122119D01*
X-14035Y-120890D01*
X-16605Y-122119D02*
X-21519Y-122119D01*
X-16605Y-122119D02*
X-21519Y-117204D01*
X-21519Y-115975D01*
X-20291Y-114747D01*
X-17833Y-114747D01*
X-16605Y-115975D01*
D11*
X38000Y-254350D02*
X38000Y-275350D01*
X31000Y-229350D02*
X22000Y-229350D01*
X-22000Y-229350D02*
X-31000Y-229350D01*
X-38000Y-254350D02*
X-38000Y-275350D01*
D10*
X44704Y-214619D02*
X49619Y-207247D01*
X44704Y-207247D02*
X49619Y-214619D01*
X42135Y-209704D02*
X39677Y-207247D01*
X39677Y-214619D01*
X37220Y-214619D02*
X42135Y-214619D01*
X-197217Y-168097D02*
X-198446Y-169325D01*
X-197217Y-168097D02*
X-194760Y-168097D01*
X-193531Y-169325D01*
X-193531Y-174240D01*
X-194760Y-175469D01*
X-197217Y-175469D01*
X-198446Y-174240D01*
X-201015Y-170554D02*
X-203473Y-168097D01*
X-203473Y-175469D01*
X-205930Y-175469D02*
X-201015Y-175469D01*
X-97728Y-276153D02*
X-96499Y-274925D01*
X-94041Y-274925D01*
X-92813Y-276153D01*
X-92813Y-281068D01*
X-94041Y-282297D01*
X-96499Y-282297D01*
X-97728Y-281068D01*
X-100297Y-282297D02*
X-105212Y-282297D01*
X-100297Y-282297D02*
X-105212Y-277382D01*
X-105212Y-276153D01*
X-103983Y-274925D01*
X-101526Y-274925D01*
X-100297Y-276153D01*
X-122375Y-128087D02*
X-129747Y-128087D01*
X-122375Y-128087D02*
X-122375Y-124401D01*
X-123603Y-123172D01*
X-126061Y-123172D01*
X-127290Y-124401D01*
X-127290Y-128087D01*
X-127290Y-125630D02*
X-129747Y-123172D01*
X-129747Y-116917D02*
X-122375Y-116917D01*
X-126061Y-120603D01*
X-126061Y-115688D01*
D11*
X-195350Y-4950D02*
X-206780Y-4950D01*
X-206780Y-119250D01*
X-195350Y-119250D01*
X-169950Y-4950D02*
X-158520Y-4950D01*
X-158520Y-119250D01*
X-169950Y-119250D01*
D10*
X-214155Y-68419D02*
X-219070Y-68419D01*
X-214155Y-68419D02*
X-212927Y-67190D01*
X-212927Y-64733D01*
X-214155Y-63504D01*
X-219070Y-63504D01*
X-220299Y-64733D01*
X-220299Y-67190D01*
X-219070Y-68419D01*
X-217842Y-65962D02*
X-220299Y-63504D01*
X-212927Y-60935D02*
X-212927Y-56020D01*
X-214155Y-56020D01*
X-219070Y-60935D01*
X-220299Y-60935D01*
X-220299Y-56020D01*
X-215384Y-53451D02*
X-212927Y-50993D01*
X-220299Y-50993D01*
X-220299Y-48536D02*
X-220299Y-53451D01*
X-225349Y-129125D02*
X-226578Y-130353D01*
X-225349Y-129125D02*
X-222891Y-129125D01*
X-221663Y-130353D01*
X-221663Y-135268D01*
X-222891Y-136497D01*
X-225349Y-136497D01*
X-226578Y-135268D01*
X-229147Y-130353D02*
X-230376Y-129125D01*
X-232833Y-129125D01*
X-234062Y-130353D01*
X-234062Y-131582D01*
X-232833Y-132811D01*
X-231604Y-132811D01*
X-232833Y-132811D02*
X-234062Y-134040D01*
X-234062Y-135268D01*
X-232833Y-136497D01*
X-230376Y-136497D01*
X-229147Y-135268D01*
X-226546Y9025D02*
X-225317Y10253D01*
X-222860Y10253D01*
X-221631Y9025D01*
X-221631Y4110D01*
X-222860Y2881D01*
X-225317Y2881D01*
X-226546Y4110D01*
X-232801Y2881D02*
X-232801Y10253D01*
X-229115Y6567D01*
X-234030Y6567D01*
X-139219Y13881D02*
X-131847Y13881D01*
X-131847Y17567D01*
X-133075Y18796D01*
X-135533Y18796D01*
X-136762Y17567D01*
X-136762Y13881D01*
X-136762Y16338D02*
X-139219Y18796D01*
X-133075Y21365D02*
X-131847Y22594D01*
X-131847Y25051D01*
X-133075Y26280D01*
X-134304Y26280D01*
X-135533Y25051D01*
X-135533Y23823D01*
X-135533Y25051D02*
X-136762Y26280D01*
X-137990Y26280D01*
X-139219Y25051D01*
X-139219Y22594D01*
X-137990Y21365D01*
D11*
X5000Y-75000D02*
X5033Y-72300D01*
X5132Y-69603D01*
X5298Y-66908D01*
X5530Y-64218D01*
X5827Y-61535D01*
X6191Y-58860D01*
X6619Y-56194D01*
X7114Y-53540D01*
X7673Y-50899D01*
X8297Y-48272D01*
X8985Y-45662D01*
X9737Y-43069D01*
X10552Y-40495D01*
X11430Y-37942D01*
X12371Y-35412D01*
X13373Y-32905D01*
X14437Y-30423D01*
X15561Y-27969D01*
X16745Y-25543D01*
X17989Y-23146D01*
X19290Y-20781D01*
X20650Y-18449D01*
X22066Y-16150D01*
X23538Y-13887D01*
X25066Y-11661D01*
X26647Y-9473D01*
X28282Y-7325D01*
X29969Y-5217D01*
X31707Y-3151D01*
X33495Y-1129D01*
X35333Y849D01*
X37218Y2782D01*
X39151Y4667D01*
X41129Y6505D01*
X43151Y8293D01*
X45217Y10031D01*
X47325Y11718D01*
X49473Y13353D01*
X51661Y14934D01*
X53887Y16462D01*
X56150Y17934D01*
X58449Y19350D01*
X60781Y20710D01*
X63146Y22011D01*
X65543Y23255D01*
X67969Y24439D01*
X70423Y25563D01*
X72905Y26627D01*
X75412Y27629D01*
X77942Y28570D01*
X80495Y29448D01*
X83069Y30263D01*
X85662Y31015D01*
X88272Y31703D01*
X90899Y32327D01*
X93540Y32886D01*
X96194Y33381D01*
X98860Y33809D01*
X101535Y34173D01*
X104218Y34470D01*
X106908Y34702D01*
X109603Y34868D01*
X112300Y34967D01*
X115000Y35000D01*
X117700Y34967D01*
X120397Y34868D01*
X123092Y34702D01*
X125782Y34470D01*
X128465Y34173D01*
X131140Y33809D01*
X133806Y33381D01*
X136460Y32886D01*
X139101Y32327D01*
X141728Y31703D01*
X144338Y31015D01*
X146931Y30263D01*
X149505Y29448D01*
X152058Y28570D01*
X154588Y27629D01*
X157095Y26627D01*
X159577Y25563D01*
X162031Y24439D01*
X164457Y23255D01*
X166854Y22011D01*
X169219Y20710D01*
X171551Y19350D01*
X173850Y17934D01*
X176113Y16462D01*
X178339Y14934D01*
X180527Y13353D01*
X182675Y11718D01*
X184783Y10031D01*
X186849Y8293D01*
X188871Y6505D01*
X190849Y4667D01*
X192782Y2782D01*
X194667Y849D01*
X196505Y-1129D01*
X198293Y-3151D01*
X200031Y-5217D01*
X201718Y-7325D01*
X203353Y-9473D01*
X204934Y-11661D01*
X206462Y-13887D01*
X207934Y-16150D01*
X209350Y-18449D01*
X210710Y-20781D01*
X212011Y-23146D01*
X213255Y-25543D01*
X214439Y-27969D01*
X215563Y-30423D01*
X216627Y-32905D01*
X217629Y-35412D01*
X218570Y-37942D01*
X219448Y-40495D01*
X220263Y-43069D01*
X221015Y-45662D01*
X221703Y-48272D01*
X222327Y-50899D01*
X222886Y-53540D01*
X223381Y-56194D01*
X223809Y-58860D01*
X224173Y-61535D01*
X224470Y-64218D01*
X224702Y-66908D01*
X224868Y-69603D01*
X224967Y-72300D01*
X225000Y-75000D01*
X224967Y-77700D01*
X224868Y-80397D01*
X224702Y-83092D01*
X224470Y-85782D01*
X224173Y-88465D01*
X223809Y-91140D01*
X223381Y-93806D01*
X222886Y-96460D01*
X222327Y-99101D01*
X221703Y-101728D01*
X221015Y-104338D01*
X220263Y-106931D01*
X219448Y-109505D01*
X218570Y-112058D01*
X217629Y-114588D01*
X216627Y-117095D01*
X215563Y-119577D01*
X214439Y-122031D01*
X213255Y-124457D01*
X212011Y-126854D01*
X210710Y-129219D01*
X209350Y-131551D01*
X207934Y-133850D01*
X206462Y-136113D01*
X204934Y-138339D01*
X203353Y-140527D01*
X201718Y-142675D01*
X200031Y-144783D01*
X198293Y-146849D01*
X196505Y-148871D01*
X194667Y-150849D01*
X192782Y-152782D01*
X190849Y-154667D01*
X188871Y-156505D01*
X186849Y-158293D01*
X184783Y-160031D01*
X182675Y-161718D01*
X180527Y-163353D01*
X178339Y-164934D01*
X176113Y-166462D01*
X173850Y-167934D01*
X171551Y-169350D01*
X169219Y-170710D01*
X166854Y-172011D01*
X164457Y-173255D01*
X162031Y-174439D01*
X159577Y-175563D01*
X157095Y-176627D01*
X154588Y-177629D01*
X152058Y-178570D01*
X149505Y-179448D01*
X146931Y-180263D01*
X144338Y-181015D01*
X141728Y-181703D01*
X139101Y-182327D01*
X136460Y-182886D01*
X133806Y-183381D01*
X131140Y-183809D01*
X128465Y-184173D01*
X125782Y-184470D01*
X123092Y-184702D01*
X120397Y-184868D01*
X117700Y-184967D01*
X115000Y-185000D01*
X112300Y-184967D01*
X109603Y-184868D01*
X106908Y-184702D01*
X104218Y-184470D01*
X101535Y-184173D01*
X98860Y-183809D01*
X96194Y-183381D01*
X93540Y-182886D01*
X90899Y-182327D01*
X88272Y-181703D01*
X85662Y-181015D01*
X83069Y-180263D01*
X80495Y-179448D01*
X77942Y-178570D01*
X75412Y-177629D01*
X72905Y-176627D01*
X70423Y-175563D01*
X67969Y-174439D01*
X65543Y-173255D01*
X63146Y-172011D01*
X60781Y-170710D01*
X58449Y-169350D01*
X56150Y-167934D01*
X53887Y-166462D01*
X51661Y-164934D01*
X49473Y-163353D01*
X47325Y-161718D01*
X45217Y-160031D01*
X43151Y-158293D01*
X41129Y-156505D01*
X39151Y-154667D01*
X37218Y-152782D01*
X35333Y-150849D01*
X33495Y-148871D01*
X31707Y-146849D01*
X29969Y-144783D01*
X28282Y-142675D01*
X26647Y-140527D01*
X25066Y-138339D01*
X23538Y-136113D01*
X22066Y-133850D01*
X20650Y-131551D01*
X19290Y-129219D01*
X17989Y-126854D01*
X16745Y-124457D01*
X15561Y-122031D01*
X14437Y-119577D01*
X13373Y-117095D01*
X12371Y-114588D01*
X11430Y-112058D01*
X10552Y-109505D01*
X9737Y-106931D01*
X8985Y-104338D01*
X8297Y-101728D01*
X7673Y-99101D01*
X7114Y-96460D01*
X6619Y-93806D01*
X6191Y-91140D01*
X5827Y-88465D01*
X5530Y-85782D01*
X5298Y-83092D01*
X5132Y-80397D01*
X5033Y-77700D01*
X5000Y-75000D01*
X85000Y-181000D02*
X85000Y-210000D01*
X145000Y-210000D02*
X145000Y-181000D01*
D10*
X74625Y-34587D02*
X67253Y-34587D01*
X74625Y-34587D02*
X74625Y-30901D01*
X73397Y-29672D01*
X72168Y-29672D01*
X70939Y-30901D01*
X69710Y-29672D01*
X68482Y-29672D01*
X67253Y-30901D01*
X67253Y-34587D01*
X70939Y-34587D02*
X70939Y-30901D01*
X72168Y-27103D02*
X74625Y-24646D01*
X67253Y-24646D01*
X67253Y-27103D02*
X67253Y-22188D01*
D11*
X85000Y-210000D02*
X101000Y-210000D01*
X129000Y-210000D02*
X145000Y-210000D01*
D10*
X-56625Y52913D02*
X-63997Y52913D01*
X-56625Y52913D02*
X-56625Y56599D01*
X-57853Y57828D01*
X-60311Y57828D01*
X-61540Y56599D01*
X-61540Y52913D01*
X-61540Y55370D02*
X-63997Y57828D01*
X-59082Y60397D02*
X-56625Y62854D01*
X-63997Y62854D01*
X-63997Y60397D02*
X-63997Y65312D01*
X-59619Y25381D02*
X-52247Y25381D01*
X-52247Y29067D01*
X-53475Y30296D01*
X-55933Y30296D01*
X-57162Y29067D01*
X-57162Y25381D01*
X-57162Y27838D02*
X-59619Y30296D01*
X-59619Y32865D02*
X-59619Y37780D01*
X-59619Y32865D02*
X-54704Y37780D01*
X-53475Y37780D01*
X-52247Y36551D01*
X-52247Y34094D01*
X-53475Y32865D01*
D13*
X118650Y-234350D02*
X119190Y-235198D01*
X119710Y-236059D01*
X120210Y-236931D01*
X120690Y-237815D01*
X121149Y-238710D01*
X121587Y-239615D01*
X122003Y-240530D01*
X122399Y-241455D01*
X122772Y-242389D01*
X123124Y-243331D01*
X123454Y-244281D01*
X123762Y-245238D01*
X124047Y-246202D01*
X124310Y-247173D01*
X124550Y-248150D01*
X124550Y-248151D02*
X124833Y-249384D01*
X125088Y-250624D01*
X125317Y-251868D01*
X125518Y-253118D01*
X125692Y-254371D01*
X125839Y-255628D01*
X125958Y-256888D01*
X126050Y-258150D01*
X126049Y-258150D02*
X126103Y-259012D01*
X126137Y-259875D01*
X126153Y-260738D01*
X126150Y-261602D01*
X126128Y-262465D01*
X126087Y-263328D01*
X126028Y-264189D01*
X125949Y-265049D01*
X72751Y-249450D02*
X72425Y-248474D01*
X72123Y-247491D01*
X71844Y-246500D01*
X71590Y-245503D01*
X71359Y-244500D01*
X71152Y-243493D01*
X70970Y-242480D01*
X70811Y-241463D01*
X70677Y-240443D01*
X70568Y-239420D01*
X70483Y-238395D01*
X70422Y-237367D01*
X70386Y-236339D01*
X70375Y-235310D01*
X70388Y-234281D01*
X70426Y-233253D01*
X70489Y-232226D01*
X70576Y-231201D01*
X70687Y-230178D01*
X70823Y-229158D01*
X70984Y-228142D01*
X71168Y-227130D01*
X71377Y-226122D01*
X71610Y-225120D01*
X71866Y-224123D01*
X72147Y-223133D01*
X72451Y-222150D01*
X105750Y-275249D02*
X106766Y-275025D01*
X107776Y-274776D01*
X108781Y-274503D01*
X109778Y-274207D01*
X110768Y-273886D01*
X111750Y-273543D01*
X112723Y-273176D01*
X113688Y-272785D01*
X114643Y-272373D01*
X115588Y-271937D01*
X116522Y-271479D01*
X117445Y-270999D01*
X118356Y-270497D01*
X119255Y-269974D01*
X120142Y-269429D01*
X121015Y-268864D01*
X121875Y-268278D01*
X122720Y-267671D01*
X123551Y-267045D01*
X124366Y-266399D01*
X125166Y-265734D01*
X125950Y-265050D01*
X105649Y-275250D02*
X104957Y-275391D01*
X104262Y-275516D01*
X103565Y-275627D01*
X102865Y-275722D01*
X102163Y-275802D01*
X101460Y-275867D01*
X100755Y-275916D01*
X100050Y-275950D01*
X99950Y-275950D02*
X99314Y-275998D01*
X98676Y-276033D01*
X98038Y-276054D01*
X97400Y-276061D01*
X96762Y-276054D01*
X96124Y-276033D01*
X95486Y-275998D01*
X94850Y-275950D01*
X93194Y-275835D01*
X91542Y-275682D01*
X89894Y-275490D01*
X88251Y-275260D01*
X86613Y-274991D01*
X84982Y-274685D01*
X83359Y-274341D01*
X81744Y-273959D01*
X80139Y-273539D01*
X78543Y-273083D01*
X76959Y-272589D01*
X75387Y-272059D01*
X73827Y-271492D01*
X72281Y-270889D01*
X70750Y-270250D01*
X70692Y-268575D01*
X70673Y-266900D01*
X70693Y-265225D01*
X70752Y-263550D01*
X70850Y-261878D01*
X70987Y-260208D01*
X71163Y-258541D01*
X71377Y-256880D01*
X71630Y-255223D01*
X71922Y-253573D01*
X72251Y-251931D01*
X72619Y-250296D01*
X73025Y-248671D01*
X73469Y-247055D01*
X73950Y-245450D01*
X89750Y-233650D02*
X89262Y-233038D01*
X88759Y-232438D01*
X88242Y-231850D01*
X87711Y-231274D01*
X87167Y-230712D01*
X86609Y-230162D01*
X86039Y-229626D01*
X85455Y-229104D01*
X84860Y-228596D01*
X84252Y-228102D01*
X83633Y-227623D01*
X83002Y-227159D01*
X82361Y-226710D01*
X81709Y-226277D01*
X81047Y-225859D01*
X80375Y-225457D01*
X79693Y-225072D01*
X79003Y-224703D01*
X78304Y-224350D01*
X77597Y-224014D01*
X76882Y-223696D01*
X76159Y-223394D01*
X75430Y-223110D01*
X74693Y-222843D01*
X73951Y-222594D01*
X73203Y-222363D01*
X72450Y-222150D01*
X89750Y-233650D02*
X89892Y-233549D01*
X90036Y-233451D01*
X90182Y-233357D01*
X90331Y-233267D01*
X90481Y-233180D01*
X90634Y-233096D01*
X90789Y-233017D01*
X90946Y-232941D01*
X91104Y-232869D01*
X91264Y-232800D01*
X91426Y-232736D01*
X91589Y-232675D01*
X91753Y-232618D01*
X91919Y-232566D01*
X92086Y-232517D01*
X92254Y-232472D01*
X92423Y-232431D01*
X92593Y-232395D01*
X92764Y-232362D01*
X92936Y-232334D01*
X93108Y-232309D01*
X93281Y-232289D01*
X93454Y-232273D01*
X93628Y-232261D01*
X93802Y-232253D01*
X93976Y-232249D01*
X94150Y-232250D01*
D14*
X85250Y-228950D02*
X84940Y-228752D01*
X84625Y-228562D01*
X84306Y-228379D01*
X83982Y-228204D01*
X83655Y-228037D01*
X83324Y-227877D01*
X82988Y-227726D01*
X82650Y-227582D01*
X82308Y-227446D01*
X81963Y-227319D01*
X81615Y-227200D01*
X81264Y-227089D01*
X80911Y-226987D01*
X80555Y-226893D01*
X80197Y-226807D01*
X79837Y-226730D01*
X79476Y-226662D01*
X79113Y-226602D01*
X78749Y-226551D01*
X78383Y-226509D01*
X78017Y-226475D01*
X77650Y-226450D01*
D13*
X94151Y-232250D02*
X94727Y-231695D01*
X95316Y-231153D01*
X95918Y-230626D01*
X96533Y-230113D01*
X97159Y-229614D01*
X97797Y-229131D01*
X98447Y-228663D01*
X99107Y-228211D01*
X99778Y-227775D01*
X100459Y-227354D01*
X101150Y-226950D01*
X101731Y-226669D01*
X102319Y-226402D01*
X102914Y-226150D01*
X103514Y-225911D01*
X104120Y-225687D01*
X104730Y-225477D01*
X105346Y-225282D01*
X105966Y-225102D01*
X106590Y-224936D01*
X107218Y-224785D01*
X107850Y-224650D01*
X107727Y-225061D01*
X107594Y-225469D01*
X107452Y-225873D01*
X107300Y-226275D01*
X107139Y-226672D01*
X106968Y-227065D01*
X106788Y-227455D01*
X106599Y-227840D01*
X106400Y-228220D01*
X106193Y-228595D01*
X105977Y-228966D01*
X105752Y-229331D01*
X105518Y-229691D01*
X105276Y-230045D01*
X105025Y-230393D01*
X104766Y-230735D01*
X104500Y-231071D01*
X104225Y-231400D01*
X103942Y-231723D01*
X103652Y-232039D01*
X103355Y-232348D01*
X103050Y-232650D01*
D14*
X80250Y-229350D02*
X80141Y-229161D01*
X80027Y-228975D01*
X79908Y-228792D01*
X79786Y-228612D01*
X79659Y-228434D01*
X79527Y-228260D01*
X79392Y-228089D01*
X79252Y-227922D01*
X79109Y-227757D01*
X78961Y-227597D01*
X78810Y-227440D01*
X78655Y-227287D01*
X78496Y-227137D01*
X78333Y-226991D01*
X78167Y-226850D01*
X77998Y-226712D01*
X77826Y-226579D01*
X77650Y-226450D01*
X103050Y-232650D02*
X103357Y-232570D01*
X103665Y-232498D01*
X103976Y-232433D01*
X104288Y-232375D01*
X104601Y-232326D01*
X104915Y-232284D01*
X105231Y-232250D01*
X105547Y-232223D01*
X105863Y-232204D01*
X106180Y-232193D01*
X106497Y-232190D01*
X106814Y-232194D01*
X107131Y-232207D01*
X107448Y-232227D01*
X107764Y-232254D01*
X108079Y-232290D01*
X108393Y-232333D01*
X108706Y-232383D01*
X109018Y-232442D01*
X109328Y-232508D01*
X109636Y-232581D01*
X109943Y-232662D01*
X110248Y-232751D01*
X110550Y-232847D01*
X110850Y-232950D01*
X80250Y-229350D02*
X79999Y-229125D01*
X79743Y-228905D01*
X79482Y-228692D01*
X79216Y-228485D01*
X78944Y-228285D01*
X78669Y-228091D01*
X78388Y-227903D01*
X78103Y-227723D01*
X77814Y-227549D01*
X77521Y-227382D01*
X77224Y-227222D01*
X76924Y-227069D01*
X76619Y-226924D01*
X76312Y-226786D01*
X76001Y-226655D01*
X75687Y-226531D01*
X75370Y-226415D01*
X75051Y-226307D01*
X74729Y-226206D01*
X74405Y-226113D01*
X74079Y-226028D01*
X73750Y-225950D01*
X73749Y-225950D02*
X73581Y-226316D01*
X73422Y-226685D01*
X73272Y-227058D01*
X73132Y-227435D01*
X73000Y-227815D01*
X72877Y-228198D01*
X72764Y-228583D01*
X72660Y-228972D01*
X72566Y-229363D01*
X72481Y-229756D01*
X72406Y-230151D01*
X72340Y-230548D01*
X72284Y-230946D01*
X72238Y-231345D01*
X72201Y-231745D01*
X72174Y-232147D01*
X72157Y-232548D01*
X72149Y-232950D01*
X78550Y-236250D02*
X78618Y-236147D01*
X78689Y-236046D01*
X78763Y-235947D01*
X78839Y-235850D01*
X78919Y-235755D01*
X79001Y-235663D01*
X79086Y-235573D01*
X79173Y-235486D01*
X79263Y-235401D01*
X79355Y-235319D01*
X79450Y-235239D01*
X79547Y-235163D01*
X79646Y-235089D01*
X79747Y-235018D01*
X79850Y-234950D01*
X79849Y-234950D02*
X79751Y-234580D01*
X79645Y-234213D01*
X79529Y-233848D01*
X79405Y-233486D01*
X79272Y-233128D01*
X79130Y-232772D01*
X78980Y-232420D01*
X78822Y-232072D01*
X78655Y-231728D01*
X78480Y-231387D01*
X78297Y-231052D01*
X78105Y-230720D01*
X77906Y-230393D01*
X77699Y-230072D01*
X77484Y-229755D01*
X77262Y-229443D01*
X77033Y-229137D01*
X76796Y-228837D01*
X76551Y-228542D01*
X76300Y-228254D01*
X76042Y-227971D01*
X75778Y-227695D01*
X75506Y-227425D01*
X75229Y-227162D01*
X74945Y-226906D01*
X74654Y-226656D01*
X74358Y-226414D01*
X74057Y-226178D01*
X73749Y-225951D01*
X105550Y-235650D02*
X105817Y-235590D01*
X106082Y-235524D01*
X106346Y-235451D01*
X106608Y-235372D01*
X106868Y-235287D01*
X107126Y-235196D01*
X107381Y-235098D01*
X107634Y-234995D01*
X107885Y-234886D01*
X108133Y-234770D01*
X108378Y-234649D01*
X108620Y-234522D01*
X108859Y-234389D01*
X109095Y-234251D01*
X109328Y-234107D01*
X109557Y-233957D01*
X109782Y-233802D01*
X110004Y-233642D01*
X110222Y-233477D01*
X110435Y-233306D01*
X110645Y-233131D01*
X110850Y-232950D01*
X105551Y-235650D02*
X105643Y-235779D01*
X105733Y-235910D01*
X105820Y-236043D01*
X105903Y-236178D01*
X105983Y-236315D01*
X106059Y-236454D01*
X106132Y-236595D01*
X106202Y-236738D01*
X106268Y-236882D01*
X106330Y-237028D01*
X106389Y-237175D01*
X106444Y-237324D01*
X106496Y-237474D01*
X106543Y-237625D01*
X106588Y-237778D01*
X106628Y-237931D01*
X106665Y-238085D01*
X106697Y-238241D01*
X106726Y-238397D01*
X106751Y-238553D01*
X106773Y-238711D01*
X106790Y-238868D01*
X106804Y-239026D01*
X106813Y-239185D01*
X106819Y-239343D01*
X106821Y-239502D01*
X106819Y-239661D01*
X106813Y-239819D01*
X106803Y-239978D01*
X106790Y-240136D01*
X106772Y-240293D01*
X106751Y-240451D01*
X106750Y-240450D02*
X106247Y-240135D01*
X105737Y-239832D01*
X105221Y-239539D01*
X104698Y-239258D01*
X104169Y-238989D01*
X103635Y-238731D01*
X103095Y-238485D01*
X102550Y-238250D01*
D13*
X104950Y-230549D02*
X105800Y-230521D01*
X106650Y-230512D01*
X107500Y-230521D01*
X108350Y-230549D01*
D14*
X99150Y-245950D02*
X99698Y-246547D01*
X100231Y-247157D01*
X100751Y-247779D01*
X101255Y-248413D01*
X101745Y-249059D01*
X102220Y-249716D01*
X102679Y-250384D01*
X103122Y-251062D01*
X103550Y-251750D01*
D13*
X108350Y-230550D02*
X108620Y-229940D01*
X108904Y-229336D01*
X109203Y-228740D01*
X109515Y-228150D01*
X109841Y-227568D01*
X110181Y-226994D01*
X110534Y-226428D01*
X110901Y-225871D01*
X111280Y-225322D01*
X111673Y-224783D01*
X112078Y-224252D01*
X112495Y-223732D01*
X112924Y-223221D01*
X113366Y-222721D01*
X113819Y-222231D01*
X114283Y-221752D01*
X114759Y-221285D01*
X115245Y-220828D01*
X115743Y-220383D01*
X116250Y-219950D01*
X116641Y-220681D01*
X117014Y-221421D01*
X117369Y-222169D01*
X117707Y-222926D01*
X118026Y-223690D01*
X118327Y-224462D01*
X118610Y-225241D01*
X118874Y-226026D01*
X119119Y-226818D01*
X119345Y-227615D01*
X119552Y-228417D01*
X119740Y-229224D01*
X119909Y-230035D01*
X120059Y-230850D01*
X120189Y-231668D01*
X120299Y-232489D01*
X120390Y-233313D01*
X120462Y-234138D01*
X120514Y-234965D01*
X120546Y-235793D01*
X120558Y-236622D01*
X120550Y-237450D01*
D14*
X108350Y-230550D02*
X108910Y-229785D01*
X109489Y-229034D01*
X110085Y-228296D01*
X110699Y-227574D01*
X111329Y-226865D01*
X111976Y-226173D01*
X112640Y-225495D01*
X113320Y-224834D01*
X114015Y-224189D01*
X114725Y-223561D01*
X115450Y-222950D01*
X115357Y-223148D01*
X115269Y-223348D01*
X115186Y-223551D01*
X115108Y-223755D01*
X115034Y-223961D01*
X114966Y-224169D01*
X114903Y-224378D01*
X114845Y-224589D01*
X114792Y-224801D01*
X114744Y-225014D01*
X114701Y-225229D01*
X114664Y-225444D01*
X114632Y-225661D01*
X114605Y-225878D01*
X114583Y-226095D01*
X114567Y-226313D01*
X114556Y-226532D01*
X114550Y-226750D01*
X114549Y-226750D02*
X114724Y-226444D01*
X114906Y-226143D01*
X115095Y-225846D01*
X115291Y-225554D01*
X115494Y-225266D01*
X115703Y-224984D01*
X115920Y-224706D01*
X116143Y-224434D01*
X116372Y-224167D01*
X116607Y-223905D01*
X116849Y-223650D01*
X116850Y-223650D02*
X116609Y-224168D01*
X116380Y-224693D01*
X116164Y-225222D01*
X115960Y-225757D01*
X115770Y-226296D01*
X115592Y-226840D01*
X115428Y-227388D01*
X115277Y-227939D01*
X115139Y-228494D01*
X115014Y-229052D01*
X114903Y-229613D01*
X114805Y-230177D01*
X114721Y-230743D01*
X114650Y-231310D01*
X114594Y-231879D01*
X114550Y-232450D01*
X118550Y-229851D02*
X118397Y-229061D01*
X118227Y-228274D01*
X118039Y-227492D01*
X117835Y-226713D01*
X117614Y-225940D01*
X117376Y-225171D01*
X117121Y-224408D01*
X116850Y-223651D01*
X109350Y-248950D02*
X109216Y-249194D01*
X109087Y-249442D01*
X108964Y-249692D01*
X108846Y-249946D01*
X108735Y-250202D01*
X108630Y-250460D01*
X108530Y-250721D01*
X108437Y-250984D01*
X108350Y-251250D01*
D13*
X113950Y-248051D02*
X114333Y-247577D01*
X114705Y-247095D01*
X115066Y-246604D01*
X115416Y-246105D01*
X115754Y-245598D01*
X116079Y-245083D01*
X116393Y-244561D01*
X116695Y-244032D01*
X116984Y-243496D01*
X117260Y-242953D01*
X117524Y-242404D01*
X117775Y-241849D01*
X118013Y-241288D01*
X118238Y-240722D01*
X118450Y-240150D01*
X113950Y-248050D02*
X113445Y-248623D01*
X112926Y-249184D01*
X112394Y-249732D01*
X111850Y-250268D01*
X111293Y-250791D01*
X110725Y-251301D01*
X110144Y-251798D01*
X109553Y-252281D01*
X108950Y-252750D01*
X119750Y-245750D02*
X119642Y-245039D01*
X119517Y-244330D01*
X119378Y-243625D01*
X119223Y-242922D01*
X119052Y-242223D01*
X118867Y-241528D01*
X118666Y-240837D01*
X118450Y-240150D01*
X119750Y-245750D02*
X119770Y-248050D01*
X119750Y-250350D01*
X119719Y-250600D01*
X119682Y-250849D01*
X119639Y-251097D01*
X119590Y-251344D01*
X119535Y-251590D01*
X119475Y-251835D01*
X119408Y-252078D01*
X119336Y-252319D01*
X119258Y-252559D01*
X119175Y-252796D01*
X119085Y-253032D01*
X118991Y-253265D01*
X118890Y-253496D01*
X118785Y-253725D01*
X118674Y-253951D01*
X118557Y-254174D01*
X118435Y-254395D01*
X118308Y-254612D01*
X118176Y-254826D01*
X118039Y-255038D01*
X117897Y-255246D01*
X117750Y-255450D01*
X117749Y-255450D02*
X117605Y-255603D01*
X117457Y-255752D01*
X117305Y-255898D01*
X117150Y-256040D01*
X116992Y-256179D01*
X116830Y-256314D01*
X116666Y-256445D01*
X116498Y-256572D01*
X116328Y-256696D01*
X116155Y-256815D01*
X115979Y-256930D01*
X115800Y-257041D01*
X115619Y-257148D01*
X115435Y-257251D01*
X115250Y-257350D01*
X115250Y-257349D02*
X115106Y-257402D01*
X114961Y-257451D01*
X114814Y-257497D01*
X114666Y-257538D01*
X114518Y-257576D01*
X114368Y-257611D01*
X114218Y-257641D01*
X114067Y-257668D01*
X113915Y-257691D01*
X113763Y-257710D01*
X113610Y-257726D01*
X113457Y-257738D01*
X113304Y-257745D01*
X113150Y-257749D01*
X113150Y-257751D02*
X113004Y-257703D01*
X112860Y-257651D01*
X112717Y-257596D01*
X112575Y-257538D01*
X112435Y-257475D01*
X112297Y-257410D01*
X112160Y-257340D01*
X112025Y-257268D01*
X111892Y-257192D01*
X111761Y-257112D01*
X111632Y-257030D01*
X111506Y-256944D01*
X111381Y-256855D01*
X111258Y-256763D01*
X111138Y-256668D01*
X111021Y-256569D01*
X110906Y-256468D01*
X110793Y-256364D01*
X110683Y-256258D01*
X110576Y-256148D01*
X110472Y-256036D01*
X110370Y-255921D01*
X110272Y-255804D01*
X110176Y-255684D01*
X110084Y-255562D01*
X109994Y-255437D01*
X109908Y-255311D01*
X109825Y-255182D01*
X109746Y-255051D01*
X109669Y-254918D01*
X109596Y-254784D01*
X109526Y-254647D01*
X109460Y-254509D01*
X109398Y-254369D01*
X109338Y-254228D01*
X109283Y-254085D01*
X109231Y-253941D01*
X109183Y-253796D01*
X109138Y-253649D01*
X109097Y-253501D01*
X109060Y-253353D01*
X109027Y-253203D01*
X108997Y-253053D01*
X108971Y-252902D01*
X108949Y-252750D01*
D14*
X115651Y-249950D02*
X115607Y-248649D01*
X115540Y-247349D01*
X115451Y-246050D01*
X115650Y-249950D02*
X115621Y-250277D01*
X115584Y-250602D01*
X115540Y-250927D01*
X115487Y-251250D01*
X115426Y-251572D01*
X115358Y-251893D01*
X115282Y-252212D01*
X115198Y-252529D01*
X115107Y-252843D01*
X115008Y-253156D01*
X114901Y-253466D01*
X114787Y-253773D01*
X114666Y-254077D01*
X114537Y-254379D01*
X114401Y-254677D01*
X114258Y-254972D01*
X114108Y-255263D01*
X113950Y-255550D01*
X113950Y-255549D02*
X113829Y-255429D01*
X113710Y-255306D01*
X113595Y-255179D01*
X113483Y-255050D01*
X113374Y-254919D01*
X113269Y-254784D01*
X113166Y-254648D01*
X113067Y-254508D01*
X112972Y-254367D01*
X112880Y-254223D01*
X112791Y-254076D01*
X112706Y-253928D01*
X112625Y-253778D01*
X112547Y-253626D01*
X112474Y-253472D01*
X112404Y-253316D01*
X112337Y-253158D01*
X112275Y-252999D01*
X112217Y-252838D01*
X112162Y-252677D01*
X112112Y-252513D01*
X112065Y-252349D01*
X112023Y-252183D01*
X111984Y-252017D01*
X111950Y-251850D01*
X111943Y-251650D01*
X111940Y-251449D01*
X111942Y-251248D01*
X111948Y-251048D01*
X111959Y-250848D01*
X111975Y-250647D01*
X111996Y-250448D01*
X112021Y-250249D01*
X112050Y-250050D01*
X110750Y-265850D02*
X110676Y-265928D01*
X110600Y-266004D01*
X110521Y-266077D01*
X110440Y-266146D01*
X110356Y-266213D01*
X110269Y-266277D01*
X110181Y-266338D01*
X110091Y-266396D01*
X109998Y-266451D01*
X109904Y-266502D01*
X109808Y-266551D01*
X109710Y-266595D01*
X109611Y-266637D01*
X109511Y-266674D01*
X109409Y-266709D01*
X109306Y-266739D01*
X109202Y-266767D01*
X109098Y-266790D01*
X108992Y-266810D01*
X108886Y-266826D01*
X108779Y-266838D01*
X108672Y-266847D01*
X108565Y-266852D01*
X108458Y-266853D01*
X108350Y-266850D01*
X108241Y-266830D01*
X108134Y-266807D01*
X108027Y-266780D01*
X107922Y-266749D01*
X107818Y-266714D01*
X107714Y-266676D01*
X107613Y-266634D01*
X107512Y-266589D01*
X107414Y-266540D01*
X107317Y-266488D01*
X107222Y-266433D01*
X107129Y-266374D01*
X107038Y-266312D01*
X106950Y-266247D01*
X106863Y-266179D01*
X106780Y-266108D01*
X106698Y-266034D01*
X106619Y-265957D01*
X106544Y-265878D01*
X106470Y-265796D01*
X106400Y-265711D01*
X106333Y-265624D01*
X106269Y-265535D01*
X106208Y-265443D01*
X106150Y-265350D01*
X106077Y-265430D01*
X106001Y-265506D01*
X105923Y-265580D01*
X105842Y-265651D01*
X105758Y-265719D01*
X105672Y-265784D01*
X105583Y-265846D01*
X105493Y-265905D01*
X105400Y-265960D01*
X105306Y-266012D01*
X105209Y-266060D01*
X105111Y-266105D01*
X105011Y-266146D01*
X104910Y-266184D01*
X104808Y-266218D01*
X104704Y-266248D01*
X104600Y-266274D01*
X104494Y-266297D01*
X104388Y-266315D01*
X104281Y-266330D01*
X104174Y-266341D01*
X104066Y-266348D01*
X103958Y-266351D01*
X103850Y-266350D01*
X103850Y-266349D02*
X103751Y-266336D01*
X103653Y-266318D01*
X103555Y-266297D01*
X103458Y-266272D01*
X103362Y-266244D01*
X103267Y-266212D01*
X103174Y-266176D01*
X103082Y-266137D01*
X102992Y-266094D01*
X102903Y-266048D01*
X102816Y-265999D01*
X102731Y-265947D01*
X102648Y-265891D01*
X102567Y-265832D01*
X102488Y-265770D01*
X102412Y-265705D01*
X102338Y-265638D01*
X102267Y-265567D01*
X102199Y-265494D01*
X102133Y-265419D01*
X102071Y-265341D01*
X102011Y-265261D01*
X101954Y-265178D01*
X101901Y-265094D01*
X101851Y-265007D01*
X101804Y-264919D01*
X101760Y-264829D01*
X101720Y-264737D01*
X101684Y-264644D01*
X101650Y-264550D01*
X108550Y-269150D02*
X108643Y-269079D01*
X108733Y-269004D01*
X108821Y-268926D01*
X108906Y-268846D01*
X108989Y-268762D01*
X109068Y-268676D01*
X109145Y-268587D01*
X109218Y-268496D01*
X109289Y-268402D01*
X109356Y-268306D01*
X109420Y-268208D01*
X109481Y-268108D01*
X109538Y-268006D01*
X109592Y-267901D01*
X109643Y-267795D01*
X109689Y-267688D01*
X109732Y-267579D01*
X109772Y-267468D01*
X109808Y-267357D01*
X109839Y-267244D01*
X109868Y-267130D01*
X109892Y-267015D01*
X109912Y-266900D01*
X109929Y-266784D01*
X109941Y-266667D01*
X109950Y-266550D01*
X108350Y-266850D02*
X108400Y-266940D01*
X108446Y-267033D01*
X108489Y-267127D01*
X108529Y-267223D01*
X108565Y-267320D01*
X108597Y-267419D01*
X108625Y-267519D01*
X108649Y-267619D01*
X108670Y-267721D01*
X108687Y-267823D01*
X108700Y-267926D01*
X108709Y-268029D01*
X108714Y-268133D01*
X108715Y-268236D01*
X108712Y-268340D01*
X108705Y-268443D01*
X108695Y-268546D01*
X108680Y-268649D01*
X108662Y-268751D01*
X108639Y-268852D01*
X108613Y-268952D01*
X108583Y-269051D01*
X108550Y-269149D01*
D13*
X103950Y-254451D02*
X102661Y-253638D01*
X101353Y-252856D01*
X100026Y-252107D01*
X98681Y-251390D01*
X97320Y-250706D01*
X95942Y-250054D01*
X94549Y-249437D01*
X93141Y-248853D01*
X91720Y-248304D01*
X90286Y-247790D01*
X88839Y-247310D01*
X87382Y-246865D01*
X85914Y-246456D01*
X84437Y-246083D01*
X82951Y-245745D01*
X81457Y-245444D01*
X79956Y-245179D01*
X78450Y-244951D01*
X99350Y-260849D02*
X99675Y-260551D01*
X99994Y-260245D01*
X100304Y-259932D01*
X100607Y-259611D01*
X100902Y-259283D01*
X101189Y-258947D01*
X101468Y-258605D01*
X101738Y-258256D01*
X102000Y-257901D01*
X102254Y-257540D01*
X102498Y-257172D01*
X102733Y-256799D01*
X102960Y-256420D01*
X103177Y-256036D01*
X103384Y-255646D01*
X103583Y-255252D01*
X103771Y-254853D01*
X103950Y-254449D01*
X99350Y-260850D02*
X99094Y-261067D01*
X98833Y-261277D01*
X98566Y-261481D01*
X98295Y-261678D01*
X98020Y-261869D01*
X97740Y-262053D01*
X97455Y-262231D01*
X97166Y-262401D01*
X96874Y-262565D01*
X96577Y-262721D01*
X96277Y-262870D01*
X95973Y-263012D01*
X95666Y-263147D01*
X95356Y-263274D01*
X95042Y-263394D01*
X94726Y-263506D01*
X94408Y-263610D01*
X94087Y-263707D01*
X93764Y-263796D01*
X93438Y-263877D01*
X93111Y-263951D01*
X92782Y-264016D01*
X92452Y-264073D01*
X92120Y-264123D01*
X91788Y-264165D01*
X91454Y-264198D01*
X91120Y-264223D01*
X90785Y-264241D01*
X90450Y-264250D01*
X90179Y-264229D01*
X89907Y-264203D01*
X89637Y-264169D01*
X89367Y-264129D01*
X89098Y-264083D01*
X88831Y-264030D01*
X88565Y-263971D01*
X88300Y-263905D01*
X88037Y-263833D01*
X87776Y-263755D01*
X87517Y-263670D01*
X87260Y-263580D01*
X87005Y-263483D01*
X86752Y-263380D01*
X86502Y-263270D01*
X86255Y-263155D01*
X86011Y-263034D01*
X85770Y-262908D01*
X85531Y-262775D01*
X85296Y-262637D01*
X85065Y-262493D01*
X84837Y-262343D01*
X84612Y-262188D01*
X84392Y-262028D01*
X84175Y-261863D01*
X83963Y-261692D01*
X83754Y-261516D01*
X83550Y-261335D01*
X83350Y-261150D01*
X83065Y-260855D01*
X82787Y-260554D01*
X82516Y-260246D01*
X82252Y-259932D01*
X81996Y-259612D01*
X81748Y-259286D01*
X81507Y-258954D01*
X81274Y-258616D01*
X81050Y-258273D01*
X80834Y-257925D01*
X80626Y-257572D01*
X80426Y-257213D01*
X80236Y-256851D01*
X80053Y-256483D01*
X79880Y-256112D01*
X79716Y-255736D01*
X79560Y-255357D01*
X79414Y-254974D01*
X79276Y-254587D01*
X79148Y-254198D01*
X79030Y-253806D01*
X78920Y-253410D01*
X78821Y-253013D01*
X78730Y-252613D01*
X78649Y-252211D01*
X78578Y-251807D01*
X78516Y-251402D01*
X78464Y-250995D01*
X78422Y-250587D01*
X78389Y-250179D01*
X78367Y-249769D01*
X78353Y-249360D01*
X78350Y-248950D01*
X78349Y-248951D02*
X78324Y-248450D01*
X78309Y-247950D01*
X78305Y-247449D01*
X78312Y-246948D01*
X78330Y-246448D01*
X78359Y-245948D01*
X78399Y-245449D01*
X78449Y-244950D01*
D14*
X95551Y-251050D02*
X95486Y-251408D01*
X95412Y-251765D01*
X95330Y-252120D01*
X95239Y-252472D01*
X95140Y-252823D01*
X95033Y-253171D01*
X94918Y-253516D01*
X94794Y-253859D01*
X94662Y-254198D01*
X94522Y-254534D01*
X94375Y-254867D01*
X94219Y-255196D01*
X94056Y-255522D01*
X93884Y-255843D01*
X93706Y-256161D01*
X93519Y-256473D01*
X93326Y-256782D01*
X93125Y-257086D01*
X92917Y-257384D01*
X92702Y-257678D01*
X92479Y-257967D01*
X92251Y-258250D01*
X92250Y-258250D02*
X92215Y-258084D01*
X92176Y-257920D01*
X92132Y-257757D01*
X92085Y-257594D01*
X92034Y-257433D01*
X91979Y-257273D01*
X91920Y-257115D01*
X91858Y-256958D01*
X91792Y-256803D01*
X91722Y-256649D01*
X91648Y-256497D01*
X91571Y-256346D01*
X91490Y-256198D01*
X91405Y-256052D01*
X91317Y-255907D01*
X91226Y-255765D01*
X91131Y-255625D01*
X91033Y-255488D01*
X90931Y-255353D01*
X90827Y-255220D01*
X90719Y-255090D01*
X90608Y-254962D01*
X90494Y-254838D01*
X90377Y-254716D01*
X90257Y-254597D01*
X90135Y-254480D01*
X90009Y-254367D01*
X89881Y-254257D01*
X89750Y-254150D01*
X89751Y-254150D02*
X89682Y-254420D01*
X89620Y-254692D01*
X89564Y-254966D01*
X89515Y-255241D01*
X89473Y-255516D01*
X89437Y-255793D01*
X89408Y-256071D01*
X89386Y-256349D01*
X89370Y-256628D01*
X89361Y-256907D01*
X89359Y-257186D01*
X89364Y-257465D01*
X89375Y-257744D01*
X89393Y-258022D01*
X89417Y-258300D01*
X89449Y-258578D01*
X89487Y-258854D01*
X89531Y-259130D01*
X89583Y-259404D01*
X89640Y-259677D01*
X89705Y-259949D01*
X89776Y-260219D01*
X89853Y-260487D01*
X89937Y-260753D01*
X90027Y-261017D01*
X90124Y-261279D01*
X90227Y-261538D01*
X90336Y-261795D01*
X90451Y-262050D01*
X90450Y-262050D02*
X90240Y-261811D01*
X90036Y-261566D01*
X89838Y-261317D01*
X89646Y-261062D01*
X89460Y-260803D01*
X89281Y-260540D01*
X89108Y-260272D01*
X88942Y-260000D01*
X88783Y-259725D01*
X88630Y-259445D01*
X88484Y-259162D01*
X88345Y-258875D01*
X88213Y-258585D01*
X88088Y-258292D01*
X87970Y-257996D01*
X87860Y-257697D01*
X87757Y-257396D01*
X87661Y-257092D01*
X87573Y-256786D01*
X87492Y-256478D01*
X87418Y-256168D01*
X87353Y-255856D01*
X87295Y-255543D01*
X87244Y-255228D01*
X87201Y-254913D01*
X87166Y-254596D01*
X87139Y-254278D01*
X87119Y-253961D01*
X87107Y-253642D01*
X87103Y-253324D01*
X87107Y-253005D01*
X87118Y-252687D01*
X87137Y-252369D01*
X87164Y-252051D01*
X87198Y-251734D01*
X87241Y-251419D01*
X87291Y-251104D01*
X87348Y-250791D01*
X87413Y-250479D01*
X87486Y-250169D01*
X87567Y-249860D01*
X87654Y-249554D01*
X87750Y-249250D01*
X88089Y-249476D01*
X88423Y-249710D01*
X88751Y-249952D01*
X89073Y-250201D01*
X89389Y-250458D01*
X89699Y-250722D01*
X90002Y-250994D01*
X90299Y-251273D01*
X90590Y-251558D01*
X90873Y-251851D01*
X91150Y-252150D01*
X91149Y-252150D02*
X91201Y-251798D01*
X91243Y-251445D01*
X91278Y-251091D01*
X91304Y-250736D01*
X91321Y-250381D01*
X91331Y-250025D01*
X91331Y-249670D01*
X91323Y-249314D01*
X91307Y-248959D01*
X91282Y-248604D01*
X91249Y-248250D01*
D13*
X109150Y-274350D02*
X109230Y-274914D01*
X109296Y-275480D01*
X109348Y-276047D01*
X109388Y-276616D01*
X109414Y-277185D01*
X109427Y-277754D01*
X109427Y-278324D01*
X109414Y-278894D01*
X109387Y-279463D01*
X109347Y-280031D01*
X109294Y-280598D01*
X109228Y-281164D01*
X109149Y-281728D01*
X109056Y-282290D01*
X108950Y-282850D01*
X108923Y-282704D01*
X108892Y-282559D01*
X108857Y-282414D01*
X108819Y-282270D01*
X108777Y-282128D01*
X108732Y-281986D01*
X108683Y-281846D01*
X108630Y-281706D01*
X108575Y-281569D01*
X108515Y-281432D01*
X108453Y-281297D01*
X108387Y-281164D01*
X108317Y-281032D01*
X108245Y-280903D01*
X108169Y-280775D01*
X108090Y-280649D01*
X108008Y-280525D01*
X107923Y-280403D01*
X107835Y-280283D01*
X107744Y-280165D01*
X107650Y-280050D01*
X107449Y-279250D02*
X107487Y-279386D01*
X107521Y-279524D01*
X107551Y-279663D01*
X107578Y-279802D01*
X107600Y-279942D01*
X107619Y-280083D01*
X107634Y-280224D01*
X107645Y-280365D01*
X107652Y-280507D01*
X107656Y-280649D01*
X107655Y-280790D01*
X107651Y-280932D01*
X107643Y-281074D01*
X107631Y-281215D01*
X107615Y-281356D01*
X107595Y-281496D01*
X107571Y-281636D01*
X107544Y-281775D01*
X107513Y-281914D01*
X107478Y-282051D01*
X107439Y-282188D01*
X107397Y-282323D01*
X107351Y-282457D01*
X107301Y-282590D01*
X107248Y-282721D01*
X107191Y-282851D01*
X107130Y-282980D01*
X107066Y-283106D01*
X106999Y-283231D01*
X106928Y-283354D01*
X106854Y-283475D01*
X106777Y-283594D01*
X106697Y-283711D01*
X106613Y-283825D01*
X106526Y-283938D01*
X106436Y-284047D01*
X106344Y-284155D01*
X106248Y-284259D01*
X106150Y-284362D01*
X106048Y-284461D01*
X105945Y-284558D01*
X105838Y-284651D01*
X105729Y-284742D01*
X105618Y-284830D01*
X105504Y-284915D01*
X105388Y-284996D01*
X105270Y-285074D01*
X105149Y-285150D01*
X105550Y-284850D02*
X105570Y-284709D01*
X105586Y-284568D01*
X105599Y-284426D01*
X105608Y-284284D01*
X105613Y-284141D01*
X105615Y-283999D01*
X105613Y-283857D01*
X105607Y-283714D01*
X105597Y-283572D01*
X105584Y-283430D01*
X105567Y-283289D01*
X105546Y-283148D01*
X105522Y-283008D01*
X105494Y-282868D01*
X105462Y-282729D01*
X105427Y-282591D01*
X105388Y-282454D01*
X105345Y-282319D01*
X105299Y-282184D01*
X105250Y-282050D01*
X105228Y-282135D01*
X105203Y-282219D01*
X105174Y-282302D01*
X105142Y-282383D01*
X105107Y-282463D01*
X105068Y-282542D01*
X105026Y-282618D01*
X104981Y-282693D01*
X104933Y-282766D01*
X104882Y-282837D01*
X104828Y-282906D01*
X104771Y-282973D01*
X104711Y-283037D01*
X104649Y-283098D01*
X104584Y-283157D01*
X104517Y-283213D01*
X104448Y-283267D01*
X104376Y-283317D01*
X104303Y-283365D01*
X104227Y-283409D01*
X104150Y-283450D01*
X107050Y-283150D02*
X107067Y-283996D01*
X107064Y-284842D01*
X107041Y-285688D01*
X106999Y-286533D01*
X106937Y-287377D01*
X106856Y-288220D01*
X106755Y-289060D01*
X106634Y-289897D01*
X106494Y-290732D01*
X106334Y-291563D01*
X106156Y-292390D01*
X105958Y-293213D01*
X105741Y-294031D01*
X105505Y-294843D01*
X105250Y-295650D01*
X105251Y-295651D02*
X105181Y-295767D01*
X105109Y-295880D01*
X105033Y-295992D01*
X104954Y-296102D01*
X104872Y-296209D01*
X104786Y-296314D01*
X104698Y-296416D01*
X104607Y-296516D01*
X104513Y-296613D01*
X104416Y-296707D01*
X104316Y-296798D01*
X104214Y-296886D01*
X104109Y-296972D01*
X104002Y-297054D01*
X103892Y-297133D01*
X103780Y-297209D01*
X103667Y-297281D01*
X103551Y-297351D01*
X103550Y-297350D02*
X102675Y-297378D01*
X101800Y-297388D01*
X100925Y-297378D01*
X100050Y-297350D01*
X100049Y-297350D02*
X99997Y-297284D01*
X99947Y-297216D01*
X99901Y-297145D01*
X99858Y-297073D01*
X99818Y-296999D01*
X99782Y-296922D01*
X99749Y-296845D01*
X99720Y-296765D01*
X99694Y-296685D01*
X99673Y-296603D01*
X99655Y-296521D01*
X99640Y-296438D01*
X99630Y-296354D01*
X99624Y-296270D01*
X99621Y-296186D01*
X99622Y-296101D01*
X99627Y-296017D01*
X99636Y-295933D01*
X99649Y-295850D01*
X99650Y-295850D02*
X99902Y-294971D01*
X100133Y-294086D01*
X100343Y-293196D01*
X100532Y-292302D01*
X100699Y-291403D01*
X100845Y-290500D01*
X100970Y-289595D01*
X101072Y-288686D01*
X101153Y-287775D01*
X101213Y-286863D01*
X101250Y-285950D01*
X101198Y-286522D01*
X101132Y-287092D01*
X101052Y-287660D01*
X100959Y-288226D01*
X100852Y-288790D01*
X100731Y-289351D01*
X100596Y-289909D01*
X100448Y-290464D01*
X100287Y-291014D01*
X100112Y-291561D01*
X99925Y-292103D01*
X99724Y-292641D01*
X99510Y-293173D01*
X99283Y-293701D01*
X99044Y-294222D01*
X98792Y-294738D01*
X98527Y-295247D01*
X98250Y-295750D01*
X98165Y-295865D01*
X98077Y-295977D01*
X97986Y-296087D01*
X97892Y-296195D01*
X97796Y-296300D01*
X97697Y-296403D01*
X97595Y-296503D01*
X97491Y-296601D01*
X97384Y-296696D01*
X97275Y-296788D01*
X97163Y-296877D01*
X97050Y-296963D01*
X96934Y-297047D01*
X96816Y-297127D01*
X96696Y-297205D01*
X96574Y-297279D01*
X96450Y-297350D01*
X96371Y-297385D01*
X96290Y-297418D01*
X96208Y-297447D01*
X96125Y-297473D01*
X96041Y-297495D01*
X95956Y-297514D01*
X95871Y-297530D01*
X95784Y-297542D01*
X95698Y-297550D01*
X95611Y-297555D01*
X95524Y-297557D01*
X95437Y-297555D01*
X95350Y-297550D01*
X95240Y-297534D01*
X95130Y-297514D01*
X95021Y-297490D01*
X94913Y-297462D01*
X94806Y-297430D01*
X94700Y-297394D01*
X94596Y-297355D01*
X94493Y-297312D01*
X94391Y-297265D01*
X94292Y-297215D01*
X94194Y-297161D01*
X94098Y-297104D01*
X94005Y-297043D01*
X93913Y-296979D01*
X93824Y-296912D01*
X93737Y-296842D01*
X93653Y-296768D01*
X93572Y-296692D01*
X93493Y-296613D01*
X93417Y-296531D01*
X93345Y-296446D01*
X93275Y-296359D01*
X93208Y-296270D01*
X93145Y-296178D01*
X93085Y-296084D01*
X93028Y-295988D01*
X92975Y-295890D01*
X92926Y-295790D01*
X92880Y-295688D01*
X92837Y-295585D01*
X92799Y-295480D01*
X92764Y-295374D01*
X92733Y-295267D01*
X92705Y-295159D01*
X92682Y-295050D01*
X92663Y-294940D01*
X92647Y-294829D01*
X92636Y-294718D01*
X92628Y-294607D01*
X92624Y-294495D01*
X92625Y-294384D01*
X92629Y-294272D01*
X92637Y-294161D01*
X92650Y-294050D01*
X92376Y-294269D01*
X92098Y-294481D01*
X91813Y-294687D01*
X91525Y-294886D01*
X91231Y-295077D01*
X90933Y-295262D01*
X90630Y-295439D01*
X90324Y-295609D01*
X90013Y-295772D01*
X89699Y-295927D01*
X89381Y-296074D01*
X89059Y-296214D01*
X88734Y-296346D01*
X88406Y-296470D01*
X88075Y-296586D01*
X87742Y-296694D01*
X87406Y-296794D01*
X87068Y-296886D01*
X86727Y-296970D01*
X86385Y-297045D01*
X86041Y-297113D01*
X85695Y-297172D01*
X85348Y-297222D01*
X85000Y-297265D01*
X84651Y-297299D01*
X84302Y-297324D01*
X83951Y-297341D01*
X83601Y-297350D01*
X83250Y-297350D01*
X82934Y-297355D01*
X82617Y-297352D01*
X82300Y-297342D01*
X81984Y-297324D01*
X81669Y-297299D01*
X81354Y-297266D01*
X81039Y-297226D01*
X80726Y-297179D01*
X80414Y-297123D01*
X80104Y-297061D01*
X79795Y-296991D01*
X79488Y-296914D01*
X79183Y-296829D01*
X78880Y-296738D01*
X78579Y-296639D01*
X78280Y-296533D01*
X77985Y-296419D01*
X77692Y-296299D01*
X77401Y-296172D01*
X77115Y-296038D01*
X76831Y-295898D01*
X76551Y-295750D01*
X76550Y-295750D02*
X76674Y-294793D01*
X76821Y-293839D01*
X76991Y-292889D01*
X77183Y-291943D01*
X77398Y-291002D01*
X77636Y-290067D01*
X77896Y-289137D01*
X78179Y-288214D01*
X78483Y-287298D01*
X78810Y-286390D01*
X79158Y-285489D01*
X79527Y-284598D01*
X79918Y-283715D01*
X80330Y-282842D01*
X80763Y-281979D01*
X81216Y-281127D01*
X81690Y-280286D01*
X82183Y-279457D01*
X82697Y-278639D01*
X83230Y-277835D01*
X83782Y-277043D01*
X84353Y-276265D01*
X84942Y-275500D01*
X85550Y-274750D01*
X73250Y-285650D02*
X73484Y-285974D01*
X73712Y-286304D01*
X73931Y-286639D01*
X74142Y-286980D01*
X74344Y-287325D01*
X74539Y-287675D01*
X74725Y-288029D01*
X74902Y-288388D01*
X75071Y-288752D01*
X75232Y-289119D01*
X75383Y-289489D01*
X75525Y-289864D01*
X75659Y-290241D01*
X75783Y-290622D01*
X75898Y-291005D01*
X76004Y-291391D01*
X76101Y-291780D01*
X76189Y-292171D01*
X76267Y-292563D01*
X76335Y-292958D01*
X76394Y-293354D01*
X76444Y-293751D01*
X76484Y-294150D01*
X76515Y-294549D01*
X76536Y-294949D01*
X76548Y-295349D01*
X76550Y-295750D01*
D14*
X73250Y-285650D02*
X73345Y-285598D01*
X73438Y-285542D01*
X73529Y-285483D01*
X73618Y-285421D01*
X73704Y-285356D01*
X73789Y-285288D01*
X73871Y-285217D01*
X73950Y-285143D01*
X74027Y-285066D01*
X74101Y-284987D01*
X74172Y-284905D01*
X74240Y-284821D01*
X74306Y-284735D01*
X74368Y-284646D01*
X74427Y-284555D01*
X74483Y-284462D01*
X74536Y-284367D01*
X74585Y-284271D01*
X74631Y-284173D01*
X74673Y-284073D01*
X74712Y-283972D01*
X74748Y-283869D01*
X74780Y-283766D01*
X74808Y-283661D01*
X74832Y-283555D01*
X74853Y-283449D01*
X74870Y-283342D01*
X74884Y-283234D01*
X74893Y-283126D01*
X74899Y-283018D01*
X74901Y-282910D01*
X74899Y-282801D01*
X74894Y-282693D01*
X74884Y-282585D01*
X74871Y-282477D01*
X74854Y-282370D01*
X74834Y-282264D01*
X74810Y-282158D01*
X74782Y-282053D01*
X74750Y-281950D01*
X73250Y-285650D02*
X73154Y-285703D01*
X73055Y-285754D01*
X72956Y-285800D01*
X72854Y-285843D01*
X72751Y-285883D01*
X72647Y-285919D01*
X72542Y-285952D01*
X72435Y-285980D01*
X72328Y-286005D01*
X72220Y-286026D01*
X72111Y-286044D01*
X72001Y-286057D01*
X71891Y-286067D01*
X71781Y-286073D01*
X71671Y-286075D01*
X71561Y-286073D01*
X71451Y-286068D01*
X71341Y-286058D01*
X71231Y-286045D01*
X71122Y-286028D01*
X71014Y-286007D01*
X70907Y-285982D01*
X70800Y-285954D01*
X70695Y-285922D01*
X70590Y-285886D01*
X70487Y-285846D01*
X70386Y-285804D01*
X70286Y-285757D01*
X70188Y-285707D01*
X70091Y-285654D01*
X69996Y-285597D01*
X69904Y-285537D01*
X69813Y-285474D01*
X69725Y-285408D01*
X69640Y-285339D01*
X69556Y-285266D01*
X69476Y-285191D01*
X69397Y-285113D01*
X69322Y-285033D01*
X69250Y-284950D01*
X74750Y-281950D02*
X74707Y-281753D01*
X74661Y-281557D01*
X74609Y-281362D01*
X74553Y-281168D01*
X74493Y-280976D01*
X74428Y-280785D01*
X74358Y-280596D01*
X74285Y-280408D01*
X74207Y-280222D01*
X74124Y-280038D01*
X74038Y-279856D01*
X73947Y-279676D01*
X73852Y-279499D01*
X73753Y-279323D01*
X73650Y-279150D01*
X67450Y-281550D02*
X67532Y-281794D01*
X67620Y-282037D01*
X67713Y-282277D01*
X67812Y-282515D01*
X67916Y-282751D01*
X68026Y-282984D01*
X68142Y-283215D01*
X68262Y-283442D01*
X68388Y-283667D01*
X68519Y-283889D01*
X68655Y-284108D01*
X68797Y-284324D01*
X68943Y-284536D01*
X69094Y-284745D01*
X69250Y-284950D01*
X67449Y-281550D02*
X69019Y-281000D01*
X70576Y-280417D01*
X72119Y-279800D01*
X73649Y-279150D01*
X74050Y-280049D02*
X73038Y-280483D01*
X72017Y-280894D01*
X70988Y-281283D01*
X69950Y-281649D01*
X66550Y-280250D02*
X68347Y-279634D01*
X70130Y-278978D01*
X71898Y-278283D01*
X73650Y-277550D01*
X74250Y-278050D02*
X74273Y-278100D01*
X74292Y-278151D01*
X74307Y-278203D01*
X74318Y-278256D01*
X74326Y-278310D01*
X74330Y-278364D01*
X74329Y-278418D01*
X74326Y-278473D01*
X74318Y-278526D01*
X74306Y-278580D01*
X74291Y-278632D01*
X74272Y-278683D01*
X74249Y-278732D01*
X74223Y-278780D01*
X74194Y-278826D01*
X74161Y-278869D01*
X74126Y-278910D01*
X74087Y-278949D01*
X74046Y-278985D01*
X74003Y-279017D01*
X73957Y-279047D01*
X73909Y-279073D01*
X73860Y-279096D01*
X73809Y-279115D01*
X73757Y-279131D01*
X73704Y-279142D01*
X73650Y-279150D01*
X74250Y-278050D02*
X74236Y-278003D01*
X74218Y-277957D01*
X74197Y-277913D01*
X74173Y-277871D01*
X74145Y-277830D01*
X74115Y-277791D01*
X74083Y-277755D01*
X74047Y-277721D01*
X74010Y-277690D01*
X73970Y-277661D01*
X73928Y-277635D01*
X73885Y-277613D01*
X73840Y-277593D01*
X73794Y-277577D01*
X73747Y-277565D01*
X73699Y-277555D01*
X73650Y-277549D01*
X66550Y-280250D02*
X66520Y-280301D01*
X66493Y-280354D01*
X66470Y-280409D01*
X66450Y-280465D01*
X66433Y-280522D01*
X66421Y-280580D01*
X66411Y-280639D01*
X66406Y-280698D01*
X66404Y-280757D01*
X66406Y-280817D01*
X66411Y-280876D01*
X66421Y-280935D01*
X66434Y-280993D01*
X66450Y-281050D01*
X66480Y-281102D01*
X66513Y-281151D01*
X66549Y-281199D01*
X66587Y-281244D01*
X66629Y-281287D01*
X66673Y-281327D01*
X66719Y-281364D01*
X66768Y-281398D01*
X66819Y-281430D01*
X66871Y-281458D01*
X66925Y-281483D01*
X66980Y-281505D01*
X67037Y-281523D01*
X67095Y-281538D01*
X67153Y-281549D01*
X67212Y-281556D01*
X67272Y-281560D01*
X67331Y-281561D01*
X67391Y-281557D01*
X67450Y-281550D01*
X70050Y-275350D02*
X70104Y-275336D01*
X70160Y-275325D01*
X70215Y-275318D01*
X70271Y-275314D01*
X70327Y-275315D01*
X70383Y-275319D01*
X70439Y-275327D01*
X70494Y-275339D01*
X70548Y-275354D01*
X70601Y-275373D01*
X70653Y-275395D01*
X70702Y-275421D01*
X70750Y-275450D01*
X70050Y-275350D02*
X70014Y-275391D01*
X69981Y-275434D01*
X69951Y-275479D01*
X69925Y-275527D01*
X69902Y-275577D01*
X69883Y-275627D01*
X69868Y-275680D01*
X69857Y-275733D01*
X69849Y-275787D01*
X69845Y-275841D01*
X69846Y-275895D01*
X69850Y-275950D01*
X70750Y-275450D02*
X70926Y-275788D01*
X71095Y-276130D01*
X71257Y-276475D01*
X71411Y-276824D01*
X71557Y-277176D01*
X71696Y-277531D01*
X71827Y-277889D01*
X71950Y-278250D01*
X70950Y-278650D02*
X70838Y-278303D01*
X70719Y-277958D01*
X70593Y-277616D01*
X70459Y-277276D01*
X70317Y-276940D01*
X70169Y-276607D01*
X70013Y-276277D01*
X69850Y-275950D01*
X68150Y-276650D02*
X68300Y-276965D01*
X68442Y-277283D01*
X68578Y-277604D01*
X68707Y-277928D01*
X68828Y-278255D01*
X68943Y-278584D01*
X69050Y-278916D01*
X69150Y-279250D01*
X68250Y-279650D02*
X68149Y-279328D01*
X68041Y-279009D01*
X67926Y-278692D01*
X67804Y-278378D01*
X67676Y-278067D01*
X67540Y-277758D01*
X67398Y-277452D01*
X67250Y-277150D01*
X67450Y-276350D02*
X67492Y-276335D01*
X67535Y-276323D01*
X67579Y-276316D01*
X67623Y-276312D01*
X67668Y-276311D01*
X67712Y-276315D01*
X67756Y-276322D01*
X67799Y-276332D01*
X67842Y-276346D01*
X67883Y-276364D01*
X67922Y-276385D01*
X67959Y-276409D01*
X67995Y-276436D01*
X68028Y-276466D01*
X68058Y-276498D01*
X68086Y-276533D01*
X68111Y-276570D01*
X68132Y-276609D01*
X68150Y-276650D01*
X67450Y-276350D02*
X67412Y-276385D01*
X67377Y-276423D01*
X67344Y-276463D01*
X67315Y-276506D01*
X67289Y-276550D01*
X67266Y-276597D01*
X67246Y-276645D01*
X67230Y-276694D01*
X67218Y-276744D01*
X67209Y-276795D01*
X67204Y-276846D01*
X67202Y-276898D01*
X67204Y-276949D01*
X67210Y-277001D01*
X67220Y-277051D01*
X67233Y-277101D01*
X67250Y-277150D01*
D11*
X-141700Y40300D02*
X-143700Y40300D01*
X-143700Y42300D01*
X-93700Y40300D02*
X-91700Y40300D01*
X-91700Y42300D01*
X-91700Y72300D02*
X-93700Y72300D01*
X-91700Y72300D02*
X-91700Y70300D01*
X-141700Y72300D02*
X-143700Y72300D01*
X-143700Y70300D01*
D12*
X-92700Y35300D03*
D10*
X-126631Y80381D02*
X-129088Y80381D01*
X-127860Y80381D02*
X-127860Y87753D01*
X-129088Y87753D02*
X-126631Y87753D01*
X-135307Y87753D02*
X-136535Y86525D01*
X-135307Y87753D02*
X-132849Y87753D01*
X-131620Y86525D01*
X-131620Y81610D01*
X-132849Y80381D01*
X-135307Y80381D01*
X-136535Y81610D01*
X-139105Y86525D02*
X-140333Y87753D01*
X-142791Y87753D01*
X-144019Y86525D01*
X-144019Y85296D01*
X-142791Y84067D01*
X-141562Y84067D01*
X-142791Y84067D02*
X-144019Y82838D01*
X-144019Y81610D01*
X-142791Y80381D01*
X-140333Y80381D01*
X-139105Y81610D01*
X-181567Y42753D02*
X-182796Y41525D01*
X-181567Y42753D02*
X-179110Y42753D01*
X-177881Y41525D01*
X-177881Y36610D01*
X-179110Y35381D01*
X-181567Y35381D01*
X-182796Y36610D01*
X-185365Y42753D02*
X-190280Y42753D01*
X-185365Y42753D02*
X-185365Y39067D01*
X-187823Y40296D01*
X-189051Y40296D01*
X-190280Y39067D01*
X-190280Y36610D01*
X-189051Y35381D01*
X-186594Y35381D01*
X-185365Y36610D01*
M02*
