G04 EAGLE Gerber RS-274X export*
G75*
%MOMM*%
%FSLAX34Y34*%
%LPD*%
%AMOC8*
5,1,8,0,0,1.08239X$1,22.5*%
G01*
%ADD10C,2.101600*%
%ADD11R,0.901600X0.901600*%
%ADD12R,0.901600X0.901600*%


D10*
X0Y0D03*
D11*
X38450Y54250D03*
X38450Y39250D03*
X93900Y81750D03*
X93900Y66750D03*
X150600Y80500D03*
X150600Y65500D03*
D12*
G36*
X210818Y32655D02*
X204443Y39030D01*
X210818Y45405D01*
X217193Y39030D01*
X210818Y32655D01*
G37*
G36*
X200212Y22049D02*
X193837Y28424D01*
X200212Y34799D01*
X206587Y28424D01*
X200212Y22049D01*
G37*
D11*
X242100Y-25100D03*
X227100Y-25100D03*
X242100Y-83050D03*
X227100Y-83050D03*
X228350Y-139750D03*
X213350Y-139750D03*
X195850Y-193950D03*
X180850Y-193950D03*
D12*
G36*
X151354Y-240846D02*
X157729Y-234471D01*
X164104Y-240846D01*
X157729Y-247221D01*
X151354Y-240846D01*
G37*
G36*
X140748Y-230240D02*
X147123Y-223865D01*
X153498Y-230240D01*
X147123Y-236615D01*
X140748Y-230240D01*
G37*
D11*
X105150Y-280850D03*
X105150Y-265850D03*
X59700Y-300850D03*
X59700Y-285850D03*
X13000Y-317100D03*
X13000Y-302100D03*
X-37450Y-310850D03*
X-37450Y-295850D03*
X-82900Y-292100D03*
X-82900Y-277100D03*
X-129600Y-264600D03*
X-129600Y-249600D03*
D12*
G36*
X-175208Y-216191D02*
X-168833Y-222566D01*
X-175208Y-228941D01*
X-181583Y-222566D01*
X-175208Y-216191D01*
G37*
G36*
X-164602Y-205585D02*
X-158227Y-211960D01*
X-164602Y-218335D01*
X-170977Y-211960D01*
X-164602Y-205585D01*
G37*
D11*
X-213300Y-168200D03*
X-198300Y-168200D03*
X-235800Y-109000D03*
X-220800Y-109000D03*
X-248300Y-52300D03*
X-233300Y-52300D03*
D12*
G36*
X-220651Y13676D02*
X-227026Y7301D01*
X-233401Y13676D01*
X-227026Y20051D01*
X-220651Y13676D01*
G37*
G36*
X-210045Y3070D02*
X-216420Y-3305D01*
X-222795Y3070D01*
X-216420Y9445D01*
X-210045Y3070D01*
G37*
G36*
X-174966Y60610D02*
X-181341Y54235D01*
X-187716Y60610D01*
X-181341Y66985D01*
X-174966Y60610D01*
G37*
G36*
X-164360Y50004D02*
X-170735Y43629D01*
X-177110Y50004D01*
X-170735Y56379D01*
X-164360Y50004D01*
G37*
D11*
X-122200Y82050D03*
X-122200Y67050D03*
X-68000Y73300D03*
X-68000Y58300D03*
X-13800Y33300D03*
X-13800Y18300D03*
X13850Y33250D03*
X13850Y18250D03*
X66800Y73250D03*
X66800Y58250D03*
X119750Y82000D03*
X119750Y67000D03*
D12*
G36*
X181858Y53950D02*
X175483Y60325D01*
X181858Y66700D01*
X188233Y60325D01*
X181858Y53950D01*
G37*
G36*
X171252Y43344D02*
X164877Y49719D01*
X171252Y56094D01*
X177627Y49719D01*
X171252Y43344D01*
G37*
G36*
X227025Y7748D02*
X220650Y14123D01*
X227025Y20498D01*
X233400Y14123D01*
X227025Y7748D01*
G37*
G36*
X216419Y-2858D02*
X210044Y3517D01*
X216419Y9892D01*
X222794Y3517D01*
X216419Y-2858D01*
G37*
D11*
X248250Y-52350D03*
X233250Y-52350D03*
X235750Y-109050D03*
X220750Y-109050D03*
X213250Y-168250D03*
X198250Y-168250D03*
D12*
G36*
X170011Y-222048D02*
X176386Y-215673D01*
X182761Y-222048D01*
X176386Y-228423D01*
X170011Y-222048D01*
G37*
G36*
X159405Y-211442D02*
X165780Y-205067D01*
X172155Y-211442D01*
X165780Y-217817D01*
X159405Y-211442D01*
G37*
D11*
X129813Y-264285D03*
X129813Y-249285D03*
X82900Y-292000D03*
X82900Y-277000D03*
X37400Y-310700D03*
X37400Y-295700D03*
X-13050Y-316950D03*
X-13050Y-301950D03*
X-59750Y-300700D03*
X-59750Y-285700D03*
X-105200Y-280700D03*
X-105200Y-265700D03*
D12*
G36*
X-157874Y-234848D02*
X-151499Y-241223D01*
X-157874Y-247598D01*
X-164249Y-241223D01*
X-157874Y-234848D01*
G37*
G36*
X-147268Y-224242D02*
X-140893Y-230617D01*
X-147268Y-236992D01*
X-153643Y-230617D01*
X-147268Y-224242D01*
G37*
D11*
X-195700Y-193900D03*
X-180700Y-193900D03*
X-228200Y-139700D03*
X-213200Y-139700D03*
X-243200Y-83000D03*
X-228200Y-83000D03*
X-242468Y-24534D03*
X-227468Y-24534D03*
D12*
G36*
X-201641Y39616D02*
X-208016Y33241D01*
X-214391Y39616D01*
X-208016Y45991D01*
X-201641Y39616D01*
G37*
G36*
X-191035Y29010D02*
X-197410Y22635D01*
X-203785Y29010D01*
X-197410Y35385D01*
X-191035Y29010D01*
G37*
D11*
X-150400Y80700D03*
X-150400Y65700D03*
X-94900Y80650D03*
X-94900Y65650D03*
X-39450Y54400D03*
X-39450Y39400D03*
D10*
X115500Y-1000D03*
X115500Y-201000D03*
M02*
