G04 EAGLE Gerber RS-274X export*
G75*
%MOMM*%
%FSLAX34Y34*%
%LPD*%
%AMOC8*
5,1,8,0,0,1.08239X$1,22.5*%
G01*
%ADD10C,2.101600*%
%ADD11R,0.501600X1.601600*%
%ADD12R,1.701600X0.401600*%
%ADD13R,0.401600X1.701600*%
%ADD14R,0.601600X2.601600*%
%ADD15R,2.101600X2.601600*%
%ADD16C,1.001600*%
%ADD17R,0.901600X1.601600*%
%ADD18R,1.601600X0.901600*%
%ADD19R,2.133600X2.641600*%
%ADD20R,0.601600X1.301600*%
%ADD21R,1.301600X0.601600*%


D10*
X0Y0D03*
D11*
X-161750Y-157350D03*
X-155250Y-157350D03*
X-148750Y-157350D03*
X-142250Y-157350D03*
X-135750Y-157350D03*
X-129250Y-157350D03*
X-122750Y-157350D03*
X-116250Y-157350D03*
X-109750Y-157350D03*
X-103250Y-157350D03*
X-96750Y-157350D03*
X-90250Y-157350D03*
X-83750Y-157350D03*
X-77250Y-157350D03*
X-77250Y-229850D03*
X-83750Y-229850D03*
X-90250Y-229850D03*
X-96750Y-229850D03*
X-103250Y-229850D03*
X-109750Y-229850D03*
X-116250Y-229850D03*
X-122750Y-229850D03*
X-129250Y-229850D03*
X-135750Y-229850D03*
X-142250Y-229850D03*
X-148750Y-229850D03*
X-155250Y-229850D03*
X-161750Y-229850D03*
D12*
X-124800Y-90700D03*
X-124800Y-85700D03*
X-124800Y-80700D03*
X-124800Y-75700D03*
X-124800Y-70700D03*
X-124800Y-65700D03*
X-124800Y-60700D03*
X-124800Y-55700D03*
X-124800Y-50700D03*
X-124800Y-45700D03*
X-124800Y-40700D03*
X-124800Y-35700D03*
X-124800Y-30700D03*
X-124800Y-25700D03*
X-124800Y-20700D03*
X-124800Y-15700D03*
D13*
X-106300Y2800D03*
X-101300Y2800D03*
X-96300Y2800D03*
X-91300Y2800D03*
X-86300Y2800D03*
X-81300Y2800D03*
X-76300Y2800D03*
X-71300Y2800D03*
X-66300Y2800D03*
X-61300Y2800D03*
X-56300Y2800D03*
X-51300Y2800D03*
X-46300Y2800D03*
X-41300Y2800D03*
X-36300Y2800D03*
X-31300Y2800D03*
D12*
X-12800Y-15700D03*
X-12800Y-20700D03*
X-12800Y-25700D03*
X-12800Y-30700D03*
X-12800Y-35700D03*
X-12800Y-40700D03*
X-12800Y-45700D03*
X-12800Y-50700D03*
X-12800Y-55700D03*
X-12800Y-60700D03*
X-12800Y-65700D03*
X-12800Y-70700D03*
X-12800Y-75700D03*
X-12800Y-80700D03*
X-12800Y-85700D03*
X-12800Y-90700D03*
D13*
X-31300Y-109200D03*
X-36300Y-109200D03*
X-41300Y-109200D03*
X-46300Y-109200D03*
X-51300Y-109200D03*
X-56300Y-109200D03*
X-61300Y-109200D03*
X-66300Y-109200D03*
X-71300Y-109200D03*
X-76300Y-109200D03*
X-81300Y-109200D03*
X-86300Y-109200D03*
X-91300Y-109200D03*
X-96300Y-109200D03*
X-101300Y-109200D03*
X-106300Y-109200D03*
D14*
X0Y-237350D03*
X8000Y-237350D03*
X-16000Y-237350D03*
X-8000Y-237350D03*
D15*
X-45000Y-292350D03*
X45000Y-292350D03*
X-45000Y-237350D03*
X45000Y-237350D03*
D14*
X16000Y-237350D03*
D16*
X22000Y-262350D03*
X-22000Y-262350D03*
D17*
X-189650Y-188350D03*
X-206650Y-188350D03*
X-108400Y-260800D03*
X-91400Y-260800D03*
D18*
X-142000Y-112500D03*
X-142000Y-129500D03*
D19*
X-182650Y-1140D03*
X-182650Y-123060D03*
D17*
X-236000Y-115000D03*
X-219000Y-115000D03*
X-236000Y-10000D03*
X-219000Y-10000D03*
D18*
X-152900Y28750D03*
X-152900Y11750D03*
D10*
X115000Y0D03*
X115000Y-200000D03*
D18*
X-43750Y68500D03*
X-43750Y51500D03*
X-72500Y22750D03*
X-72500Y39750D03*
D20*
X-137700Y45300D03*
X-129700Y45300D03*
X-121700Y45300D03*
X-113700Y45300D03*
X-105700Y45300D03*
X-97700Y45300D03*
D21*
X-96700Y56300D03*
D20*
X-97700Y67300D03*
X-105700Y67300D03*
X-113700Y67300D03*
X-121700Y67300D03*
X-129700Y67300D03*
X-137700Y67300D03*
D21*
X-138700Y56300D03*
D17*
X-175250Y56250D03*
X-192250Y56250D03*
M02*
