G04 EAGLE Gerber RS-274X export*
G75*
%MOMM*%
%FSLAX34Y34*%
%LPD*%
%AMOC8*
5,1,8,0,0,1.08239X$1,22.5*%
G01*
%ADD10C,2.101600*%
%ADD11R,0.401600X0.701600*%
%ADD12R,0.701600X0.401600*%
%ADD13R,3.101600X3.101600*%
%ADD14R,0.863600X0.660400*%
%ADD15R,1.117600X0.990600*%
%ADD16R,0.660400X0.863600*%
%ADD17R,0.551600X1.801600*%
%ADD18R,1.576600X2.201600*%
%ADD19R,2.476600X2.001600*%
%ADD20R,1.117600X0.863600*%
%ADD21R,1.117600X1.117600*%
%ADD22R,0.863600X1.168400*%
%ADD23R,3.501600X2.001600*%
%ADD24R,1.501600X1.701600*%
%ADD25R,0.401600X0.801600*%
%ADD26R,0.801600X0.401600*%
%ADD27R,4.301600X4.301600*%
%ADD28R,2.101600X2.101600*%


D10*
X0Y0D03*
D11*
X-55500Y-197000D03*
X-50500Y-197000D03*
X-45500Y-197000D03*
X-40500Y-197000D03*
X-35500Y-197000D03*
X-30500Y-197000D03*
X-25500Y-197000D03*
X-20500Y-197000D03*
D12*
X-15000Y-202500D03*
X-15000Y-207500D03*
X-15000Y-212500D03*
X-15000Y-217500D03*
X-15000Y-222500D03*
X-15000Y-227500D03*
X-15000Y-232500D03*
X-15000Y-237500D03*
D11*
X-20500Y-243000D03*
X-25500Y-243000D03*
X-30500Y-243000D03*
X-35500Y-243000D03*
X-40500Y-243000D03*
X-45500Y-243000D03*
X-50500Y-243000D03*
X-55500Y-243000D03*
D12*
X-61000Y-237500D03*
X-61000Y-232500D03*
X-61000Y-227500D03*
X-61000Y-222500D03*
X-61000Y-217500D03*
X-61000Y-212500D03*
X-61000Y-207500D03*
X-61000Y-202500D03*
D13*
X-38000Y-220000D03*
D14*
X-118150Y-252150D03*
X-118150Y-265150D03*
D15*
X19500Y-249500D03*
X19500Y-232500D03*
D16*
X-118000Y-29000D03*
X-131000Y-29000D03*
X-131000Y-73200D03*
X-118000Y-73200D03*
X-41750Y-66100D03*
X-54750Y-66100D03*
D10*
X115500Y-1000D03*
X115500Y-201000D03*
D17*
X0Y-284000D03*
X6500Y-284000D03*
X-6500Y-284000D03*
X-13000Y-284000D03*
X13000Y-284000D03*
D18*
X25000Y-289000D03*
X-25000Y-289000D03*
D19*
X29500Y-312000D03*
X-29500Y-312000D03*
D20*
X-107200Y-60475D03*
X-131213Y-60475D03*
X-131213Y-41525D03*
X-107200Y-41525D03*
D21*
X-151040Y-25250D03*
X-183960Y-25250D03*
D22*
X-66500Y-9000D03*
X-76000Y-31000D03*
X-57000Y-31000D03*
X-48000Y33000D03*
X-57500Y11000D03*
X-38500Y11000D03*
X-30500Y-9000D03*
X-40000Y-31000D03*
X-21000Y-31000D03*
D23*
X-167500Y-86500D03*
X-167500Y-47500D03*
D24*
X-197500Y-76000D03*
X-197500Y-46000D03*
D25*
X-107500Y-89750D03*
X-102500Y-89750D03*
X-97500Y-89750D03*
X-92500Y-89750D03*
X-87500Y-89750D03*
X-82500Y-89750D03*
X-77500Y-89750D03*
X-72500Y-89750D03*
X-67500Y-89750D03*
X-62500Y-89750D03*
D26*
X-54750Y-97500D03*
X-54750Y-102500D03*
X-54750Y-107500D03*
X-54750Y-112500D03*
X-54750Y-117500D03*
X-54750Y-122500D03*
X-54750Y-127500D03*
X-54750Y-132500D03*
X-54750Y-137500D03*
X-54750Y-142500D03*
D25*
X-62500Y-150250D03*
X-67500Y-150250D03*
X-72500Y-150250D03*
X-77500Y-150250D03*
X-82500Y-150250D03*
X-87500Y-150250D03*
X-92500Y-150250D03*
X-97500Y-150250D03*
X-102500Y-150250D03*
X-107500Y-150250D03*
D26*
X-115250Y-142500D03*
X-115250Y-137500D03*
X-115250Y-132500D03*
X-115250Y-127500D03*
X-115250Y-122500D03*
X-115250Y-117500D03*
X-115250Y-112500D03*
X-115250Y-107500D03*
X-115250Y-102500D03*
X-115250Y-97500D03*
D27*
X-85000Y-120000D03*
D28*
X-82500Y12500D03*
X-152500Y12500D03*
X-152500Y82500D03*
X-82500Y82500D03*
M02*
